if (_typeface_js && _typeface_js.loadFace) _typeface_js.loadFace({"glyphs":{"\u0000":{"x_min":0,"x_max":694.5,"ha":695,"o":"m 694 1282 l 694 -407 l 0 -407 l 0 1282 l 694 1282 "},"¦":{"x_min":139,"x_max":181,"ha":319,"o":"m 139 1240 l 139 628 l 181 628 l 181 1240 l 139 1240 m 139 444 l 139 -167 l 181 -167 l 181 444 l 139 444 "},"Ő":{"x_min":69.453125,"x_max":1066.75,"ha":1136,"o":"m 69 486 q 108 679 69 588 q 215 838 147 770 q 374 945 283 905 q 568 984 465 984 q 761 945 670 984 q 920 838 852 905 q 1027 679 987 770 q 1066 486 1066 588 q 1027 292 1066 383 q 920 133 987 201 q 761 26 852 65 q 568 -12 670 -12 q 374 26 465 -12 q 215 133 283 65 q 108 292 147 201 q 69 486 69 383 m 111 486 q 147 308 111 391 q 245 163 183 225 q 390 65 306 101 q 568 29 473 29 q 745 65 662 29 q 891 163 829 101 q 988 308 952 225 q 1025 486 1025 391 q 988 663 1025 580 q 891 809 952 747 q 745 907 829 870 q 568 943 662 943 q 390 907 473 943 q 245 809 306 870 q 147 663 183 747 q 111 486 111 580 m 569 1088 l 779 1239 l 804 1205 l 594 1055 l 569 1088 m 400 1088 l 609 1239 l 634 1205 l 425 1055 l 400 1088 "},"Ž":{"x_min":73.390625,"x_max":684.5625,"ha":764,"o":"m 77 930 l 612 930 l 73 0 l 680 0 l 680 42 l 145 42 l 684 972 l 77 972 l 77 930 m 502 1214 l 377 1055 l 254 1214 l 287 1239 l 377 1123 l 469 1239 l 502 1214 "},"Á":{"x_min":68.0625,"x_max":812.5625,"ha":881,"o":"m 68 6 l 106 -7 l 208 262 l 672 262 l 773 -7 l 812 6 l 440 996 l 68 6 m 440 877 l 655 304 l 223 304 l 440 877 m 335 1088 l 544 1239 l 569 1205 l 360 1055 l 335 1088 "},"ĥ":{"x_min":-9.765625,"x_max":670.890625,"ha":754,"o":"m 133 1240 l 133 684 q 242 739 181 720 q 365 758 302 758 q 454 747 411 758 q 536 713 498 736 q 604 654 575 690 q 652 572 634 619 q 670 475 670 526 l 670 0 l 629 0 l 629 472 q 613 556 629 516 q 513 677 583 638 q 363 716 444 716 q 239 694 300 716 q 133 632 179 672 l 133 0 l 91 0 l 91 1240 l 133 1240 m 205 1341 l 113 1456 l 23 1341 l -9 1365 l 113 1525 l 238 1365 l 205 1341 "},"Î":{"x_min":-3.765625,"x_max":244.859375,"ha":236,"o":"m 97 972 l 97 0 l 139 0 l 139 972 l 97 972 m 211 1055 l 119 1170 l 29 1055 l -3 1079 l 119 1239 l 244 1079 l 211 1055 "},"e":{"x_min":69.453125,"x_max":711.171875,"ha":781,"o":"m 627 0 q 581 -4 604 -2 q 538 -5 559 -5 q 335 27 423 -5 q 188 112 247 59 q 99 234 129 165 q 69 375 69 302 q 103 556 69 483 q 187 675 137 630 q 295 738 237 719 q 400 758 352 758 q 531 731 473 758 q 629 656 590 704 q 690 545 669 609 q 711 408 711 481 l 112 408 q 111 391 111 400 q 111 375 111 383 q 137 252 111 312 q 217 143 163 191 q 352 66 270 95 q 543 37 433 37 q 627 41 583 37 l 627 0 m 400 716 q 309 700 355 716 q 224 651 263 684 q 156 568 184 618 q 116 450 127 518 l 666 450 q 649 540 666 493 q 598 627 632 587 q 515 691 565 666 q 400 716 465 716 "},"»":{"x_min":69.453125,"x_max":509.765625,"ha":579,"o":"m 275 193 l 509 374 l 275 558 l 250 524 l 440 374 l 250 226 l 275 193 m 94 193 l 329 374 l 94 558 l 69 524 l 259 374 l 69 226 l 94 193 "},"ļ":{"x_min":64.34375,"x_max":147.6875,"ha":208,"o":"m 85 1240 l 85 0 l 127 0 l 127 1240 l 85 1240 m 147 -69 l 147 -166 q 146 -189 147 -174 q 140 -218 146 -204 q 120 -248 133 -233 q 82 -271 107 -262 l 68 -232 q 101 -201 96 -222 q 106 -166 106 -180 l 106 -145 l 64 -145 l 64 -69 l 147 -69 "},"Ĕ":{"x_min":97,"x_max":647.375,"ha":724,"o":"m 647 0 l 647 42 l 139 42 l 139 522 l 555 522 l 555 564 l 139 564 l 139 930 l 647 930 l 647 972 l 97 972 l 97 0 l 647 0 m 511 1210 q 472 1121 511 1157 q 372 1085 434 1085 q 271 1121 309 1085 q 233 1210 233 1157 l 274 1210 q 301 1150 274 1174 q 372 1127 327 1127 q 442 1150 416 1127 q 469 1210 469 1174 l 511 1210 "},"ò":{"x_min":69.453125,"x_max":841.734375,"ha":911,"o":"m 69 372 q 100 522 69 451 q 182 645 130 593 q 305 727 234 697 q 455 758 376 758 q 605 727 534 758 q 728 645 676 697 q 811 522 780 593 q 841 372 841 451 q 811 222 841 293 q 728 99 780 151 q 605 16 676 47 q 455 -13 534 -13 q 305 16 376 -13 q 182 99 234 47 q 100 222 130 151 q 69 372 69 293 m 111 372 q 138 238 111 301 q 211 128 165 175 q 321 54 258 81 q 455 27 384 27 q 589 54 526 27 q 699 128 652 81 q 772 238 745 175 q 800 372 800 301 q 772 506 800 443 q 699 616 745 569 q 589 689 652 662 q 455 716 526 716 q 321 689 384 716 q 211 616 258 662 q 138 506 165 569 q 111 372 111 443 m 549 845 l 339 995 l 364 1029 l 574 878 l 549 845 "},"ţ":{"x_min":29.171875,"x_max":383.359375,"ha":411,"o":"m 352 702 l 133 702 l 133 261 q 150 162 133 204 q 195 93 166 120 q 262 53 223 66 q 345 40 301 40 q 360 40 352 40 q 377 41 368 40 l 383 0 q 363 -1 373 -1 q 345 -1 354 -1 q 246 14 293 -1 q 165 62 200 30 q 111 144 130 94 q 91 261 91 194 l 91 702 l 29 702 l 29 744 l 91 744 l 91 986 l 133 986 l 133 744 l 352 744 l 352 702 m 276 -69 l 276 -166 q 275 -189 276 -174 q 269 -218 275 -204 q 249 -248 262 -233 q 211 -271 236 -262 l 197 -232 q 230 -201 225 -222 q 235 -166 235 -180 l 235 -145 l 193 -145 l 193 -69 l 276 -69 "},"^":{"x_min":69.453125,"x_max":381.96875,"ha":451,"o":"m 381 770 l 226 972 l 69 770 l 102 746 l 226 902 l 348 746 l 381 770 "},"«":{"x_min":69.453125,"x_max":509.765625,"ha":579,"o":"m 509 226 l 319 374 l 509 524 l 484 558 l 250 374 l 484 193 l 509 226 m 329 226 l 138 374 l 329 524 l 304 558 l 69 374 l 304 193 l 329 226 "},"í":{"x_min":23.234375,"x_max":257.96875,"ha":236,"o":"m 97 745 l 97 0 l 139 0 l 139 745 l 97 745 m 23 878 l 232 1029 l 257 995 l 48 845 l 23 878 "},"ˆ":{"x_min":97.234375,"x_max":345.859375,"ha":443,"o":"m 312 845 l 220 960 l 130 845 l 97 869 l 220 1029 l 345 869 l 312 845 "},"ū":{"x_min":83.34375,"x_max":663.9375,"ha":747,"o":"m 125 744 l 125 268 q 144 170 125 213 q 197 94 163 126 q 277 45 231 62 q 373 27 322 27 q 470 45 425 27 q 549 94 515 62 q 602 170 583 126 q 622 268 622 213 l 622 744 l 663 744 l 663 268 q 641 153 663 205 q 578 63 618 101 q 486 6 538 26 q 373 -13 433 -13 q 261 6 313 -13 q 168 63 208 26 q 106 153 129 101 q 83 268 83 205 l 83 744 l 125 744 m 198 959 l 559 959 l 559 917 l 198 917 l 198 959 "},"ņ":{"x_min":91.671875,"x_max":672.28125,"ha":756,"o":"m 133 744 l 133 683 q 243 738 181 719 q 368 758 305 758 q 541 711 461 758 q 655 572 620 665 q 667 534 662 555 q 672 475 672 513 l 672 0 l 630 0 l 630 475 q 606 579 630 534 q 545 655 583 625 q 461 701 508 686 q 368 716 415 716 q 240 694 304 716 q 133 632 177 672 l 133 0 l 91 0 l 91 744 l 133 744 m 423 -69 l 423 -166 q 422 -189 423 -174 q 416 -218 422 -204 q 396 -248 409 -233 q 358 -271 383 -262 l 344 -232 q 377 -201 372 -222 q 382 -166 382 -180 l 382 -145 l 340 -145 l 340 -69 l 423 -69 "},"č":{"x_min":69.453125,"x_max":629.21875,"ha":699,"o":"m 629 -5 q 540 -9 583 -9 q 334 22 422 -9 q 186 109 245 55 q 98 231 127 162 q 69 372 69 300 q 98 513 69 444 q 186 636 127 581 q 334 722 245 690 q 540 755 422 755 q 629 751 583 755 l 626 709 q 540 713 580 713 q 352 684 433 713 q 218 606 272 654 q 138 497 165 558 q 111 372 111 436 q 138 247 111 308 q 218 138 165 186 q 352 61 272 90 q 540 31 433 31 q 626 36 580 31 l 629 -5 m 537 1004 l 412 845 l 289 1004 l 322 1029 l 412 913 l 504 1029 l 537 1004 "},"’":{"x_min":86.125,"x_max":169.453125,"ha":256,"o":"m 169 972 l 169 854 q 168 828 169 845 q 161 793 168 811 q 142 757 155 775 q 104 732 129 740 l 90 770 q 111 786 104 775 q 122 810 119 797 q 127 835 126 823 q 127 854 127 847 l 127 888 l 86 888 l 86 972 l 169 972 "},"-":{"x_min":69.453125,"x_max":430.59375,"ha":500,"o":"m 69 408 l 430 408 l 430 450 l 69 450 l 69 408 "},"Q":{"x_min":69.453125,"x_max":1066.75,"ha":1136,"o":"m 1036 -12 l 904 118 q 751 22 837 56 q 568 -12 665 -12 q 374 26 465 -12 q 215 133 283 65 q 108 292 147 201 q 69 486 69 383 q 108 679 69 588 q 215 838 147 770 q 374 945 283 905 q 568 984 465 984 q 761 945 670 984 q 920 838 852 905 q 1027 679 987 770 q 1066 486 1066 588 q 1032 301 1066 387 q 934 148 997 215 l 1066 18 l 1036 -12 m 111 486 q 147 308 111 391 q 245 163 183 225 q 390 65 306 101 q 568 29 473 29 q 735 60 657 29 q 875 147 813 91 l 744 279 l 775 309 l 905 177 q 993 318 961 240 q 1025 486 1025 395 q 988 663 1025 580 q 891 809 952 747 q 745 907 829 870 q 568 943 662 943 q 390 907 473 943 q 245 809 306 870 q 147 663 183 747 q 111 486 111 580 "},"M":{"x_min":97,"x_max":814,"ha":911,"o":"m 139 0 l 139 840 l 455 245 l 772 840 l 772 0 l 814 0 l 814 1006 l 455 334 l 97 1006 l 97 0 l 139 0 "},"œ":{"x_min":69.453125,"x_max":1441.78125,"ha":1511,"o":"m 69 372 q 100 522 69 451 q 182 645 130 593 q 305 727 234 697 q 455 758 376 758 q 572 739 516 758 q 676 687 629 720 q 759 608 723 654 q 816 508 795 562 q 872 627 836 579 q 954 704 909 675 q 1045 745 998 733 q 1130 758 1091 758 q 1262 731 1204 758 q 1360 656 1320 704 q 1420 545 1400 609 q 1441 408 1441 481 l 843 408 q 841 387 841 401 l 841 375 q 868 252 841 312 q 947 143 894 191 q 1082 66 1001 95 q 1273 37 1163 37 q 1358 41 1314 37 l 1358 0 q 1312 -4 1334 -2 q 1269 -5 1290 -5 q 1105 14 1179 -5 q 975 69 1032 34 q 881 151 919 104 q 822 251 843 198 q 766 144 802 193 q 682 60 730 95 q 577 5 634 25 q 455 -13 519 -13 q 305 16 376 -13 q 182 99 234 47 q 100 222 130 151 q 69 372 69 293 m 111 372 q 138 238 111 301 q 211 128 165 175 q 321 54 258 81 q 455 27 384 27 q 589 54 526 27 q 699 128 652 81 q 772 238 745 175 q 800 372 800 301 q 772 506 800 443 q 699 616 745 569 q 589 689 652 662 q 455 716 526 716 q 321 689 384 716 q 211 616 258 662 q 138 506 165 569 q 111 372 111 443 m 1130 716 q 1040 700 1086 716 q 954 651 994 684 q 886 568 915 618 q 847 450 858 518 l 1397 450 q 1379 540 1397 493 q 1329 627 1362 587 q 1245 691 1295 666 q 1130 716 1195 716 "},"ě":{"x_min":69.453125,"x_max":711.171875,"ha":781,"o":"m 627 0 q 581 -4 604 -2 q 538 -5 559 -5 q 335 27 423 -5 q 188 112 247 59 q 99 234 129 165 q 69 375 69 302 q 103 556 69 483 q 187 675 137 630 q 295 738 237 719 q 400 758 352 758 q 531 731 473 758 q 629 656 590 704 q 690 545 669 609 q 711 408 711 481 l 112 408 q 111 391 111 400 q 111 375 111 383 q 137 252 111 312 q 217 143 163 191 q 352 66 270 95 q 543 37 433 37 q 627 41 583 37 l 627 0 m 400 716 q 309 700 355 716 q 224 651 263 684 q 156 568 184 618 q 116 450 127 518 l 666 450 q 649 540 666 493 q 598 627 632 587 q 515 691 565 666 q 400 716 465 716 m 527 1004 l 402 845 l 279 1004 l 312 1029 l 402 913 l 494 1029 l 527 1004 "},"ũ":{"x_min":83.34375,"x_max":663.9375,"ha":747,"o":"m 125 744 l 125 268 q 144 170 125 213 q 197 94 163 126 q 277 45 231 62 q 373 27 322 27 q 470 45 425 27 q 549 94 515 62 q 602 170 583 126 q 622 268 622 213 l 622 744 l 663 744 l 663 268 q 641 153 663 205 q 578 63 618 101 q 486 6 538 26 q 373 -13 433 -13 q 261 6 313 -13 q 168 63 208 26 q 106 153 129 101 q 83 268 83 205 l 83 744 l 125 744 m 543 955 q 497 905 524 920 q 444 890 469 890 q 367 919 406 890 q 312 941 337 941 q 278 929 297 941 q 249 893 260 918 l 215 917 q 260 967 233 951 q 312 983 286 983 q 392 953 353 983 q 444 932 418 932 q 478 943 460 932 q 510 981 497 954 l 543 955 "},"ŭ":{"x_min":83.34375,"x_max":663.9375,"ha":747,"o":"m 125 744 l 125 268 q 144 170 125 213 q 197 94 163 126 q 277 45 231 62 q 373 27 322 27 q 470 45 425 27 q 549 94 515 62 q 602 170 583 126 q 622 268 622 213 l 622 744 l 663 744 l 663 268 q 641 153 663 205 q 578 63 618 101 q 486 6 538 26 q 373 -13 433 -13 q 261 6 313 -13 q 168 63 208 26 q 106 153 129 101 q 83 268 83 205 l 83 744 l 125 744 m 518 1000 q 479 911 518 947 q 379 875 441 875 q 278 911 316 875 q 240 1000 240 947 l 281 1000 q 308 940 281 964 q 379 917 334 917 q 449 940 423 917 q 476 1000 476 964 l 518 1000 "},"{":{"x_min":65.28125,"x_max":347.25,"ha":347,"o":"m 347 1083 q 274 1071 305 1083 q 222 1041 243 1059 q 190 998 201 1022 q 180 951 180 975 q 186 875 180 915 q 201 791 193 834 q 215 702 209 747 q 222 613 222 657 q 195 537 222 569 q 133 486 169 505 q 195 434 169 466 q 222 358 222 402 q 215 269 222 313 q 201 181 209 225 q 186 96 193 137 q 180 20 180 55 q 190 -26 180 -2 q 222 -68 201 -50 q 274 -99 243 -87 q 347 -111 305 -111 l 347 -152 q 255 -137 294 -152 q 190 -97 216 -122 q 151 -41 163 -72 q 138 20 138 -11 q 145 106 138 62 q 159 193 151 150 q 174 278 168 236 q 180 358 180 320 q 168 397 180 379 q 138 430 155 415 q 100 455 120 445 q 65 469 80 465 l 65 502 q 100 516 80 506 q 138 541 120 526 q 168 575 155 556 q 180 613 180 593 q 174 693 180 651 q 159 779 168 736 q 145 866 151 822 q 138 951 138 909 q 151 1013 138 982 q 190 1069 163 1044 q 255 1109 216 1094 q 347 1125 294 1125 l 347 1083 "},"#":{"x_min":38.890625,"x_max":718.109375,"ha":743,"o":"m 718 688 l 572 688 l 615 972 l 572 972 l 529 688 l 290 688 l 333 972 l 290 972 l 247 688 l 102 688 l 95 646 l 241 646 l 190 306 l 45 306 l 38 264 l 183 264 l 144 0 l 186 0 l 226 264 l 465 264 l 426 0 l 468 0 l 508 264 l 654 264 l 661 306 l 513 306 l 565 646 l 711 646 l 718 688 m 283 646 l 523 646 l 472 306 l 231 306 l 283 646 "},"Ĳ":{"x_min":97,"x_max":781.875,"ha":874,"o":"m 97 972 l 97 0 l 139 0 l 139 972 l 97 972 m 740 972 l 781 972 l 781 309 q 761 182 781 241 q 704 79 741 123 q 616 11 667 36 q 504 -13 565 -13 q 390 13 441 -13 q 298 80 338 40 l 327 112 q 411 51 367 75 q 504 27 454 27 q 584 43 548 27 q 649 84 620 58 q 697 143 677 109 q 726 213 716 176 q 736 271 733 240 q 740 322 740 302 l 740 972 "},"Ê":{"x_min":97,"x_max":647.375,"ha":724,"o":"m 647 0 l 647 42 l 139 42 l 139 522 l 555 522 l 555 564 l 139 564 l 139 930 l 647 930 l 647 972 l 97 972 l 97 0 l 647 0 m 463 1055 l 371 1170 l 281 1055 l 248 1079 l 371 1239 l 496 1079 l 463 1055 "},")":{"x_min":0,"x_max":288.90625,"ha":365,"o":"m 0 -125 q 186 164 125 6 q 247 486 247 322 q 186 807 247 650 q 0 1097 125 965 l 30 1125 q 225 821 161 986 q 288 486 288 657 q 225 150 288 313 q 30 -152 161 -13 l 0 -125 "},"Å":{"x_min":68.0625,"x_max":812.5625,"ha":881,"o":"m 68 6 l 106 -7 l 208 262 l 672 262 l 773 -7 l 812 6 l 440 996 l 68 6 m 440 877 l 655 304 l 223 304 l 440 877 m 337 1148 q 364 1213 337 1186 q 430 1241 391 1241 q 495 1213 468 1241 q 523 1148 523 1186 q 495 1082 523 1109 q 430 1055 468 1055 q 364 1082 391 1055 q 337 1148 337 1109 m 378 1147 q 394 1111 378 1126 q 430 1096 409 1096 q 466 1111 450 1096 q 481 1147 481 1126 q 466 1183 481 1168 q 430 1199 450 1199 q 394 1183 409 1199 q 378 1147 378 1168 "},"¸":{"x_min":148.625,"x_max":277.796875,"ha":375,"o":"m 162 -112 q 194 -117 175 -117 q 223 -111 211 -117 q 236 -90 236 -105 q 222 -80 236 -83 q 191 -76 209 -76 l 173 -76 l 194 4 l 236 -7 l 227 -33 q 263 -52 250 -37 q 277 -90 277 -66 q 251 -143 277 -126 q 193 -160 225 -160 q 148 -151 169 -160 l 162 -112 "},"a":{"x_min":76.390625,"x_max":655.609375,"ha":739,"o":"m 150 655 q 263 731 201 704 q 405 758 326 758 q 489 744 445 758 q 570 697 533 730 q 631 609 607 663 q 655 473 655 554 l 655 0 l 613 0 l 613 72 q 500 6 563 26 q 370 -13 437 -13 q 259 5 312 -13 q 165 60 205 25 q 100 146 125 95 q 76 259 76 197 q 100 372 76 322 q 164 457 123 422 q 259 511 205 493 q 370 530 312 530 q 509 503 448 530 q 613 434 569 476 l 613 473 q 593 589 613 543 q 543 664 573 636 q 475 704 512 693 q 405 716 438 716 q 279 693 334 716 q 180 627 223 669 l 150 655 m 370 27 q 503 52 438 27 q 613 133 568 76 l 613 375 q 506 460 568 431 q 370 488 444 488 q 275 472 320 488 q 194 427 229 456 q 138 354 159 397 q 118 259 118 312 q 138 163 118 206 q 194 90 159 120 q 275 43 229 59 q 370 27 320 27 "},"Ę":{"x_min":97.234375,"x_max":647.28125,"ha":724,"o":"m 559 -126 q 495 -147 526 -147 q 444 -129 463 -147 q 425 -81 425 -111 q 437 -39 425 -59 q 477 0 450 -19 l 97 0 l 97 972 l 647 972 l 647 930 l 138 930 l 138 563 l 555 563 l 555 522 l 138 522 l 138 41 l 647 41 l 647 0 l 520 0 l 530 -16 q 481 -50 495 -34 q 466 -81 466 -66 q 475 -99 466 -93 q 495 -105 483 -105 q 537 -90 513 -105 l 559 -126 "},"=":{"x_min":69.453125,"x_max":569.484375,"ha":639,"o":"m 69 473 l 569 473 l 569 515 l 69 515 l 69 473 m 69 343 l 569 343 l 569 385 l 69 385 l 69 343 "},"˚":{"x_min":118,"x_max":304,"ha":422,"o":"m 118 938 q 145 1003 118 976 q 211 1031 172 1031 q 276 1003 249 1031 q 304 938 304 976 q 276 872 304 899 q 211 845 249 845 q 145 872 172 845 q 118 938 118 899 m 159 937 q 175 901 159 916 q 211 886 190 886 q 247 901 231 886 q 262 937 262 916 q 247 973 262 958 q 211 989 231 989 q 175 973 190 989 q 159 937 159 958 "},"ú":{"x_min":83.34375,"x_max":663.9375,"ha":747,"o":"m 125 744 l 125 268 q 144 170 125 213 q 197 94 163 126 q 277 45 231 62 q 373 27 322 27 q 470 45 425 27 q 549 94 515 62 q 602 170 583 126 q 622 268 622 213 l 622 744 l 663 744 l 663 268 q 641 153 663 205 q 578 63 618 101 q 486 6 538 26 q 373 -13 433 -13 q 261 6 313 -13 q 168 63 208 26 q 106 153 129 101 q 83 268 83 205 l 83 744 l 125 744 m 265 878 l 474 1029 l 499 995 l 290 845 l 265 878 "},"¯":{"x_min":97.234375,"x_max":458.375,"ha":556,"o":"m 97 959 l 458 959 l 458 917 l 97 917 l 97 959 "},"Z":{"x_min":76.390625,"x_max":687.5625,"ha":764,"o":"m 80 930 l 615 930 l 76 0 l 683 0 l 683 42 l 148 42 l 687 972 l 80 972 l 80 930 "},"u":{"x_min":83.34375,"x_max":663.9375,"ha":747,"o":"m 125 744 l 125 268 q 144 170 125 213 q 197 94 163 126 q 277 45 231 62 q 373 27 322 27 q 470 45 425 27 q 549 94 515 62 q 602 170 583 126 q 622 268 622 213 l 622 744 l 663 744 l 663 268 q 641 153 663 205 q 578 63 618 101 q 486 6 538 26 q 373 -13 433 -13 q 261 6 313 -13 q 168 63 208 26 q 106 153 129 101 q 83 268 83 205 l 83 744 l 125 744 "},"k":{"x_min":92,"x_max":722.9375,"ha":792,"o":"m 722 18 l 259 383 l 722 726 l 697 759 l 134 344 l 134 1240 l 92 1240 l 92 0 l 134 0 l 134 291 l 224 358 l 697 -15 l 722 18 "},"Ù":{"x_min":91.671875,"x_max":683.390625,"ha":775,"o":"m 133 972 l 133 268 q 154 170 133 213 q 209 94 175 126 q 290 45 244 62 q 387 27 336 27 q 484 45 438 27 q 565 94 530 62 q 620 170 600 126 q 641 268 641 213 l 641 972 l 683 972 l 683 268 q 659 153 683 205 q 594 63 634 101 q 500 6 554 26 q 387 -13 447 -13 q 274 6 327 -13 q 179 63 220 26 q 115 153 138 101 q 91 268 91 205 l 91 972 l 133 972 m 481 1055 l 271 1205 l 296 1239 l 506 1088 l 481 1055 "},"Ů":{"x_min":91.671875,"x_max":683.390625,"ha":775,"o":"m 133 972 l 133 268 q 154 170 133 213 q 209 94 175 126 q 290 45 244 62 q 387 27 336 27 q 484 45 438 27 q 565 94 530 62 q 620 170 600 126 q 641 268 641 213 l 641 972 l 683 972 l 683 268 q 659 153 683 205 q 594 63 634 101 q 500 6 554 26 q 387 -13 447 -13 q 274 6 327 -13 q 179 63 220 26 q 115 153 138 101 q 91 268 91 205 l 91 972 l 133 972 m 294 1148 q 321 1213 294 1186 q 387 1241 348 1241 q 452 1213 425 1241 q 480 1148 480 1186 q 452 1082 480 1109 q 387 1055 425 1055 q 321 1082 348 1055 q 294 1148 294 1109 m 335 1147 q 351 1111 335 1126 q 387 1096 366 1096 q 423 1111 407 1096 q 438 1147 438 1126 q 423 1183 438 1168 q 387 1199 407 1199 q 351 1183 366 1199 q 335 1147 335 1168 "},"¢":{"x_min":69.453125,"x_max":629.21875,"ha":711,"o":"m 629 -5 q 540 -9 583 -9 q 489 -7 513 -9 q 441 -2 465 -5 l 441 -127 l 400 -127 l 400 4 q 254 59 316 22 q 152 145 193 95 q 90 252 111 194 q 69 372 69 311 q 90 490 69 431 q 152 598 111 548 q 254 686 193 648 q 400 741 316 723 l 400 869 l 441 869 l 441 748 q 489 753 465 751 q 540 755 513 755 q 629 751 583 755 l 626 709 q 540 713 580 713 q 352 684 433 713 q 218 606 272 654 q 138 497 165 558 q 111 372 111 436 q 138 247 111 308 q 218 138 165 186 q 352 61 272 90 q 540 31 433 31 q 626 36 580 31 l 629 -5 "},"Ş":{"x_min":76.390625,"x_max":640.328125,"ha":717,"o":"m 311 -108 q 343 -113 323 -113 q 372 -107 359 -113 q 384 -86 384 -101 q 371 -75 384 -79 q 340 -72 358 -72 l 322 -72 l 336 -16 q 184 26 252 -13 q 81 147 115 66 l 120 163 q 214 59 152 93 q 351 25 276 25 q 449 41 404 25 q 527 88 494 58 q 579 159 561 118 q 598 250 598 200 q 575 327 598 293 q 516 387 552 361 q 436 432 480 413 q 351 466 393 451 q 255 504 304 483 q 167 556 206 526 q 102 627 127 587 q 76 722 76 668 q 98 829 76 780 q 159 914 120 879 q 251 969 198 950 q 365 988 304 988 q 525 948 452 988 q 634 825 598 908 l 595 808 q 502 913 563 879 q 365 947 440 947 q 267 930 312 947 q 188 884 222 913 q 136 813 155 854 q 118 722 118 772 q 140 644 118 677 q 200 584 163 611 q 279 538 236 558 q 365 505 323 519 q 461 467 412 488 q 549 415 509 445 q 614 344 588 384 q 640 250 640 304 q 620 147 640 194 q 566 66 601 101 q 484 10 531 31 q 380 -15 436 -11 l 376 -29 q 412 -47 398 -33 q 426 -86 426 -62 q 400 -138 426 -122 q 341 -155 373 -155 q 297 -147 318 -155 l 311 -108 "},"é":{"x_min":69.453125,"x_max":711.171875,"ha":781,"o":"m 627 0 q 581 -4 604 -2 q 538 -5 559 -5 q 335 27 423 -5 q 188 112 247 59 q 99 234 129 165 q 69 375 69 302 q 103 556 69 483 q 187 675 137 630 q 295 738 237 719 q 400 758 352 758 q 531 731 473 758 q 629 656 590 704 q 690 545 669 609 q 711 408 711 481 l 112 408 q 111 391 111 400 q 111 375 111 383 q 137 252 111 312 q 217 143 163 191 q 352 66 270 95 q 543 37 433 37 q 627 41 583 37 l 627 0 m 400 716 q 309 700 355 716 q 224 651 263 684 q 156 568 184 618 q 116 450 127 518 l 666 450 q 649 540 666 493 q 598 627 632 587 q 515 691 565 666 q 400 716 465 716 m 291 878 l 500 1029 l 525 995 l 316 845 l 291 878 "},"B":{"x_min":97.234375,"x_max":661.15625,"ha":731,"o":"m 97 972 q 152 975 125 975 q 204 976 180 976 q 371 957 301 976 q 487 907 441 938 q 555 831 533 875 q 577 736 577 787 q 531 604 577 662 q 390 518 486 547 q 591 425 520 490 q 661 266 661 359 q 629 155 661 205 q 539 70 598 105 q 395 17 480 36 q 204 -1 311 -1 q 152 0 180 -1 q 97 2 125 0 l 97 972 l 97 972 m 204 40 q 509 100 398 40 q 619 266 619 159 q 591 361 619 319 q 508 433 562 404 q 377 478 454 462 q 202 494 300 494 l 138 494 l 138 41 q 172 40 156 40 q 204 40 188 40 m 204 934 q 172 934 188 934 q 138 933 156 934 l 138 536 l 218 536 q 361 551 301 536 q 459 593 420 566 q 517 657 498 620 q 536 736 536 694 q 516 815 536 779 q 456 877 497 851 q 352 919 415 904 q 204 934 290 934 "},"…":{"x_min":100.015625,"x_max":750.0625,"ha":850,"o":"m 666 0 l 750 0 l 750 83 l 666 83 l 666 0 m 383 0 l 466 0 l 466 83 l 383 83 l 383 0 m 100 0 l 183 0 l 183 83 l 100 83 l 100 0 "},"ē":{"x_min":69.453125,"x_max":711.171875,"ha":781,"o":"m 627 0 q 581 -4 604 -2 q 538 -5 559 -5 q 335 27 423 -5 q 188 112 247 59 q 99 234 129 165 q 69 375 69 302 q 103 556 69 483 q 187 675 137 630 q 295 738 237 719 q 400 758 352 758 q 531 731 473 758 q 629 656 590 704 q 690 545 669 609 q 711 408 711 481 l 112 408 q 111 391 111 400 q 111 375 111 383 q 137 252 111 312 q 217 143 163 191 q 352 66 270 95 q 543 37 433 37 q 627 41 583 37 l 627 0 m 400 716 q 309 700 355 716 q 224 651 263 684 q 156 568 184 618 q 116 450 127 518 l 666 450 q 649 540 666 493 q 598 627 632 587 q 515 691 565 666 q 400 716 465 716 m 210 959 l 571 959 l 571 917 l 210 917 l 210 959 "},"H":{"x_min":97,"x_max":661,"ha":758,"o":"m 661 0 l 661 972 l 619 972 l 619 564 l 139 564 l 139 972 l 97 972 l 97 0 l 139 0 l 139 522 l 619 522 l 619 0 l 661 0 "},"î":{"x_min":-3.765625,"x_max":244.859375,"ha":236,"o":"m 97 745 l 97 0 l 139 0 l 139 745 l 97 745 m 211 845 l 119 960 l 29 845 l -3 869 l 119 1029 l 244 869 l 211 845 "},"−":{"x_min":69.453125,"x_max":569.484375,"ha":639,"o":"m 69 450 l 569 450 l 569 408 l 69 408 l 69 450 "},"¥":{"x_min":69.75,"x_max":706.25,"ha":775,"o":"m 165 361 l 367 361 l 367 281 l 165 281 l 165 239 l 367 239 l 367 0 l 409 0 l 409 239 l 610 239 l 610 281 l 409 281 l 409 361 l 610 361 l 610 403 l 409 403 l 409 479 l 706 960 l 670 983 l 388 526 l 105 983 l 69 960 l 367 479 l 367 403 l 165 403 l 165 361 "},"Ĥ":{"x_min":97,"x_max":661,"ha":758,"o":"m 661 0 l 661 972 l 619 972 l 619 564 l 139 564 l 139 972 l 97 972 l 97 0 l 139 0 l 139 522 l 619 522 l 619 0 l 661 0 m 470 1055 l 378 1170 l 288 1055 l 255 1079 l 378 1239 l 503 1079 l 470 1055 "},"U":{"x_min":91.671875,"x_max":683.390625,"ha":775,"o":"m 133 972 l 133 268 q 154 170 133 213 q 209 94 175 126 q 290 45 244 62 q 387 27 336 27 q 484 45 438 27 q 565 94 530 62 q 620 170 600 126 q 641 268 641 213 l 641 972 l 683 972 l 683 268 q 659 153 683 205 q 594 63 634 101 q 500 6 554 26 q 387 -13 447 -13 q 274 6 327 -13 q 179 63 220 26 q 115 153 138 101 q 91 268 91 205 l 91 972 l 133 972 "},"Ñ":{"x_min":97,"x_max":677,"ha":774,"o":"m 139 0 l 139 859 l 677 -40 l 677 972 l 635 972 l 635 112 l 97 1012 l 97 0 l 139 0 m 550 1165 q 504 1115 531 1130 q 451 1100 476 1100 q 374 1129 413 1100 q 319 1151 344 1151 q 285 1139 304 1151 q 256 1103 267 1128 l 222 1127 q 267 1177 240 1161 q 319 1193 293 1193 q 399 1163 360 1193 q 451 1142 425 1142 q 485 1153 467 1142 q 517 1191 504 1164 l 550 1165 "},"F":{"x_min":97,"x_max":647.375,"ha":724,"o":"m 139 0 l 139 522 l 555 522 l 555 564 l 139 564 l 139 930 l 647 930 l 647 972 l 97 972 l 97 0 l 139 0 "},"ĵ":{"x_min":-169.453125,"x_max":244.859375,"ha":236,"o":"m -133 -302 q -90 -348 -116 -331 q -33 -365 -65 -365 q 59 -318 20 -365 q 97 -186 97 -272 l 97 744 l 138 744 l 138 -186 q 125 -279 138 -238 q 88 -348 111 -320 q 33 -391 65 -376 q -33 -406 1 -406 q -112 -384 -77 -406 q -169 -322 -147 -362 l -133 -302 m 211 845 l 119 960 l 29 845 l -3 869 l 119 1029 l 244 869 l 211 845 "},"ā":{"x_min":76.390625,"x_max":655.609375,"ha":739,"o":"m 150 655 q 263 731 201 704 q 405 758 326 758 q 489 744 445 758 q 570 697 533 730 q 631 609 607 663 q 655 473 655 554 l 655 0 l 613 0 l 613 72 q 500 6 563 26 q 370 -13 437 -13 q 259 5 312 -13 q 165 60 205 25 q 100 146 125 95 q 76 259 76 197 q 100 372 76 322 q 164 457 123 422 q 259 511 205 493 q 370 530 312 530 q 509 503 448 530 q 613 434 569 476 l 613 473 q 593 589 613 543 q 543 664 573 636 q 475 704 512 693 q 405 716 438 716 q 279 693 334 716 q 180 627 223 669 l 150 655 m 370 27 q 503 52 438 27 q 613 133 568 76 l 613 375 q 506 460 568 431 q 370 488 444 488 q 275 472 320 488 q 194 427 229 456 q 138 354 159 397 q 118 259 118 312 q 138 163 118 206 q 194 90 159 120 q 275 43 229 59 q 370 27 320 27 m 205 959 l 566 959 l 566 917 l 205 917 l 205 959 "},"Ĩ":{"x_min":-44.265625,"x_max":283.53125,"ha":236,"o":"m 97 972 l 97 0 l 139 0 l 139 972 l 97 972 m 283 1165 q 237 1115 264 1130 q 184 1100 209 1100 q 107 1129 146 1100 q 52 1151 77 1151 q 18 1139 37 1151 q -10 1103 0 1128 l -44 1127 q 0 1177 -26 1161 q 52 1193 26 1193 q 132 1163 93 1193 q 184 1142 158 1142 q 218 1153 200 1142 q 250 1191 237 1164 l 283 1165 "},"ă":{"x_min":76.390625,"x_max":655.609375,"ha":739,"o":"m 150 655 q 263 731 201 704 q 405 758 326 758 q 489 744 445 758 q 570 697 533 730 q 631 609 607 663 q 655 473 655 554 l 655 0 l 613 0 l 613 72 q 500 6 563 26 q 370 -13 437 -13 q 259 5 312 -13 q 165 60 205 25 q 100 146 125 95 q 76 259 76 197 q 100 372 76 322 q 164 457 123 422 q 259 511 205 493 q 370 530 312 530 q 509 503 448 530 q 613 434 569 476 l 613 473 q 593 589 613 543 q 543 664 573 636 q 475 704 512 693 q 405 716 438 716 q 279 693 334 716 q 180 627 223 669 l 150 655 m 370 27 q 503 52 438 27 q 613 133 568 76 l 613 375 q 506 460 568 431 q 370 488 444 488 q 275 472 320 488 q 194 427 229 456 q 138 354 159 397 q 118 259 118 312 q 138 163 118 206 q 194 90 159 120 q 275 43 229 59 q 370 27 320 27 m 524 1000 q 485 911 524 947 q 385 875 447 875 q 284 911 322 875 q 246 1000 246 947 l 287 1000 q 314 940 287 964 q 385 917 340 917 q 455 940 429 917 q 482 1000 482 964 l 524 1000 "},"*":{"x_min":69.65625,"x_max":478.34375,"ha":547,"o":"m 295 936 l 253 936 l 253 755 l 83 810 l 69 772 l 239 716 l 134 573 l 168 549 l 272 691 l 379 547 l 413 572 l 306 716 l 478 772 l 467 810 l 295 755 l 295 936 "},"†":{"x_min":76.25,"x_max":691.90625,"ha":768,"o":"m 76 951 l 361 951 l 361 -167 l 403 -167 l 403 951 l 691 951 l 691 993 l 403 993 l 403 1240 l 361 1240 l 361 993 l 76 993 l 76 951 "},"°":{"x_min":76.390625,"x_max":304.1875,"ha":381,"o":"m 76 744 q 109 825 76 791 q 190 858 143 858 q 270 825 237 858 q 304 744 304 791 q 270 663 304 697 q 190 630 237 630 q 109 663 143 630 q 76 744 76 697 m 118 744 q 138 693 118 713 q 190 672 159 672 q 241 693 220 672 q 262 744 262 713 q 241 795 262 775 q 190 816 220 816 q 138 795 159 816 q 118 744 118 775 "},"å":{"x_min":76.390625,"x_max":655.609375,"ha":739,"o":"m 150 655 q 263 731 201 704 q 405 758 326 758 q 489 744 445 758 q 570 697 533 730 q 631 609 607 663 q 655 473 655 554 l 655 0 l 613 0 l 613 72 q 500 6 563 26 q 370 -13 437 -13 q 259 5 312 -13 q 165 60 205 25 q 100 146 125 95 q 76 259 76 197 q 100 372 76 322 q 164 457 123 422 q 259 511 205 493 q 370 530 312 530 q 509 503 448 530 q 613 434 569 476 l 613 473 q 593 589 613 543 q 543 664 573 636 q 475 704 512 693 q 405 716 438 716 q 279 693 334 716 q 180 627 223 669 l 150 655 m 370 27 q 503 52 438 27 q 613 133 568 76 l 613 375 q 506 460 568 431 q 370 488 444 488 q 275 472 320 488 q 194 427 229 456 q 138 354 159 397 q 118 259 118 312 q 138 163 118 206 q 194 90 159 120 q 275 43 229 59 q 370 27 320 27 m 290 938 q 317 1003 290 976 q 383 1031 344 1031 q 448 1003 421 1031 q 476 938 476 976 q 448 872 476 899 q 383 845 421 845 q 317 872 344 845 q 290 938 290 899 m 331 937 q 347 901 331 916 q 383 886 362 886 q 419 901 403 886 q 434 937 434 916 q 419 973 434 958 q 383 989 403 989 q 347 973 362 989 q 331 937 331 958 "},"0":{"x_min":83.34375,"x_max":661.15625,"ha":745,"o":"m 372 993 q 498 949 444 993 q 588 834 552 905 q 643 671 625 762 q 661 486 661 580 q 643 299 661 390 q 588 137 625 208 q 498 22 552 66 q 372 -20 444 -20 q 245 22 300 -20 q 155 137 191 66 q 101 299 119 208 q 83 486 83 390 q 101 671 83 580 q 155 834 119 762 q 245 949 191 905 q 372 993 300 993 m 372 951 q 263 911 309 951 q 186 805 218 870 q 140 657 155 740 q 125 486 125 573 q 140 315 125 398 q 186 165 155 231 q 263 60 218 100 q 372 20 309 20 q 479 60 433 20 q 557 165 526 100 q 604 315 588 231 q 619 486 619 398 q 604 657 619 573 q 557 805 588 740 q 479 911 526 870 q 372 951 433 951 "},"ō":{"x_min":69.453125,"x_max":841.734375,"ha":911,"o":"m 69 372 q 100 522 69 451 q 182 645 130 593 q 305 727 234 697 q 455 758 376 758 q 605 727 534 758 q 728 645 676 697 q 811 522 780 593 q 841 372 841 451 q 811 222 841 293 q 728 99 780 151 q 605 16 676 47 q 455 -13 534 -13 q 305 16 376 -13 q 182 99 234 47 q 100 222 130 151 q 69 372 69 293 m 111 372 q 138 238 111 301 q 211 128 165 175 q 321 54 258 81 q 455 27 384 27 q 589 54 526 27 q 699 128 652 81 q 772 238 745 175 q 800 372 800 301 q 772 506 800 443 q 699 616 745 569 q 589 689 652 662 q 455 716 526 716 q 321 689 384 716 q 211 616 258 662 q 138 506 165 569 q 111 372 111 443 m 275 959 l 636 959 l 636 917 l 275 917 l 275 959 "},"”":{"x_min":86.125,"x_max":336.140625,"ha":422,"o":"m 336 972 l 336 854 q 335 828 336 845 q 328 793 334 811 q 309 757 322 775 q 270 732 295 740 l 256 770 q 278 786 270 775 q 289 810 286 797 q 293 835 293 823 q 294 854 294 847 l 294 888 l 252 888 l 252 972 l 336 972 m 169 972 l 169 854 q 168 828 169 845 q 161 793 168 811 q 142 757 155 775 q 104 732 129 740 l 90 770 q 111 786 104 775 q 122 810 119 797 q 127 835 126 823 q 127 854 127 847 l 127 888 l 86 888 l 86 972 l 169 972 "},"ŵ":{"x_min":69.453125,"x_max":1011.1875,"ha":1081,"o":"m 419 737 l 518 481 l 365 85 l 108 751 l 69 737 l 365 -28 l 540 424 l 715 -28 l 1011 737 l 972 751 l 715 85 l 562 481 l 661 737 l 622 751 l 540 538 l 458 751 l 419 737 m 633 845 l 541 960 l 451 845 l 418 869 l 541 1029 l 666 869 l 633 845 "},"Ķ":{"x_min":97,"x_max":730.703125,"ha":800,"o":"m 730 13 l 247 509 l 729 956 l 701 987 l 139 463 l 139 972 l 97 972 l 97 0 l 139 0 l 139 406 l 218 480 l 700 -13 l 730 13 m 455 -69 l 455 -166 q 454 -189 455 -174 q 448 -218 454 -204 q 428 -248 441 -233 q 390 -271 415 -262 l 376 -232 q 409 -201 404 -222 q 414 -166 414 -180 l 414 -145 l 372 -145 l 372 -69 l 455 -69 "},"ö":{"x_min":69.453125,"x_max":841.734375,"ha":911,"o":"m 69 372 q 100 522 69 451 q 182 645 130 593 q 305 727 234 697 q 455 758 376 758 q 605 727 534 758 q 728 645 676 697 q 811 522 780 593 q 841 372 841 451 q 811 222 841 293 q 728 99 780 151 q 605 16 676 47 q 455 -13 534 -13 q 305 16 376 -13 q 182 99 234 47 q 100 222 130 151 q 69 372 69 293 m 111 372 q 138 238 111 301 q 211 128 165 175 q 321 54 258 81 q 455 27 384 27 q 589 54 526 27 q 699 128 652 81 q 772 238 745 175 q 800 372 800 301 q 772 506 800 443 q 699 616 745 569 q 589 689 652 662 q 455 716 526 716 q 321 689 384 716 q 211 616 258 662 q 138 506 165 569 q 111 372 111 443 m 328 972 l 397 972 l 397 903 l 328 903 l 328 972 m 515 972 l 585 972 l 585 903 l 515 903 l 515 972 "},"Ļ":{"x_min":97,"x_max":608.46875,"ha":685,"o":"m 97 972 l 97 0 l 608 0 l 608 42 l 139 42 l 139 972 l 97 972 m 394 -69 l 394 -166 q 393 -189 394 -174 q 387 -218 393 -204 q 367 -248 380 -233 q 329 -271 354 -262 l 315 -232 q 348 -201 343 -222 q 353 -166 353 -180 l 353 -145 l 311 -145 l 311 -69 l 394 -69 "},"Õ":{"x_min":69.453125,"x_max":1066.75,"ha":1136,"o":"m 69 486 q 108 679 69 588 q 215 838 147 770 q 374 945 283 905 q 568 984 465 984 q 761 945 670 984 q 920 838 852 905 q 1027 679 987 770 q 1066 486 1066 588 q 1027 292 1066 383 q 920 133 987 201 q 761 26 852 65 q 568 -12 670 -12 q 374 26 465 -12 q 215 133 283 65 q 108 292 147 201 q 69 486 69 383 m 111 486 q 147 308 111 391 q 245 163 183 225 q 390 65 306 101 q 568 29 473 29 q 745 65 662 29 q 891 163 829 101 q 988 308 952 225 q 1025 486 1025 391 q 988 663 1025 580 q 891 809 952 747 q 745 907 829 870 q 568 943 662 943 q 390 907 473 943 q 245 809 306 870 q 147 663 183 747 q 111 486 111 580 m 731 1165 q 685 1115 712 1130 q 632 1100 657 1100 q 555 1129 594 1100 q 500 1151 525 1151 q 466 1139 485 1151 q 437 1103 448 1128 l 403 1127 q 448 1177 421 1161 q 500 1193 474 1193 q 580 1163 541 1193 q 632 1142 606 1142 q 666 1153 648 1142 q 698 1191 685 1164 l 731 1165 "},"ć":{"x_min":69.453125,"x_max":629.21875,"ha":699,"o":"m 629 -5 q 540 -9 583 -9 q 334 22 422 -9 q 186 109 245 55 q 98 231 127 162 q 69 372 69 300 q 98 513 69 444 q 186 636 127 581 q 334 722 245 690 q 540 755 422 755 q 629 751 583 755 l 626 709 q 540 713 580 713 q 352 684 433 713 q 218 606 272 654 q 138 497 165 558 q 111 372 111 436 q 138 247 111 308 q 218 138 165 186 q 352 61 272 90 q 540 31 433 31 q 626 36 580 31 l 629 -5 m 307 878 l 516 1029 l 541 995 l 332 845 l 307 878 "},"þ":{"x_min":83,"x_max":645,"ha":714,"o":"m 125 1081 l 125 754 q 149 756 137 756 q 173 756 161 756 q 380 723 291 756 q 527 637 468 690 q 615 516 586 585 q 645 376 645 447 q 615 236 645 304 q 527 114 586 167 q 379 28 468 60 q 172 -3 290 -3 l 125 -3 l 125 -326 l 83 -326 l 83 1081 l 125 1081 m 173 714 q 150 714 162 714 q 125 713 137 714 l 125 40 q 149 39 137 39 q 172 39 161 39 q 361 68 280 39 q 495 144 441 97 q 575 252 548 191 q 603 376 603 312 q 575 500 603 440 q 495 608 548 561 q 361 684 441 655 q 173 714 280 714 "},"]":{"x_min":-0.453125,"x_max":236,"ha":333,"o":"m 0 1125 l 0 1083 l 194 1083 l 194 -111 l 0 -111 l 0 -153 l 236 -153 l 236 1125 l 0 1125 "},"ĭ":{"x_min":-19.765625,"x_max":258.03125,"ha":236,"o":"m 97 745 l 97 0 l 139 0 l 139 745 l 97 745 m 258 1000 q 219 911 258 947 q 119 875 181 875 q 18 911 56 875 q -19 1000 -19 947 l 21 1000 q 48 940 21 964 q 119 917 74 917 q 189 940 163 917 q 216 1000 216 964 l 258 1000 "},"8":{"x_min":76.390625,"x_max":654.21875,"ha":731,"o":"m 126 752 q 145 845 126 802 q 196 921 163 888 q 272 973 229 954 q 365 991 315 991 q 458 973 415 991 q 534 921 501 954 q 585 845 566 888 q 604 752 604 802 q 566 624 604 682 q 469 537 529 566 q 543 495 509 522 q 602 432 577 468 q 640 355 626 397 q 654 268 654 313 q 631 155 654 208 q 569 63 608 102 q 477 2 530 25 q 365 -20 425 -20 q 252 2 305 -20 q 161 63 200 25 q 99 155 122 102 q 76 268 76 208 q 90 355 76 313 q 128 432 104 397 q 186 495 152 468 q 261 537 220 522 q 163 624 200 566 q 126 752 126 682 m 168 752 q 183 676 168 712 q 225 613 198 640 q 288 570 252 586 q 365 555 325 555 q 441 570 405 555 q 504 613 477 586 q 547 676 531 640 q 562 752 562 712 q 547 829 562 793 q 504 892 531 865 q 441 934 477 919 q 365 950 405 950 q 288 934 325 950 q 225 892 252 919 q 183 829 198 865 q 168 752 168 793 m 118 268 q 137 171 118 216 q 190 93 156 126 q 268 40 223 59 q 365 20 313 20 q 461 40 416 20 q 540 93 506 59 q 593 171 573 126 q 612 268 612 216 q 593 364 612 319 q 540 443 573 409 q 461 495 506 476 q 365 515 416 515 q 268 495 313 515 q 190 443 223 476 q 137 364 156 409 q 118 268 118 319 "},"R":{"x_min":97.234375,"x_max":695.890625,"ha":758,"o":"m 97 0 l 97 972 q 152 975 125 975 q 204 976 180 976 q 410 947 322 976 q 557 873 498 919 q 645 769 616 827 q 675 651 675 711 q 659 563 675 607 q 613 482 644 520 q 537 413 583 444 q 430 361 491 381 l 695 12 l 662 -12 l 387 348 q 204 327 308 327 q 172 328 188 327 q 138 330 156 329 l 138 0 l 97 0 m 204 934 q 172 934 188 934 q 138 933 156 934 l 138 372 q 172 370 155 370 q 204 369 188 369 q 391 393 311 369 q 525 457 472 418 q 606 547 579 497 q 633 651 633 598 q 606 755 633 704 q 525 846 579 807 q 391 910 472 886 q 204 934 311 934 "},"ť":{"x_min":29.171875,"x_max":383.359375,"ha":411,"o":"m 352 702 l 133 702 l 133 261 q 150 162 133 204 q 195 93 166 120 q 262 53 223 66 q 345 40 301 40 q 360 40 352 40 q 377 41 368 40 l 383 0 q 363 -1 373 -1 q 345 -1 354 -1 q 246 14 293 -1 q 165 62 200 30 q 111 144 130 94 q 91 261 91 194 l 91 702 l 29 702 l 29 744 l 91 744 l 91 986 l 133 986 l 133 744 l 352 744 l 352 702 m 313 1042 l 313 944 q 312 921 313 936 q 306 892 312 906 q 286 862 299 877 q 248 840 273 848 l 234 879 q 267 909 262 888 q 272 944 272 930 l 272 965 l 230 965 l 230 1042 l 313 1042 "},"Ľ":{"x_min":97,"x_max":608.46875,"ha":685,"o":"m 97 972 l 97 0 l 608 0 l 608 42 l 139 42 l 139 972 l 97 972 m 319 973 l 319 875 q 318 852 319 867 q 312 823 318 837 q 292 793 305 808 q 254 771 279 779 l 240 810 q 273 840 268 819 q 278 875 278 861 l 278 896 l 236 896 l 236 973 l 319 973 "},"Ż":{"x_min":73.390625,"x_max":684.5625,"ha":764,"o":"m 77 930 l 612 930 l 73 0 l 680 0 l 680 42 l 145 42 l 684 972 l 77 972 l 77 930 m 343 1182 l 412 1182 l 412 1113 l 343 1113 l 343 1182 "},"o":{"x_min":69.453125,"x_max":841.734375,"ha":911,"o":"m 69 372 q 100 522 69 451 q 182 645 130 593 q 305 727 234 697 q 455 758 376 758 q 605 727 534 758 q 728 645 676 697 q 811 522 780 593 q 841 372 841 451 q 811 222 841 293 q 728 99 780 151 q 605 16 676 47 q 455 -13 534 -13 q 305 16 376 -13 q 182 99 234 47 q 100 222 130 151 q 69 372 69 293 m 111 372 q 138 238 111 301 q 211 128 165 175 q 321 54 258 81 q 455 27 384 27 q 589 54 526 27 q 699 128 652 81 q 772 238 745 175 q 800 372 800 301 q 772 506 800 443 q 699 616 745 569 q 589 689 652 662 q 455 716 526 716 q 321 689 384 716 q 211 616 258 662 q 138 506 165 569 q 111 372 111 443 "},"5":{"x_min":76.390625,"x_max":634.765625,"ha":731,"o":"m 83 40 q 129 34 108 36 q 177 33 151 33 q 338 52 262 33 q 470 104 413 70 q 560 186 527 138 q 593 293 593 234 q 578 361 593 327 q 538 425 563 395 q 475 477 512 454 q 394 516 438 501 q 305 538 354 530 q 209 547 256 547 q 190 547 198 547 q 175 547 183 547 q 155 546 166 547 q 125 544 144 545 l 125 972 l 504 972 l 504 930 l 166 930 l 166 587 q 194 588 186 588 q 209 588 202 588 q 318 579 268 588 q 408 556 369 569 q 493 515 452 541 q 566 454 534 488 q 616 379 597 420 q 634 293 634 338 q 591 156 634 213 q 481 62 548 98 q 334 9 415 26 q 177 -8 254 -8 q 127 -6 152 -8 q 76 -1 101 -5 l 83 40 "},"ħ":{"x_min":-46.734375,"x_max":692,"ha":775,"o":"m -46 1013 l 113 1013 l 113 1240 l 155 1240 l 155 1013 l 314 1013 l 314 972 l 155 972 l 154 684 q 263 739 203 720 q 386 758 324 758 q 476 746 432 758 q 558 712 519 735 q 626 654 596 689 q 673 571 655 619 q 692 474 692 526 l 692 0 l 650 0 l 650 471 q 634 556 650 516 q 534 677 604 638 q 385 716 465 716 q 261 693 321 716 q 155 631 200 671 l 155 0 l 113 0 l 113 972 l -46 972 l -46 1013 "},"õ":{"x_min":69.453125,"x_max":841.734375,"ha":911,"o":"m 69 372 q 100 522 69 451 q 182 645 130 593 q 305 727 234 697 q 455 758 376 758 q 605 727 534 758 q 728 645 676 697 q 811 522 780 593 q 841 372 841 451 q 811 222 841 293 q 728 99 780 151 q 605 16 676 47 q 455 -13 534 -13 q 305 16 376 -13 q 182 99 234 47 q 100 222 130 151 q 69 372 69 293 m 111 372 q 138 238 111 301 q 211 128 165 175 q 321 54 258 81 q 455 27 384 27 q 589 54 526 27 q 699 128 652 81 q 772 238 745 175 q 800 372 800 301 q 772 506 800 443 q 699 616 745 569 q 589 689 652 662 q 455 716 526 716 q 321 689 384 716 q 211 616 258 662 q 138 506 165 569 q 111 372 111 443 m 619 955 q 573 905 600 920 q 520 890 545 890 q 443 919 482 890 q 388 941 413 941 q 354 929 373 941 q 325 893 336 918 l 291 917 q 336 967 309 951 q 388 983 362 983 q 468 953 429 983 q 520 932 494 932 q 554 943 536 932 q 586 981 573 954 l 619 955 "},",":{"x_min":86.125,"x_max":169.453125,"ha":256,"o":"m 169 83 l 169 -34 q 168 -60 169 -43 q 161 -95 168 -77 q 142 -131 155 -113 q 104 -156 129 -148 l 90 -118 q 111 -102 104 -113 q 122 -78 119 -91 q 127 -53 126 -65 q 127 -34 127 -41 l 127 0 l 86 0 l 86 83 l 169 83 "},"d":{"x_min":69.453125,"x_max":647.28125,"ha":739,"o":"m 647 1240 l 647 0 q 591 -3 619 -2 q 540 -4 563 -4 q 334 28 422 -4 q 186 113 245 61 q 98 235 127 166 q 69 375 69 304 q 98 515 69 447 q 186 636 127 583 q 334 722 245 690 q 541 755 423 755 q 572 754 556 755 q 605 752 587 754 l 605 1240 l 647 1240 m 540 37 q 571 37 555 37 q 605 38 587 37 l 605 711 q 572 713 588 712 q 541 713 556 713 q 352 684 433 713 q 218 607 272 655 q 138 499 165 559 q 111 375 111 438 q 138 250 111 311 q 218 143 165 190 q 352 66 272 95 q 540 37 433 37 "},"\"":{"x_min":86,"x_max":253,"ha":339,"o":"m 211 778 l 253 778 l 253 972 l 211 972 l 211 778 m 86 778 l 128 778 l 128 972 l 86 972 l 86 778 "},"˙":{"x_min":97.234375,"x_max":166.6875,"ha":264,"o":"m 97 972 l 166 972 l 166 903 l 97 903 l 97 972 "},"ê":{"x_min":69.453125,"x_max":711.171875,"ha":781,"o":"m 627 0 q 581 -4 604 -2 q 538 -5 559 -5 q 335 27 423 -5 q 188 112 247 59 q 99 234 129 165 q 69 375 69 302 q 103 556 69 483 q 187 675 137 630 q 295 738 237 719 q 400 758 352 758 q 531 731 473 758 q 629 656 590 704 q 690 545 669 609 q 711 408 711 481 l 112 408 q 111 391 111 400 q 111 375 111 383 q 137 252 111 312 q 217 143 163 191 q 352 66 270 95 q 543 37 433 37 q 627 41 583 37 l 627 0 m 400 716 q 309 700 355 716 q 224 651 263 684 q 156 568 184 618 q 116 450 127 518 l 666 450 q 649 540 666 493 q 598 627 632 587 q 515 691 565 666 q 400 716 465 716 m 495 845 l 403 960 l 313 845 l 280 869 l 403 1029 l 528 869 l 495 845 "},"„":{"x_min":86.125,"x_max":336.140625,"ha":422,"o":"m 169 180 l 169 62 q 168 36 169 54 q 161 1 168 19 q 142 -34 155 -16 q 104 -59 129 -51 l 90 -20 q 111 -5 104 -16 q 122 18 119 5 q 127 43 126 31 q 127 62 127 55 l 127 97 l 86 97 l 86 180 l 169 180 m 336 180 l 336 62 q 335 36 336 54 q 328 1 334 19 q 309 -34 322 -16 q 270 -59 295 -51 l 256 -20 q 278 -5 270 -16 q 289 18 286 5 q 293 43 293 31 q 294 62 294 55 l 294 97 l 252 97 l 252 180 l 336 180 "},"ľ":{"x_min":-17.765625,"x_max":230.859375,"ha":208,"o":"m 85 1240 l 85 0 l 127 0 l 127 1240 l 85 1240 m 230 1500 l 105 1341 l -17 1500 l 15 1525 l 105 1409 l 197 1525 l 230 1500 "},"Â":{"x_min":68.0625,"x_max":812.5625,"ha":881,"o":"m 68 6 l 106 -7 l 208 262 l 672 262 l 773 -7 l 812 6 l 440 996 l 68 6 m 440 877 l 655 304 l 223 304 l 440 877 m 522 1055 l 430 1170 l 340 1055 l 307 1079 l 430 1239 l 555 1079 l 522 1055 "},"Į":{"x_min":30.5625,"x_max":165.296875,"ha":236,"o":"m 165 -126 q 101 -147 131 -147 q 50 -129 69 -147 q 30 -81 30 -111 q 45 -35 30 -58 q 97 8 61 -12 l 97 972 l 138 972 l 138 0 l 126 0 l 136 -16 q 86 -50 101 -34 q 72 -81 72 -66 q 80 -99 72 -93 q 101 -105 88 -105 q 143 -90 119 -105 l 165 -126 "},"ė":{"x_min":69.453125,"x_max":711.171875,"ha":781,"o":"m 627 0 q 581 -4 604 -2 q 538 -5 559 -5 q 335 27 423 -5 q 188 112 247 59 q 99 234 129 165 q 69 375 69 302 q 103 556 69 483 q 187 675 137 630 q 295 738 237 719 q 400 758 352 758 q 531 731 473 758 q 629 656 590 704 q 690 545 669 609 q 711 408 711 481 l 112 408 q 111 391 111 400 q 111 375 111 383 q 137 252 111 312 q 217 143 163 191 q 352 66 270 95 q 543 37 433 37 q 627 41 583 37 l 627 0 m 400 716 q 309 700 355 716 q 224 651 263 684 q 156 568 184 618 q 116 450 127 518 l 666 450 q 649 540 666 493 q 598 627 632 587 q 515 691 565 666 q 400 716 465 716 m 355 972 l 424 972 l 424 903 l 355 903 l 355 972 "},"Ţ":{"x_min":69.203125,"x_max":716.796875,"ha":786,"o":"m 414 0 l 414 930 l 716 930 l 716 972 l 69 972 l 69 930 l 372 930 l 372 0 l 414 0 m 434 -69 l 434 -166 q 433 -189 434 -174 q 427 -218 433 -204 q 407 -248 420 -233 q 369 -271 394 -262 l 355 -232 q 388 -201 383 -222 q 393 -166 393 -180 l 393 -145 l 351 -145 l 351 -69 l 434 -69 "},"Í":{"x_min":23.234375,"x_max":257.96875,"ha":236,"o":"m 97 972 l 97 0 l 139 0 l 139 972 l 97 972 m 23 1088 l 232 1239 l 257 1205 l 48 1055 l 23 1088 "},"´":{"x_min":97.234375,"x_max":331.96875,"ha":429,"o":"m 97 878 l 306 1029 l 331 995 l 122 845 l 97 878 "},"Ú":{"x_min":91.671875,"x_max":683.390625,"ha":775,"o":"m 133 972 l 133 268 q 154 170 133 213 q 209 94 175 126 q 290 45 244 62 q 387 27 336 27 q 484 45 438 27 q 565 94 530 62 q 620 170 600 126 q 641 268 641 213 l 641 972 l 683 972 l 683 268 q 659 153 683 205 q 594 63 634 101 q 500 6 554 26 q 387 -13 447 -13 q 274 6 327 -13 q 179 63 220 26 q 115 153 138 101 q 91 268 91 205 l 91 972 l 133 972 m 271 1088 l 480 1239 l 505 1205 l 296 1055 l 271 1088 "},"Ŷ":{"x_min":69.75,"x_max":706.25,"ha":775,"o":"m 409 0 l 409 479 l 706 960 l 670 983 l 388 526 l 105 983 l 69 960 l 367 479 l 367 0 l 409 0 m 479 1055 l 387 1170 l 297 1055 l 264 1079 l 387 1239 l 512 1079 l 479 1055 "},"ŝ":{"x_min":69.453125,"x_max":575.046875,"ha":645,"o":"m 126 58 q 193 39 154 47 q 262 31 233 31 q 375 45 325 31 q 460 81 425 58 q 514 137 495 105 q 533 205 533 169 q 478 296 533 259 q 319 351 423 333 q 134 419 198 370 q 69 538 69 468 q 91 622 69 583 q 154 691 113 662 q 252 737 194 720 q 381 754 311 754 q 459 745 415 754 q 534 725 504 737 l 518 686 q 450 704 490 697 q 381 712 411 712 q 269 699 319 712 q 184 662 219 686 q 129 606 148 638 q 111 538 111 575 q 165 447 111 484 q 325 393 220 411 q 510 325 445 373 q 575 205 575 276 q 552 121 575 161 q 490 52 530 81 q 391 6 450 23 q 262 -9 333 -9 q 184 -1 229 -9 q 109 19 140 6 l 126 58 m 413 845 l 321 960 l 231 845 l 198 869 l 321 1029 l 446 869 l 413 845 "},"Ý":{"x_min":69.75,"x_max":706.25,"ha":775,"o":"m 409 0 l 409 479 l 706 960 l 670 983 l 388 526 l 105 983 l 69 960 l 367 479 l 367 0 l 409 0 m 271 1088 l 480 1239 l 505 1205 l 296 1055 l 271 1088 "},"Ĉ":{"x_min":76.390625,"x_max":650.046875,"ha":720,"o":"m 650 0 q 597 -3 626 -2 q 547 -4 569 -4 q 341 38 429 -4 q 193 149 252 80 q 105 306 134 218 q 76 486 76 394 q 105 667 76 579 q 193 824 134 755 q 341 935 252 893 q 548 977 430 977 q 598 977 570 977 q 650 973 626 976 l 647 932 q 595 935 623 934 q 548 936 568 936 q 359 897 440 936 q 225 795 279 858 q 145 651 172 732 q 118 486 118 570 q 145 320 118 401 q 225 177 172 240 q 359 75 279 113 q 547 37 440 37 q 595 38 566 37 q 647 41 623 38 l 650 0 m 530 1055 l 438 1170 l 348 1055 l 315 1079 l 438 1239 l 563 1079 l 530 1055 "},"ą":{"x_min":76,"x_max":674.234375,"ha":739,"o":"m 674 -126 q 610 -147 640 -147 q 558 -128 578 -147 q 539 -81 539 -110 q 556 -31 539 -55 q 614 14 573 -8 l 614 72 q 500 6 563 26 q 370 -14 437 -14 q 258 5 312 -14 q 164 60 205 24 q 100 146 124 95 q 76 259 76 197 q 99 372 76 322 q 164 458 123 422 q 258 512 205 493 q 370 531 312 531 q 509 503 448 531 q 614 434 569 476 l 614 473 q 593 589 614 542 q 543 664 573 635 q 475 704 512 692 q 405 716 438 716 q 279 692 334 716 q 180 627 223 668 l 150 654 q 263 730 201 703 q 405 758 326 758 q 489 744 445 758 q 570 696 533 730 q 631 608 607 663 q 656 473 656 553 l 656 0 l 635 0 l 644 -17 q 595 -50 610 -34 q 580 -82 580 -66 q 589 -99 580 -93 q 610 -105 597 -105 q 652 -90 628 -105 l 674 -126 m 370 28 q 503 52 438 28 q 614 133 568 76 l 614 375 q 506 460 568 432 q 370 489 444 489 q 275 473 320 489 q 194 427 229 457 q 138 355 159 397 q 118 259 118 312 q 138 164 118 207 q 194 90 159 121 q 275 43 229 59 q 370 28 320 28 "},"Ö":{"x_min":69.453125,"x_max":1066.75,"ha":1136,"o":"m 69 486 q 108 679 69 588 q 215 838 147 770 q 374 945 283 905 q 568 984 465 984 q 761 945 670 984 q 920 838 852 905 q 1027 679 987 770 q 1066 486 1066 588 q 1027 292 1066 383 q 920 133 987 201 q 761 26 852 65 q 568 -12 670 -12 q 374 26 465 -12 q 215 133 283 65 q 108 292 147 201 q 69 486 69 383 m 111 486 q 147 308 111 391 q 245 163 183 225 q 390 65 306 101 q 568 29 473 29 q 745 65 662 29 q 891 163 829 101 q 988 308 952 225 q 1025 486 1025 391 q 988 663 1025 580 q 891 809 952 747 q 745 907 829 870 q 568 943 662 943 q 390 907 473 943 q 245 809 306 870 q 147 663 183 747 q 111 486 111 580 m 440 1182 l 509 1182 l 509 1113 l 440 1113 l 440 1182 m 627 1182 l 697 1182 l 697 1113 l 627 1113 l 627 1182 "},"z":{"x_min":63.890625,"x_max":677.828125,"ha":742,"o":"m 69 703 l 593 703 l 63 0 l 672 0 l 672 42 l 148 42 l 677 745 l 69 745 l 69 703 "},"™":{"x_min":82.875,"x_max":729,"ha":857,"o":"m 219 653 l 219 930 l 82 930 l 82 972 l 401 972 l 401 930 l 261 930 l 261 653 l 219 653 m 488 840 l 488 653 l 446 653 l 446 1006 l 587 741 l 729 1006 l 729 653 l 687 653 l 687 840 l 587 653 l 488 840 "},"Ř":{"x_min":97.234375,"x_max":695.890625,"ha":758,"o":"m 97 0 l 97 972 q 152 975 125 975 q 204 976 180 976 q 410 947 322 976 q 557 873 498 919 q 645 769 616 827 q 675 651 675 711 q 659 563 675 607 q 613 482 644 520 q 537 413 583 444 q 430 361 491 381 l 695 12 l 662 -12 l 387 348 q 204 327 308 327 q 172 328 188 327 q 138 330 156 329 l 138 0 l 97 0 m 204 934 q 172 934 188 934 q 138 933 156 934 l 138 372 q 172 370 155 370 q 204 369 188 369 q 391 393 311 369 q 525 457 472 418 q 606 547 579 497 q 633 651 633 598 q 606 755 633 704 q 525 846 579 807 q 391 910 472 886 q 204 934 311 934 m 413 1214 l 288 1055 l 165 1214 l 198 1239 l 288 1123 l 380 1239 l 413 1214 "},"ã":{"x_min":76.390625,"x_max":655.609375,"ha":739,"o":"m 150 655 q 263 731 201 704 q 405 758 326 758 q 489 744 445 758 q 570 697 533 730 q 631 609 607 663 q 655 473 655 554 l 655 0 l 613 0 l 613 72 q 500 6 563 26 q 370 -13 437 -13 q 259 5 312 -13 q 165 60 205 25 q 100 146 125 95 q 76 259 76 197 q 100 372 76 322 q 164 457 123 422 q 259 511 205 493 q 370 530 312 530 q 509 503 448 530 q 613 434 569 476 l 613 473 q 593 589 613 543 q 543 664 573 636 q 475 704 512 693 q 405 716 438 716 q 279 693 334 716 q 180 627 223 669 l 150 655 m 370 27 q 503 52 438 27 q 613 133 568 76 l 613 375 q 506 460 568 431 q 370 488 444 488 q 275 472 320 488 q 194 427 229 456 q 138 354 159 397 q 118 259 118 312 q 138 163 118 206 q 194 90 159 120 q 275 43 229 59 q 370 27 320 27 m 558 955 q 512 905 539 920 q 459 890 484 890 q 382 919 421 890 q 327 941 352 941 q 293 929 312 941 q 264 893 275 918 l 230 917 q 275 967 248 951 q 327 983 301 983 q 407 953 368 983 q 459 932 433 932 q 493 943 475 932 q 525 981 512 954 l 558 955 "},"Ň":{"x_min":97,"x_max":677,"ha":774,"o":"m 139 0 l 139 859 l 677 -40 l 677 972 l 635 972 l 635 112 l 97 1012 l 97 0 l 139 0 m 510 1214 l 385 1055 l 262 1214 l 295 1239 l 385 1123 l 477 1239 l 510 1214 "},"æ":{"x_min":76.390625,"x_max":1227.875,"ha":1297,"o":"m 1158 0 q 1112 -4 1134 -2 q 1069 -5 1090 -5 q 922 10 988 -5 q 805 54 857 26 q 716 120 754 81 q 655 204 679 159 l 655 0 l 613 0 l 613 72 q 500 6 563 26 q 370 -13 437 -13 q 259 5 312 -13 q 165 60 205 25 q 100 146 125 95 q 76 259 76 197 q 100 372 76 322 q 164 457 123 422 q 259 511 205 493 q 370 530 312 530 q 509 503 448 530 q 613 434 569 476 l 613 472 q 593 589 613 543 q 543 664 573 636 q 475 704 512 693 q 405 716 438 716 q 279 693 334 716 q 180 627 223 669 l 150 655 q 263 731 201 704 q 405 758 326 758 q 484 745 445 758 q 556 708 523 733 q 613 645 590 683 q 647 555 637 607 q 707 650 670 611 q 784 713 743 688 q 866 747 825 737 q 944 758 908 758 q 1071 731 1018 758 q 1159 656 1125 704 q 1211 545 1194 609 q 1227 408 1227 481 l 657 408 q 655 391 655 400 q 655 375 655 383 l 655 362 q 682 243 657 301 q 759 138 708 184 q 888 65 809 93 q 1073 37 966 37 q 1158 41 1113 37 l 1158 0 m 370 27 q 503 52 438 27 q 613 133 568 76 l 613 375 q 506 460 568 431 q 370 488 444 488 q 275 472 320 488 q 194 427 229 456 q 138 354 159 397 q 118 259 118 312 q 138 163 118 206 q 194 90 159 120 q 275 43 229 59 q 370 27 320 27 m 944 716 q 854 700 900 716 q 768 651 808 684 q 700 568 729 618 q 661 450 672 518 l 1183 450 q 1170 540 1183 493 q 1129 627 1158 587 q 1055 691 1101 666 q 944 716 1009 716 "},"ĩ":{"x_min":-44.265625,"x_max":283.53125,"ha":236,"o":"m 97 745 l 97 0 l 139 0 l 139 745 l 97 745 m 283 955 q 237 905 264 920 q 184 890 209 890 q 107 919 146 890 q 52 941 77 941 q 18 929 37 941 q -10 893 0 918 l -44 917 q 0 967 -26 951 q 52 983 26 983 q 132 953 93 983 q 184 932 158 932 q 218 943 200 932 q 250 981 237 954 l 283 955 "},"É":{"x_min":97,"x_max":647.375,"ha":724,"o":"m 647 0 l 647 42 l 139 42 l 139 522 l 555 522 l 555 564 l 139 564 l 139 930 l 647 930 l 647 972 l 97 972 l 97 0 l 647 0 m 255 1088 l 464 1239 l 489 1205 l 280 1055 l 255 1088 "},"ŀ":{"x_min":71.234375,"x_max":140.6875,"ha":208,"o":"m 85 1240 l 85 0 l 127 0 l 127 1240 l 85 1240 m 71 1403 l 140 1403 l 140 1334 l 71 1334 l 71 1403 "},"~":{"x_min":69.453125,"x_max":640.328125,"ha":710,"o":"m 640 441 q 487 356 573 356 q 413 372 452 356 q 341 413 375 388 q 281 448 311 436 q 223 461 252 461 q 161 445 191 461 q 102 393 130 429 l 69 418 q 143 482 104 462 q 223 502 183 502 q 366 447 291 502 q 487 398 427 398 q 607 466 552 398 l 640 441 "},"Ċ":{"x_min":76.390625,"x_max":650.046875,"ha":720,"o":"m 650 0 q 597 -3 626 -2 q 547 -4 569 -4 q 341 38 429 -4 q 193 149 252 80 q 105 306 134 218 q 76 486 76 394 q 105 667 76 579 q 193 824 134 755 q 341 935 252 893 q 548 977 430 977 q 598 977 570 977 q 650 973 626 976 l 647 932 q 595 935 623 934 q 548 936 568 936 q 359 897 440 936 q 225 795 279 858 q 145 651 172 732 q 118 486 118 570 q 145 320 118 401 q 225 177 172 240 q 359 75 279 113 q 547 37 440 37 q 595 38 566 37 q 647 41 623 38 l 650 0 m 407 1182 l 476 1182 l 476 1113 l 407 1113 l 407 1182 "},"³":{"x_min":72.15625,"x_max":335,"ha":404,"o":"m 80 711 q 101 709 91 709 q 120 709 111 709 q 183 715 152 709 q 239 734 215 721 q 278 767 263 747 q 293 813 293 786 q 268 865 293 840 q 212 901 244 890 q 158 911 193 908 q 87 917 123 914 l 205 1085 l 83 1085 l 83 1127 l 287 1127 l 165 954 q 195 949 179 951 q 226 940 211 946 q 303 890 272 925 q 335 812 335 856 q 316 748 335 776 q 267 703 297 721 q 198 676 237 685 q 120 667 159 667 q 95 667 106 667 q 72 669 83 667 l 80 711 "},"¡":{"x_min":86.125,"x_max":169.453125,"ha":256,"o":"m 107 -228 l 149 -228 l 149 516 l 107 516 l 107 -228 m 86 661 l 169 661 l 169 745 l 86 745 l 86 661 "},"[":{"x_min":97,"x_max":333.453125,"ha":333,"o":"m 97 1125 l 97 -153 l 333 -153 l 333 -111 l 139 -111 l 139 1083 l 333 1083 l 333 1125 l 97 1125 "},"%":{"x_min":83.34375,"x_max":620.890625,"ha":704,"o":"m 393 105 q 426 186 393 152 q 506 219 459 219 q 587 186 554 219 q 620 105 620 152 q 587 25 620 58 q 506 -8 554 -8 q 426 25 459 -8 q 393 105 393 58 m 83 865 q 116 945 83 912 q 197 979 150 979 q 277 945 244 979 q 311 865 311 912 q 277 784 311 818 q 197 751 244 751 q 116 784 150 751 q 83 865 83 818 m 584 982 l 620 962 l 119 -9 l 83 9 l 584 982 m 125 865 q 145 813 125 834 q 197 793 166 793 q 248 813 227 793 q 269 865 269 834 q 248 916 269 895 q 197 937 227 937 q 145 916 166 937 q 125 865 125 895 m 434 105 q 455 54 434 75 q 506 33 476 33 q 558 54 537 33 q 579 105 579 75 q 558 156 579 136 q 506 177 537 177 q 455 156 476 177 q 434 105 434 136 "},"P":{"x_min":97.234375,"x_max":675.046875,"ha":745,"o":"m 97 0 l 97 972 q 152 975 125 975 q 204 976 180 976 q 410 947 322 976 q 557 873 498 919 q 645 769 616 827 q 675 651 675 711 q 645 531 675 590 q 557 428 616 473 q 410 355 498 383 q 204 327 322 327 q 172 328 188 327 q 138 330 156 329 l 138 0 l 97 0 m 204 934 q 172 934 188 934 q 138 933 156 934 l 138 372 q 172 370 155 370 q 204 369 188 369 q 391 393 311 369 q 525 457 472 418 q 606 547 579 497 q 633 651 633 598 q 606 755 633 704 q 525 846 579 807 q 391 910 472 886 q 204 934 311 934 "},"_":{"x_min":0,"x_max":709.78125,"ha":710,"o":"m 0 0 l 709 0 l 709 42 l 0 42 l 0 0 "},"Ŕ":{"x_min":97.234375,"x_max":695.890625,"ha":758,"o":"m 97 0 l 97 972 q 152 975 125 975 q 204 976 180 976 q 410 947 322 976 q 557 873 498 919 q 645 769 616 827 q 675 651 675 711 q 659 563 675 607 q 613 482 644 520 q 537 413 583 444 q 430 361 491 381 l 695 12 l 662 -12 l 387 348 q 204 327 308 327 q 172 328 188 327 q 138 330 156 329 l 138 0 l 97 0 m 204 934 q 172 934 188 934 q 138 933 156 934 l 138 372 q 172 370 155 370 q 204 369 188 369 q 391 393 311 369 q 525 457 472 418 q 606 547 579 497 q 633 651 633 598 q 606 755 633 704 q 525 846 579 807 q 391 910 472 886 q 204 934 311 934 m 191 1088 l 400 1239 l 425 1205 l 216 1055 l 191 1088 "},"ñ":{"x_min":91.671875,"x_max":672.28125,"ha":756,"o":"m 133 744 l 133 683 q 243 738 181 719 q 368 758 305 758 q 541 711 461 758 q 655 572 620 665 q 667 534 662 555 q 672 475 672 513 l 672 0 l 630 0 l 630 475 q 606 579 630 534 q 545 655 583 625 q 461 701 508 686 q 368 716 415 716 q 240 694 304 716 q 133 632 177 672 l 133 0 l 91 0 l 91 744 l 133 744 m 533 955 q 487 905 514 920 q 434 890 459 890 q 357 919 396 890 q 302 941 327 941 q 268 929 287 941 q 239 893 250 918 l 205 917 q 250 967 223 951 q 302 983 276 983 q 382 953 343 983 q 434 932 408 932 q 468 943 450 932 q 500 981 487 954 l 533 955 "},"‚":{"x_min":86.125,"x_max":169.453125,"ha":256,"o":"m 169 180 l 169 62 q 168 36 169 54 q 161 1 168 19 q 142 -34 155 -16 q 104 -59 129 -51 l 90 -20 q 111 -5 104 -16 q 122 18 119 5 q 127 43 126 31 q 127 62 127 55 l 127 97 l 86 97 l 86 180 l 169 180 "},"Æ":{"x_min":69.015625,"x_max":962.46875,"ha":1039,"o":"m 551 882 l 551 275 l 246 275 l 551 882 m 551 233 l 551 0 l 962 0 l 962 42 l 593 42 l 593 522 l 870 522 l 870 564 l 593 564 l 593 930 l 962 930 l 962 972 l 551 972 l 69 10 l 105 -10 l 225 233 l 551 233 "},"ğ":{"x_min":69.453125,"x_max":647.28125,"ha":739,"o":"m 605 -1 q 541 -5 569 -5 q 334 27 423 -5 q 186 113 245 59 q 98 234 127 166 q 69 375 69 302 q 98 514 69 445 q 186 636 127 583 q 334 721 245 688 q 540 754 422 754 q 591 753 563 754 q 647 750 619 752 l 647 -83 q 627 -204 647 -145 q 572 -307 608 -262 q 484 -379 536 -352 q 370 -406 433 -406 q 259 -380 311 -406 q 165 -312 208 -354 l 193 -281 q 275 -342 231 -319 q 370 -365 319 -365 q 468 -341 425 -365 q 541 -278 511 -318 q 588 -188 572 -238 q 605 -83 605 -137 l 605 -1 m 540 712 q 352 683 433 712 q 218 606 272 654 q 138 499 165 559 q 111 375 111 438 q 138 250 111 311 q 218 142 165 190 q 352 65 272 94 q 541 36 433 36 q 572 36 556 36 q 605 38 588 37 l 605 711 q 571 712 587 712 q 540 712 555 712 m 564 1000 q 525 911 564 947 q 425 875 487 875 q 324 911 362 875 q 286 1000 286 947 l 327 1000 q 354 940 327 964 q 425 917 380 917 q 495 940 469 917 q 522 1000 522 964 l 564 1000 "},"Ū":{"x_min":91.671875,"x_max":683.390625,"ha":775,"o":"m 133 972 l 133 268 q 154 170 133 213 q 209 94 175 126 q 290 45 244 62 q 387 27 336 27 q 484 45 438 27 q 565 94 530 62 q 620 170 600 126 q 641 268 641 213 l 641 972 l 683 972 l 683 268 q 659 153 683 205 q 594 63 634 101 q 500 6 554 26 q 387 -13 447 -13 q 274 6 327 -13 q 179 63 220 26 q 115 153 138 101 q 91 268 91 205 l 91 972 l 133 972 m 207 1169 l 568 1169 l 568 1127 l 207 1127 l 207 1169 "},"Œ":{"x_min":69,"x_max":1574.375,"ha":1654,"o":"m 1024 0 l 1024 286 q 949 164 994 219 q 843 70 903 109 q 713 8 783 30 q 567 -13 643 -13 q 373 25 464 -13 q 214 132 282 64 q 107 292 146 201 q 69 486 69 383 q 107 679 69 588 q 214 838 146 770 q 373 945 282 905 q 567 985 464 985 q 713 962 643 985 q 843 900 783 940 q 949 806 903 860 q 1024 684 994 751 l 1024 972 l 1574 972 l 1574 930 l 1066 930 l 1066 564 l 1482 564 l 1482 522 l 1066 522 l 1066 42 l 1574 42 l 1574 0 l 1024 0 m 111 486 q 147 308 111 391 q 244 163 183 224 q 389 65 306 101 q 567 29 473 29 q 745 65 661 29 q 890 163 828 101 q 987 308 951 224 q 1024 486 1024 391 q 987 663 1024 580 q 890 808 951 747 q 745 906 828 870 q 567 943 661 943 q 389 906 473 943 q 244 808 306 870 q 147 663 183 747 q 111 486 111 580 "},"Ą":{"x_min":69.453125,"x_max":832.015625,"ha":881,"o":"m 205 262 l 106 -8 l 69 6 l 430 995 l 811 9 l 793 1 l 802 -16 q 753 -50 768 -34 q 738 -81 738 -66 q 747 -99 738 -93 q 768 -105 755 -105 q 809 -90 786 -105 l 832 -126 q 768 -147 798 -147 q 716 -129 736 -147 q 697 -81 697 -111 q 713 -34 697 -56 q 766 9 729 -11 l 669 262 l 205 262 m 220 304 l 652 304 l 430 880 l 220 304 "},"T":{"x_min":69.203125,"x_max":716.796875,"ha":786,"o":"m 414 0 l 414 930 l 716 930 l 716 972 l 69 972 l 69 930 l 372 930 l 372 0 l 414 0 "},"š":{"x_min":69.453125,"x_max":575.046875,"ha":645,"o":"m 126 58 q 193 39 154 47 q 262 31 233 31 q 375 45 325 31 q 460 81 425 58 q 514 137 495 105 q 533 205 533 169 q 478 296 533 259 q 319 351 423 333 q 134 419 198 370 q 69 538 69 468 q 91 622 69 583 q 154 691 113 662 q 252 737 194 720 q 381 754 311 754 q 459 745 415 754 q 534 725 504 737 l 518 686 q 450 704 490 697 q 381 712 411 712 q 269 699 319 712 q 184 662 219 686 q 129 606 148 638 q 111 538 111 575 q 165 447 111 484 q 325 393 220 411 q 510 325 445 373 q 575 205 575 276 q 552 121 575 161 q 490 52 530 81 q 391 6 450 23 q 262 -9 333 -9 q 184 -1 229 -9 q 109 19 140 6 l 126 58 m 446 1004 l 321 845 l 198 1004 l 231 1029 l 321 913 l 413 1029 l 446 1004 "},"Þ":{"x_min":97.234375,"x_max":579.21875,"ha":649,"o":"m 138 783 q 169 785 154 784 q 200 786 184 786 q 362 761 291 786 q 481 694 433 736 q 554 598 529 652 q 579 487 579 544 q 554 375 579 429 q 481 280 529 322 q 362 213 433 238 q 200 188 291 188 q 169 188 184 188 q 138 191 154 188 l 138 0 l 97 0 l 97 972 l 138 972 l 138 783 m 200 744 q 138 740 172 744 l 138 233 q 170 230 155 230 q 200 230 184 230 q 345 252 281 230 q 450 309 408 273 q 515 391 493 344 q 537 487 537 437 q 515 583 537 537 q 450 665 493 629 q 345 722 408 701 q 200 744 281 744 "},"j":{"x_min":-169.453125,"x_max":152.796875,"ha":236,"o":"m 83 972 l 152 972 l 152 904 l 83 904 l 83 972 m -133 -302 q -90 -348 -116 -331 q -33 -365 -65 -365 q 59 -318 20 -365 q 97 -186 97 -272 l 97 744 l 138 744 l 138 -186 q 125 -279 138 -238 q 88 -348 111 -320 q 33 -391 65 -376 q -33 -406 1 -406 q -112 -384 -77 -406 q -169 -322 -147 -362 l -133 -302 "},"1":{"x_min":136.3125,"x_max":445,"ha":731,"o":"m 445 0 l 445 1017 l 136 629 l 169 604 l 403 897 l 403 0 l 445 0 "},"›":{"x_min":69.453125,"x_max":329.1875,"ha":399,"o":"m 94 193 l 329 374 l 94 558 l 69 524 l 259 374 l 69 226 l 94 193 "},"<":{"x_min":69.453125,"x_max":694.5,"ha":764,"o":"m 694 202 l 184 400 l 694 597 l 680 636 l 69 400 l 680 164 l 694 202 "},"t":{"x_min":29.171875,"x_max":383.359375,"ha":411,"o":"m 352 702 l 133 702 l 133 261 q 150 162 133 204 q 195 93 166 120 q 262 53 223 66 q 345 40 301 40 q 360 40 352 40 q 377 41 368 40 l 383 0 q 363 -1 373 -1 q 345 -1 354 -1 q 246 14 293 -1 q 165 62 200 30 q 111 144 130 94 q 91 261 91 194 l 91 702 l 29 702 l 29 744 l 91 744 l 91 986 l 133 986 l 133 744 l 352 744 l 352 702 "},"ù":{"x_min":83.34375,"x_max":663.9375,"ha":747,"o":"m 125 744 l 125 268 q 144 170 125 213 q 197 94 163 126 q 277 45 231 62 q 373 27 322 27 q 470 45 425 27 q 549 94 515 62 q 602 170 583 126 q 622 268 622 213 l 622 744 l 663 744 l 663 268 q 641 153 663 205 q 578 63 618 101 q 486 6 538 26 q 373 -13 433 -13 q 261 6 313 -13 q 168 63 208 26 q 106 153 129 101 q 83 268 83 205 l 83 744 l 125 744 m 447 845 l 237 995 l 262 1029 l 472 878 l 447 845 "},"ĉ":{"x_min":69.453125,"x_max":629.21875,"ha":699,"o":"m 629 -5 q 540 -9 583 -9 q 334 22 422 -9 q 186 109 245 55 q 98 231 127 162 q 69 372 69 300 q 98 513 69 444 q 186 636 127 581 q 334 722 245 690 q 540 755 422 755 q 629 751 583 755 l 626 709 q 540 713 580 713 q 352 684 433 713 q 218 606 272 654 q 138 497 165 558 q 111 372 111 436 q 138 247 111 308 q 218 138 165 186 q 352 61 272 90 q 540 31 433 31 q 626 36 580 31 l 629 -5 m 501 845 l 409 960 l 319 845 l 286 869 l 409 1029 l 534 869 l 501 845 "},"ï":{"x_min":-8.765625,"x_max":248.1875,"ha":236,"o":"m 97 745 l 97 0 l 139 0 l 139 745 l 97 745 m -8 972 l 60 972 l 60 903 l -8 903 l -8 972 m 178 972 l 248 972 l 248 903 l 178 903 l 178 972 "},"ī":{"x_min":-60.765625,"x_max":300.375,"ha":236,"o":"m 97 745 l 97 0 l 139 0 l 139 745 l 97 745 m -60 959 l 300 959 l 300 917 l -60 917 l -60 959 "},"Ò":{"x_min":69.453125,"x_max":1066.75,"ha":1136,"o":"m 69 486 q 108 679 69 588 q 215 838 147 770 q 374 945 283 905 q 568 984 465 984 q 761 945 670 984 q 920 838 852 905 q 1027 679 987 770 q 1066 486 1066 588 q 1027 292 1066 383 q 920 133 987 201 q 761 26 852 65 q 568 -12 670 -12 q 374 26 465 -12 q 215 133 283 65 q 108 292 147 201 q 69 486 69 383 m 111 486 q 147 308 111 391 q 245 163 183 225 q 390 65 306 101 q 568 29 473 29 q 745 65 662 29 q 891 163 829 101 q 988 308 952 225 q 1025 486 1025 391 q 988 663 1025 580 q 891 809 952 747 q 745 907 829 870 q 568 943 662 943 q 390 907 473 943 q 245 809 306 870 q 147 663 183 747 q 111 486 111 580 m 661 1055 l 451 1205 l 476 1239 l 686 1088 l 661 1055 "},"Ď":{"x_min":97.234375,"x_max":688.9375,"ha":765,"o":"m 218 37 q 405 75 325 37 q 539 177 486 113 q 620 320 593 240 q 647 486 647 401 q 620 651 647 570 q 539 795 593 732 q 405 897 486 858 q 218 936 325 936 q 179 935 202 936 q 138 933 155 934 l 138 38 q 179 37 156 37 q 218 37 202 37 m 218 977 q 424 935 336 977 q 571 824 512 893 q 659 667 630 755 q 688 486 688 579 q 659 306 688 394 q 571 149 630 218 q 424 38 512 80 q 218 -4 336 -4 q 159 -3 194 -4 q 97 0 125 -2 l 97 972 q 159 976 125 975 q 218 977 194 977 m 401 1214 l 276 1055 l 153 1214 l 186 1239 l 276 1123 l 368 1239 l 401 1214 "},"&":{"x_min":76.390625,"x_max":613.9375,"ha":676,"o":"m 505 544 l 505 609 l 547 609 l 547 544 l 613 544 l 613 502 l 547 502 l 547 1 q 502 -2 525 -1 q 461 -2 480 -2 q 309 15 379 -2 q 187 70 238 34 q 106 156 136 105 q 76 269 76 206 q 135 426 76 356 q 295 526 194 495 q 187 609 225 554 q 150 738 150 665 q 171 839 150 794 q 230 915 193 884 q 318 962 268 945 q 427 979 369 979 q 452 978 440 979 q 476 976 465 977 l 473 934 q 450 936 462 936 q 427 937 438 937 q 334 924 377 937 q 259 885 291 911 q 209 822 227 859 q 191 738 191 786 q 207 661 191 697 q 254 600 223 626 q 327 559 284 573 q 425 544 370 544 l 505 544 m 425 502 q 300 484 356 502 q 203 433 244 465 q 140 359 162 401 q 118 269 118 316 q 144 172 118 215 q 216 100 170 130 q 325 54 262 70 q 461 38 387 38 q 482 38 472 38 q 505 40 493 38 l 505 502 l 425 502 "},"˝":{"x_min":97.234375,"x_max":501.421875,"ha":571,"o":"m 266 878 l 476 1029 l 501 995 l 291 845 l 266 878 m 97 878 l 306 1029 l 331 995 l 122 845 l 97 878 "},"I":{"x_min":97,"x_max":139,"ha":236,"o":"m 97 972 l 97 0 l 139 0 l 139 972 l 97 972 "},"ə":{"x_min":69,"x_max":712,"ha":781,"o":"m 152 677 q 257 738 200 718 q 371 758 313 758 q 516 726 452 758 q 623 639 580 694 q 689 511 666 584 q 712 358 712 438 q 679 189 712 259 q 597 74 646 119 q 490 7 547 29 q 384 -14 433 -14 q 242 17 301 -14 q 144 100 183 48 q 87 219 105 152 q 69 358 69 285 l 69 379 l 669 379 q 643 516 666 453 q 580 623 620 578 q 487 691 541 667 q 371 716 434 716 q 271 699 320 716 q 180 646 221 682 l 152 677 m 384 28 q 476 46 428 28 q 565 102 524 64 q 636 198 607 140 q 669 337 664 256 l 112 337 q 130 221 113 277 q 180 122 146 165 q 264 53 213 79 q 384 28 315 28 "},"G":{"x_min":76.390625,"x_max":668.109375,"ha":760,"o":"m 668 427 l 668 0 q 605 -3 640 -2 q 547 -4 570 -4 q 341 38 429 -4 q 193 149 252 80 q 105 306 134 218 q 76 486 76 394 q 105 667 76 579 q 193 824 134 755 q 341 935 252 893 q 547 977 429 977 q 605 976 570 977 q 668 972 640 975 l 668 929 q 597 934 632 933 q 547 936 562 936 q 359 897 440 936 q 225 795 279 858 q 145 651 172 732 q 118 486 118 570 q 145 320 118 401 q 225 177 172 240 q 359 75 279 113 q 547 37 440 37 q 585 37 562 37 q 626 38 608 37 l 626 427 l 668 427 "},"`":{"x_min":83.34375,"x_max":318.078125,"ha":401,"o":"m 293 845 l 83 995 l 108 1029 l 318 878 l 293 845 "},"·":{"x_min":69.453125,"x_max":152.796875,"ha":222,"o":"m 69 386 l 152 386 l 152 469 l 69 469 l 69 386 "},"ŏ":{"x_min":69.453125,"x_max":841.734375,"ha":911,"o":"m 69 372 q 100 522 69 451 q 182 645 130 593 q 305 727 234 697 q 455 758 376 758 q 605 727 534 758 q 728 645 676 697 q 811 522 780 593 q 841 372 841 451 q 811 222 841 293 q 728 99 780 151 q 605 16 676 47 q 455 -13 534 -13 q 305 16 376 -13 q 182 99 234 47 q 100 222 130 151 q 69 372 69 293 m 111 372 q 138 238 111 301 q 211 128 165 175 q 321 54 258 81 q 455 27 384 27 q 589 54 526 27 q 699 128 652 81 q 772 238 745 175 q 800 372 800 301 q 772 506 800 443 q 699 616 745 569 q 589 689 652 662 q 455 716 526 716 q 321 689 384 716 q 211 616 258 662 q 138 506 165 569 q 111 372 111 443 m 594 1000 q 555 911 594 947 q 455 875 517 875 q 354 911 392 875 q 316 1000 316 947 l 357 1000 q 384 940 357 964 q 455 917 410 917 q 525 940 499 917 q 552 1000 552 964 l 594 1000 "},"¿":{"x_min":69.453125,"x_max":627.828125,"ha":590,"o":"m 387 516 l 387 404 q 254 213 387 281 q 200 180 226 197 q 154 140 175 163 q 122 86 134 118 q 111 11 111 55 q 132 -81 111 -41 q 189 -150 154 -122 q 269 -192 225 -177 q 359 -206 313 -206 q 495 -173 437 -206 q 590 -69 554 -140 l 627 -86 q 361 -248 547 -248 q 257 -232 309 -248 q 163 -184 205 -216 q 95 -102 122 -151 q 69 11 69 -54 q 110 152 69 95 q 230 250 151 209 q 313 310 280 276 q 345 404 345 344 l 345 516 l 387 516 m 408 661 l 325 661 l 325 744 l 408 744 l 408 661 "},"ý":{"x_min":83.34375,"x_max":661.15625,"ha":753,"o":"m 661 744 l 661 -83 q 641 -204 661 -145 q 586 -307 622 -262 q 498 -379 550 -352 q 384 -406 447 -406 q 273 -380 325 -406 q 179 -312 222 -354 l 206 -281 q 289 -342 245 -319 q 384 -365 333 -365 q 481 -341 438 -365 q 555 -278 525 -318 q 602 -188 586 -238 q 619 -83 619 -137 l 619 65 q 386 -27 513 -27 q 280 -9 334 -27 q 182 44 226 8 q 111 134 138 80 q 83 258 83 187 l 83 744 l 125 744 l 125 255 q 147 154 125 198 q 205 78 169 109 q 288 30 241 47 q 384 13 336 13 q 511 42 458 13 q 619 123 563 70 l 619 744 l 661 744 m 255 878 l 464 1029 l 489 995 l 280 845 l 255 878 "},"ſ":{"x_min":83,"x_max":295.84375,"ha":208,"o":"m 83 0 l 83 848 q 101 933 83 894 q 149 998 119 971 q 217 1040 179 1025 q 295 1056 255 1056 l 295 1014 q 232 1001 263 1014 q 177 967 201 989 q 139 915 154 945 q 125 848 125 884 l 125 0 l 83 0 "},"ź":{"x_min":63.890625,"x_max":677.828125,"ha":742,"o":"m 69 703 l 593 703 l 63 0 l 672 0 l 672 42 l 148 42 l 677 745 l 69 745 l 69 703 m 268 878 l 477 1029 l 502 995 l 293 845 l 268 878 "},"ű":{"x_min":83.34375,"x_max":663.9375,"ha":747,"o":"m 125 744 l 125 268 q 144 170 125 213 q 197 94 163 126 q 277 45 231 62 q 373 27 322 27 q 470 45 425 27 q 549 94 515 62 q 602 170 583 126 q 622 268 622 213 l 622 744 l 663 744 l 663 268 q 641 153 663 205 q 578 63 618 101 q 486 6 538 26 q 373 -13 433 -13 q 261 6 313 -13 q 168 63 208 26 q 106 153 129 101 q 83 268 83 205 l 83 744 l 125 744 m 383 878 l 593 1029 l 618 995 l 408 845 l 383 878 m 214 878 l 423 1029 l 448 995 l 239 845 l 214 878 "},"ń":{"x_min":91.671875,"x_max":672.28125,"ha":756,"o":"m 133 744 l 133 683 q 243 738 181 719 q 368 758 305 758 q 541 711 461 758 q 655 572 620 665 q 667 534 662 555 q 672 475 672 513 l 672 0 l 630 0 l 630 475 q 606 579 630 534 q 545 655 583 625 q 461 701 508 686 q 368 716 415 716 q 240 694 304 716 q 133 632 177 672 l 133 0 l 91 0 l 91 744 l 133 744 m 257 878 l 466 1029 l 491 995 l 282 845 l 257 878 "},";":{"x_min":86.125,"x_max":169.453125,"ha":256,"o":"m 86 744 l 169 744 l 169 661 l 86 661 l 86 744 m 169 83 l 169 -34 q 168 -60 169 -43 q 161 -95 168 -77 q 142 -131 155 -113 q 104 -156 129 -148 l 90 -118 q 111 -102 104 -113 q 122 -78 119 -91 q 127 -53 126 -65 q 127 -34 127 -41 l 127 0 l 86 0 l 86 83 l 169 83 "},"Ġ":{"x_min":76.390625,"x_max":668.109375,"ha":760,"o":"m 668 427 l 668 0 q 605 -3 640 -2 q 547 -4 570 -4 q 341 38 429 -4 q 193 149 252 80 q 105 306 134 218 q 76 486 76 394 q 105 667 76 579 q 193 824 134 755 q 341 935 252 893 q 547 977 429 977 q 605 976 570 977 q 668 972 640 975 l 668 929 q 597 934 632 933 q 547 936 562 936 q 359 897 440 936 q 225 795 279 858 q 145 651 172 732 q 118 486 118 570 q 145 320 118 401 q 225 177 172 240 q 359 75 279 113 q 547 37 440 37 q 585 37 562 37 q 626 38 608 37 l 626 427 l 668 427 m 436 1182 l 505 1182 l 505 1113 l 436 1113 l 436 1182 "},"6":{"x_min":83.34375,"x_max":661.15625,"ha":731,"o":"m 502 933 q 472 935 487 934 q 441 936 456 936 q 282 903 344 936 q 186 818 220 870 q 138 700 151 766 q 125 568 125 634 l 125 416 q 227 518 162 479 q 372 556 293 556 q 484 534 431 556 q 576 472 537 511 q 638 380 615 433 q 661 268 661 327 q 638 155 661 208 q 576 63 615 102 q 484 2 537 25 q 372 -20 431 -20 q 259 2 312 -20 q 168 63 206 25 q 106 155 129 102 q 83 268 83 208 l 83 568 q 100 716 83 643 q 156 847 116 790 q 266 941 197 905 q 440 977 336 977 q 471 977 455 977 q 502 975 487 976 l 502 933 m 125 268 q 144 171 125 216 q 197 93 163 126 q 275 40 230 59 q 372 20 320 20 q 468 40 423 20 q 547 93 513 59 q 600 171 580 126 q 619 268 619 216 q 600 364 619 319 q 547 443 580 409 q 468 495 513 476 q 372 515 423 515 q 275 495 320 515 q 197 443 230 476 q 144 364 163 409 q 125 268 125 319 "},"n":{"x_min":91.671875,"x_max":672.28125,"ha":756,"o":"m 133 744 l 133 683 q 243 738 181 719 q 368 758 305 758 q 541 711 461 758 q 655 572 620 665 q 667 534 662 555 q 672 475 672 513 l 672 0 l 630 0 l 630 475 q 606 579 630 534 q 545 655 583 625 q 461 701 508 686 q 368 716 415 716 q 240 694 304 716 q 133 632 177 672 l 133 0 l 91 0 l 91 744 l 133 744 "},"ģ":{"x_min":69.453125,"x_max":647.28125,"ha":739,"o":"m 605 -1 q 541 -5 569 -5 q 334 27 423 -5 q 186 113 245 59 q 98 234 127 166 q 69 375 69 302 q 98 514 69 445 q 186 636 127 583 q 334 721 245 688 q 540 754 422 754 q 591 753 563 754 q 647 750 619 752 l 647 -83 q 627 -204 647 -145 q 572 -307 608 -262 q 484 -379 536 -352 q 370 -406 433 -406 q 259 -380 311 -406 q 165 -312 208 -354 l 193 -281 q 275 -342 231 -319 q 370 -365 319 -365 q 468 -341 425 -365 q 541 -278 511 -318 q 588 -188 572 -238 q 605 -83 605 -137 l 605 -1 m 540 712 q 352 683 433 712 q 218 606 272 654 q 138 499 165 559 q 111 375 111 438 q 138 250 111 311 q 218 142 165 190 q 352 65 272 94 q 541 36 433 36 q 572 36 556 36 q 605 38 588 37 l 605 711 q 571 712 587 712 q 540 712 555 712 m 387 836 l 387 933 q 388 956 387 941 q 394 985 388 971 q 414 1015 401 1000 q 452 1037 427 1029 l 466 998 q 433 968 438 989 q 428 933 428 947 l 428 912 l 470 912 l 470 836 l 387 836 "},"℗":{"x_min":83,"x_max":1097,"ha":1180,"o":"m 83 486 q 123 682 83 590 q 232 843 163 774 q 393 952 301 912 q 590 993 485 993 q 786 952 694 993 q 947 843 878 912 q 1056 682 1016 774 q 1097 486 1097 590 q 1056 289 1097 381 q 947 128 1016 197 q 786 19 878 59 q 590 -21 694 -21 q 393 19 485 -21 q 232 128 301 59 q 123 289 163 197 q 83 486 83 381 m 125 486 q 161 305 125 390 q 261 157 198 220 q 409 57 324 94 q 590 21 494 21 q 770 57 685 21 q 918 157 855 94 q 1018 305 981 220 q 1055 486 1055 390 q 1018 666 1055 581 q 918 814 981 751 q 770 914 855 877 q 590 951 685 951 q 409 914 494 951 q 261 814 324 877 q 161 666 198 751 q 125 486 125 581 m 509 417 l 509 222 l 467 222 l 467 757 q 488 758 478 758 q 510 758 498 758 q 625 744 576 758 q 707 706 675 730 q 755 651 739 681 q 771 587 771 620 q 755 523 771 554 q 707 468 739 493 q 626 430 675 444 q 510 417 576 417 l 509 417 m 509 459 l 528 459 q 615 470 578 459 q 677 499 652 481 q 715 540 702 517 q 729 587 729 564 q 715 634 729 610 q 677 675 702 657 q 615 704 652 693 q 528 716 578 716 l 509 716 l 509 459 "},"Ĝ":{"x_min":76.390625,"x_max":668.109375,"ha":760,"o":"m 668 427 l 668 0 q 605 -3 640 -2 q 547 -4 570 -4 q 341 38 429 -4 q 193 149 252 80 q 105 306 134 218 q 76 486 76 394 q 105 667 76 579 q 193 824 134 755 q 341 935 252 893 q 547 977 429 977 q 605 976 570 977 q 668 972 640 975 l 668 929 q 597 934 632 933 q 547 936 562 936 q 359 897 440 936 q 225 795 279 858 q 145 651 172 732 q 118 486 118 570 q 145 320 118 401 q 225 177 172 240 q 359 75 279 113 q 547 37 440 37 q 585 37 562 37 q 626 38 608 37 l 626 427 l 668 427 m 562 1055 l 470 1170 l 380 1055 l 347 1079 l 470 1239 l 595 1079 l 562 1055 "},"p":{"x_min":91.671875,"x_max":669.5,"ha":739,"o":"m 91 -406 l 91 750 q 147 753 119 752 q 198 754 175 754 q 404 721 316 754 q 552 636 493 688 q 640 514 611 583 q 669 375 669 445 q 640 234 669 302 q 552 113 611 166 q 404 27 493 59 q 197 -5 315 -5 q 166 -4 181 -5 q 133 -2 151 -4 l 133 -406 l 91 -406 m 198 712 q 167 712 183 712 q 133 711 151 712 l 133 38 q 165 36 150 37 q 197 36 181 36 q 386 65 305 36 q 520 142 466 94 q 600 250 573 190 q 627 375 627 311 q 600 499 627 438 q 520 606 573 559 q 386 683 466 654 q 198 712 305 712 "},"‡":{"x_min":76.25,"x_max":691.90625,"ha":768,"o":"m 76 951 l 361 951 l 361 122 l 76 122 l 76 80 l 361 80 l 361 -167 l 403 -167 l 403 80 l 691 80 l 691 122 l 403 122 l 403 951 l 691 951 l 691 993 l 403 993 l 403 1240 l 361 1240 l 361 993 l 76 993 l 76 951 "},"ň":{"x_min":91.671875,"x_max":672.28125,"ha":756,"o":"m 133 744 l 133 683 q 243 738 181 719 q 368 758 305 758 q 541 711 461 758 q 655 572 620 665 q 667 534 662 555 q 672 475 672 513 l 672 0 l 630 0 l 630 475 q 606 579 630 534 q 545 655 583 625 q 461 701 508 686 q 368 716 415 716 q 240 694 304 716 q 133 632 177 672 l 133 0 l 91 0 l 91 744 l 133 744 m 494 1004 l 369 845 l 246 1004 l 279 1029 l 369 913 l 461 1029 l 494 1004 "},"ę":{"x_min":69,"x_max":712,"ha":781,"o":"m 501 -122 q 437 -143 468 -143 q 386 -125 405 -143 q 366 -78 366 -107 q 379 -35 366 -56 q 419 4 391 -15 q 267 56 333 19 q 157 142 201 92 q 91 252 113 192 q 69 374 69 312 q 103 556 69 483 q 187 674 137 630 q 295 738 237 719 q 400 758 352 758 q 532 730 474 758 q 630 656 590 703 q 691 545 670 609 q 712 408 712 481 l 112 408 q 111 391 111 399 q 111 374 111 382 q 137 251 111 312 q 217 143 163 191 q 352 66 270 95 q 543 37 433 37 q 628 41 583 37 l 628 0 q 582 -4 604 -3 q 539 -6 560 -6 q 467 -1 500 -6 l 472 -13 q 423 -47 437 -31 q 408 -78 408 -63 q 416 -95 408 -89 q 437 -101 425 -101 q 479 -86 455 -101 l 501 -122 m 400 716 q 310 700 356 716 q 224 650 264 684 q 156 567 185 617 q 117 450 128 517 l 668 450 q 650 540 668 492 q 599 626 633 587 q 516 691 566 666 q 400 716 466 716 "},"S":{"x_min":76.390625,"x_max":640.328125,"ha":717,"o":"m 120 163 q 214 59 152 93 q 351 25 276 25 q 449 41 404 25 q 527 88 494 58 q 579 159 561 118 q 598 250 598 200 q 575 327 598 293 q 516 387 552 361 q 436 432 480 413 q 351 466 393 451 q 255 504 304 483 q 167 556 206 526 q 102 627 127 587 q 76 722 76 668 q 98 829 76 780 q 159 914 120 879 q 251 969 198 950 q 365 988 304 988 q 525 948 452 988 q 634 825 598 908 l 595 808 q 502 913 563 879 q 365 947 440 947 q 267 930 312 947 q 188 884 222 913 q 136 813 155 854 q 118 722 118 772 q 140 644 118 677 q 200 584 163 611 q 279 538 236 558 q 365 505 323 519 q 461 467 412 488 q 549 415 509 445 q 614 344 588 384 q 640 250 640 304 q 618 142 640 191 q 556 57 595 93 q 465 2 518 22 q 351 -16 412 -16 q 190 23 262 -16 q 81 147 118 63 l 120 163 "},"/":{"x_min":27.78125,"x_max":604.21875,"ha":632,"o":"m 66 -64 l 604 1087 l 565 1104 l 27 -47 l 66 -64 "},"į":{"x_min":30.328125,"x_max":165.390625,"ha":236,"o":"m 165 -126 q 101 -147 132 -147 q 49 -129 69 -147 q 30 -81 30 -111 q 45 -35 30 -58 q 97 8 60 -12 l 97 745 l 139 745 l 139 0 l 126 0 l 136 -16 q 86 -50 101 -34 q 72 -81 72 -66 q 80 -99 72 -93 q 101 -105 88 -105 q 143 -90 119 -105 l 165 -126 "},"Ŧ":{"x_min":69.203125,"x_max":716.796875,"ha":786,"o":"m 212 619 l 372 619 l 372 0 l 414 0 l 414 619 l 573 619 l 573 661 l 414 661 l 414 930 l 716 930 l 716 972 l 69 972 l 69 930 l 372 930 l 372 661 l 212 661 l 212 619 "},"y":{"x_min":83.34375,"x_max":661.15625,"ha":753,"o":"m 661 744 l 661 -83 q 641 -204 661 -145 q 586 -307 622 -262 q 498 -379 550 -352 q 384 -406 447 -406 q 273 -380 325 -406 q 179 -312 222 -354 l 206 -281 q 289 -342 245 -319 q 384 -365 333 -365 q 481 -341 438 -365 q 555 -278 525 -318 q 602 -188 586 -238 q 619 -83 619 -137 l 619 65 q 386 -27 513 -27 q 280 -9 334 -27 q 182 44 226 8 q 111 134 138 80 q 83 258 83 187 l 83 744 l 125 744 l 125 255 q 147 154 125 198 q 205 78 169 109 q 288 30 241 47 q 384 13 336 13 q 511 42 458 13 q 619 123 563 70 l 619 744 l 661 744 "},"g":{"x_min":69.453125,"x_max":647.28125,"ha":739,"o":"m 605 -1 q 541 -5 569 -5 q 334 27 423 -5 q 186 113 245 59 q 98 234 127 166 q 69 375 69 302 q 98 514 69 445 q 186 636 127 583 q 334 721 245 688 q 540 754 422 754 q 591 753 563 754 q 647 750 619 752 l 647 -83 q 627 -204 647 -145 q 572 -307 608 -262 q 484 -379 536 -352 q 370 -406 433 -406 q 259 -380 311 -406 q 165 -312 208 -354 l 193 -281 q 275 -342 231 -319 q 370 -365 319 -365 q 468 -341 425 -365 q 541 -278 511 -318 q 588 -188 572 -238 q 605 -83 605 -137 l 605 -1 m 540 712 q 352 683 433 712 q 218 606 272 654 q 138 499 165 559 q 111 375 111 438 q 138 250 111 311 q 218 142 165 190 q 352 65 272 94 q 541 36 433 36 q 572 36 556 36 q 605 38 588 37 l 605 711 q 571 712 587 712 q 540 712 555 712 "},"²":{"x_min":68.8125,"x_max":365,"ha":441,"o":"m 365 668 l 68 668 l 261 890 q 303 942 284 915 q 323 1002 323 970 q 291 1067 323 1045 q 224 1090 260 1090 q 169 1076 193 1090 q 131 1034 145 1062 l 95 1053 q 224 1132 135 1132 q 275 1123 249 1132 q 320 1099 300 1115 q 352 1059 339 1083 q 365 1002 365 1034 q 341 926 365 962 q 292 862 317 890 l 159 710 l 365 710 l 365 668 "},"–":{"x_min":69.453125,"x_max":926.46875,"ha":996,"o":"m 69 408 l 926 408 l 926 450 l 69 450 l 69 408 "},"ë":{"x_min":69.453125,"x_max":711.171875,"ha":781,"o":"m 627 0 q 581 -4 604 -2 q 538 -5 559 -5 q 335 27 423 -5 q 188 112 247 59 q 99 234 129 165 q 69 375 69 302 q 103 556 69 483 q 187 675 137 630 q 295 738 237 719 q 400 758 352 758 q 531 731 473 758 q 629 656 590 704 q 690 545 669 609 q 711 408 711 481 l 112 408 q 111 391 111 400 q 111 375 111 383 q 137 252 111 312 q 217 143 163 191 q 352 66 270 95 q 543 37 433 37 q 627 41 583 37 l 627 0 m 400 716 q 309 700 355 716 q 224 651 263 684 q 156 568 184 618 q 116 450 127 518 l 666 450 q 649 540 666 493 q 598 627 632 587 q 515 691 565 666 q 400 716 465 716 m 276 972 l 345 972 l 345 903 l 276 903 l 276 972 m 463 972 l 533 972 l 533 903 l 463 903 l 463 972 "},"J":{"x_min":62.5,"x_max":545.875,"ha":638,"o":"m 504 972 l 545 972 l 545 309 q 525 182 545 241 q 468 79 505 123 q 380 11 431 36 q 268 -13 329 -13 q 154 13 205 -13 q 62 80 102 40 l 91 112 q 175 51 131 75 q 268 27 218 27 q 348 43 312 27 q 413 84 384 58 q 461 143 441 109 q 490 213 480 176 q 500 271 497 240 q 504 322 504 302 l 504 972 "},"Ã":{"x_min":68.0625,"x_max":812.5625,"ha":881,"o":"m 68 6 l 106 -7 l 208 262 l 672 262 l 773 -7 l 812 6 l 440 996 l 68 6 m 440 877 l 655 304 l 223 304 l 440 877 m 594 1165 q 548 1115 575 1130 q 495 1100 520 1100 q 418 1129 457 1100 q 363 1151 388 1151 q 329 1139 348 1151 q 300 1103 311 1128 l 266 1127 q 311 1177 284 1161 q 363 1193 337 1193 q 443 1163 404 1193 q 495 1142 469 1142 q 529 1153 511 1142 q 561 1191 548 1164 l 594 1165 "},"ŷ":{"x_min":83.34375,"x_max":661.15625,"ha":753,"o":"m 661 744 l 661 -83 q 641 -204 661 -145 q 586 -307 622 -262 q 498 -379 550 -352 q 384 -406 447 -406 q 273 -380 325 -406 q 179 -312 222 -354 l 206 -281 q 289 -342 245 -319 q 384 -365 333 -365 q 481 -341 438 -365 q 555 -278 525 -318 q 602 -188 586 -238 q 619 -83 619 -137 l 619 65 q 386 -27 513 -27 q 280 -9 334 -27 q 182 44 226 8 q 111 134 138 80 q 83 258 83 187 l 83 744 l 125 744 l 125 255 q 147 154 125 198 q 205 78 169 109 q 288 30 241 47 q 384 13 336 13 q 511 42 458 13 q 619 123 563 70 l 619 744 l 661 744 m 463 845 l 371 960 l 281 845 l 248 869 l 371 1029 l 496 869 l 463 845 "},"ŕ":{"x_min":91.671875,"x_max":368.078125,"ha":417,"o":"m 368 716 q 240 694 304 716 q 133 632 177 672 l 133 0 l 91 0 l 91 744 l 133 744 l 133 683 q 243 738 181 719 q 368 758 305 758 l 368 716 m 112 878 l 321 1029 l 346 995 l 137 845 l 112 878 "},"©":{"x_min":76.390625,"x_max":1090.359375,"ha":1167,"o":"m 737 215 q 704 212 720 212 q 672 212 687 212 q 524 236 587 212 q 418 297 461 259 q 355 385 376 336 q 334 486 334 434 q 355 587 334 537 q 418 675 376 637 q 525 737 461 713 q 673 761 588 761 q 705 761 688 761 q 737 758 722 761 l 732 716 q 702 719 716 719 q 673 719 687 719 q 543 699 598 719 q 450 646 487 679 q 395 571 413 613 q 376 486 376 529 q 395 400 376 441 q 450 326 413 358 q 543 274 487 294 q 672 254 598 254 q 700 254 686 254 q 732 256 715 254 l 737 215 m 76 486 q 116 682 76 590 q 225 843 156 775 q 386 952 294 912 q 583 993 479 993 q 779 952 687 993 q 941 843 872 912 q 1050 682 1009 775 q 1090 486 1090 590 q 1050 289 1090 381 q 941 128 1009 197 q 779 19 872 59 q 583 -20 687 -20 q 386 19 479 -20 q 225 128 294 59 q 116 289 156 197 q 76 486 76 381 m 118 486 q 154 305 118 390 q 254 157 191 220 q 402 57 318 94 q 583 20 487 20 q 763 57 679 20 q 911 157 848 94 q 1011 305 975 220 q 1048 486 1048 390 q 1011 666 1048 581 q 911 814 975 751 q 763 914 848 877 q 583 951 679 951 q 402 914 487 951 q 254 814 318 877 q 154 666 191 751 q 118 486 118 581 "},"˘":{"x_min":97.234375,"x_max":375.03125,"ha":472,"o":"m 375 1000 q 336 911 375 947 q 236 875 298 875 q 135 911 173 875 q 97 1000 97 947 l 138 1000 q 165 940 138 964 q 236 917 191 917 q 306 940 280 917 q 333 1000 333 964 l 375 1000 "},"Ă":{"x_min":68.0625,"x_max":812.5625,"ha":881,"o":"m 68 6 l 106 -7 l 208 262 l 672 262 l 773 -7 l 812 6 l 440 996 l 68 6 m 440 877 l 655 304 l 223 304 l 440 877 m 569 1210 q 530 1121 569 1157 q 430 1085 492 1085 q 329 1121 367 1085 q 291 1210 291 1157 l 332 1210 q 359 1150 332 1174 q 430 1127 385 1127 q 500 1150 474 1127 q 527 1210 527 1174 l 569 1210 "},"D":{"x_min":97.234375,"x_max":688.9375,"ha":765,"o":"m 218 37 q 405 75 325 37 q 539 177 486 113 q 620 320 593 240 q 647 486 647 401 q 620 651 647 570 q 539 795 593 732 q 405 897 486 858 q 218 936 325 936 q 179 935 202 936 q 138 933 155 934 l 138 38 q 179 37 156 37 q 218 37 202 37 m 218 977 q 424 935 336 977 q 571 824 512 893 q 659 667 630 755 q 688 486 688 579 q 659 306 688 394 q 571 149 630 218 q 424 38 512 80 q 218 -4 336 -4 q 159 -3 194 -4 q 97 0 125 -2 l 97 972 q 159 976 125 975 q 218 977 194 977 "},"ÿ":{"x_min":83.34375,"x_max":661.15625,"ha":753,"o":"m 661 744 l 661 -83 q 641 -204 661 -145 q 586 -307 622 -262 q 498 -379 550 -352 q 384 -406 447 -406 q 273 -380 325 -406 q 179 -312 222 -354 l 206 -281 q 289 -342 245 -319 q 384 -365 333 -365 q 481 -341 438 -365 q 555 -278 525 -318 q 602 -188 586 -238 q 619 -83 619 -137 l 619 65 q 386 -27 513 -27 q 280 -9 334 -27 q 182 44 226 8 q 111 134 138 80 q 83 258 83 187 l 83 744 l 125 744 l 125 255 q 147 154 125 198 q 205 78 169 109 q 288 30 241 47 q 384 13 336 13 q 511 42 458 13 q 619 123 563 70 l 619 744 l 661 744 m 244 972 l 313 972 l 313 903 l 244 903 l 244 972 m 431 972 l 501 972 l 501 903 l 431 903 l 431 972 "},"ĺ":{"x_min":10.234375,"x_max":244.96875,"ha":208,"o":"m 85 1240 l 85 0 l 127 0 l 127 1240 l 85 1240 m 10 1374 l 219 1525 l 244 1491 l 35 1341 l 10 1374 "},"ł":{"x_min":-5.234375,"x_max":257.625,"ha":225,"o":"m 19 667 l 92 719 l 92 0 l 134 0 l 134 749 l 257 838 l 232 872 l 134 801 l 134 1240 l 92 1240 l 92 770 l -5 701 l 19 667 "},"Ł":{"x_min":3.9375,"x_max":608.46875,"ha":685,"o":"m 28 559 l 97 608 l 97 0 l 608 0 l 608 42 l 139 42 l 139 638 l 262 727 l 237 760 l 139 690 l 139 972 l 97 972 l 97 659 l 3 592 l 28 559 "},"$":{"x_min":69.453125,"x_max":633.390625,"ha":703,"o":"m 372 1118 l 372 993 q 524 949 455 990 q 627 827 593 908 l 588 811 q 500 913 558 879 q 372 951 443 948 l 372 500 q 464 461 418 483 q 548 409 511 440 q 609 339 586 379 q 633 248 633 300 q 613 145 633 193 q 558 63 593 98 q 475 6 523 27 q 372 -19 427 -15 l 372 -145 l 330 -145 l 330 -20 q 177 22 245 -18 q 75 144 108 63 l 113 161 q 201 58 143 93 q 330 20 259 23 l 330 470 q 238 509 284 487 q 154 561 191 531 q 93 631 116 591 q 69 723 69 670 q 88 825 69 779 q 143 907 108 872 q 226 965 179 943 q 330 991 273 987 l 330 1118 l 372 1118 m 111 723 q 130 651 111 683 q 181 593 150 619 q 251 548 212 568 q 330 515 290 529 l 330 950 q 243 927 283 945 q 173 878 202 908 q 127 809 144 848 q 111 723 111 769 m 591 248 q 572 320 591 288 q 521 377 552 352 q 450 422 490 402 q 372 456 411 441 l 372 22 q 459 45 419 26 q 529 93 500 63 q 575 163 558 123 q 591 248 591 202 "},"w":{"x_min":69.453125,"x_max":1011.1875,"ha":1081,"o":"m 419 737 l 518 481 l 365 85 l 108 751 l 69 737 l 365 -28 l 540 424 l 715 -28 l 1011 737 l 972 751 l 715 85 l 562 481 l 661 737 l 622 751 l 540 538 l 458 751 l 419 737 "},"\\":{"x_min":27.78125,"x_max":604.21875,"ha":632,"o":"m 604 -47 l 66 1104 l 27 1087 l 565 -64 l 604 -47 "},"Ì":{"x_min":2.34375,"x_max":237.078125,"ha":236,"o":"m 97 972 l 97 0 l 139 0 l 139 972 l 97 972 m 212 1055 l 2 1205 l 27 1239 l 237 1088 l 212 1055 "},"Ç":{"x_min":76.390625,"x_max":650.046875,"ha":720,"o":"m 413 -105 q 445 -111 426 -111 q 475 -104 462 -111 q 487 -83 487 -98 q 474 -72 487 -76 q 443 -69 461 -69 l 425 -69 l 444 5 q 283 70 352 23 q 168 181 213 116 q 99 325 122 247 q 76 486 76 404 q 105 667 76 579 q 193 824 134 755 q 341 935 252 893 q 548 977 430 977 q 598 977 570 977 q 650 973 626 976 l 647 932 q 595 935 623 934 q 548 936 568 936 q 359 897 440 936 q 225 795 279 858 q 145 651 172 732 q 118 486 118 570 q 145 320 118 401 q 225 177 172 240 q 359 75 279 113 q 547 37 440 37 q 595 38 566 37 q 647 41 623 38 l 650 0 q 597 -3 626 -2 q 547 -4 569 -4 q 487 0 516 -4 l 479 -26 q 515 -45 501 -30 q 529 -83 529 -59 q 502 -136 529 -119 q 444 -152 476 -152 q 400 -144 420 -152 l 413 -105 "},"Ŝ":{"x_min":76.390625,"x_max":640.328125,"ha":717,"o":"m 120 163 q 214 59 152 93 q 351 25 276 25 q 449 41 404 25 q 527 88 494 58 q 579 159 561 118 q 598 250 598 200 q 575 327 598 293 q 516 387 552 361 q 436 432 480 413 q 351 466 393 451 q 255 504 304 483 q 167 556 206 526 q 102 627 127 587 q 76 722 76 668 q 98 829 76 780 q 159 914 120 879 q 251 969 198 950 q 365 988 304 988 q 525 948 452 988 q 634 825 598 908 l 595 808 q 502 913 563 879 q 365 947 440 947 q 267 930 312 947 q 188 884 222 913 q 136 813 155 854 q 118 722 118 772 q 140 644 118 677 q 200 584 163 611 q 279 538 236 558 q 365 505 323 519 q 461 467 412 488 q 549 415 509 445 q 614 344 588 384 q 640 250 640 304 q 618 142 640 191 q 556 57 595 93 q 465 2 518 22 q 351 -16 412 -16 q 190 23 262 -16 q 81 147 118 63 l 120 163 m 450 1055 l 358 1170 l 268 1055 l 235 1079 l 358 1239 l 483 1079 l 450 1055 "},"C":{"x_min":76.390625,"x_max":650.046875,"ha":720,"o":"m 650 0 q 597 -3 626 -2 q 547 -4 569 -4 q 341 38 429 -4 q 193 149 252 80 q 105 306 134 218 q 76 486 76 394 q 105 667 76 579 q 193 824 134 755 q 341 935 252 893 q 548 977 430 977 q 598 977 570 977 q 650 973 626 976 l 647 932 q 595 935 623 934 q 548 936 568 936 q 359 897 440 936 q 225 795 279 858 q 145 651 172 732 q 118 486 118 570 q 145 320 118 401 q 225 177 172 240 q 359 75 279 113 q 547 37 440 37 q 595 38 566 37 q 647 41 623 38 l 650 0 "},"Ē":{"x_min":97,"x_max":647.375,"ha":724,"o":"m 647 0 l 647 42 l 139 42 l 139 522 l 555 522 l 555 564 l 139 564 l 139 930 l 647 930 l 647 972 l 97 972 l 97 0 l 647 0 m 191 1169 l 552 1169 l 552 1127 l 191 1127 l 191 1169 "},"!":{"x_min":86.125,"x_max":169.453125,"ha":256,"o":"m 107 227 l 149 227 l 149 972 l 107 972 l 107 227 m 86 0 l 169 0 l 169 83 l 86 83 l 86 0 "},"ç":{"x_min":69.453125,"x_max":629.21875,"ha":699,"o":"m 368 -106 q 400 -112 380 -112 q 429 -106 416 -112 q 441 -84 441 -100 q 428 -74 441 -77 q 397 -70 415 -70 l 379 -70 l 398 4 q 254 59 316 22 q 152 146 193 97 q 90 254 111 195 q 69 372 69 312 q 98 513 69 444 q 186 636 127 581 q 334 722 245 690 q 541 755 423 755 q 629 751 583 755 l 626 709 q 541 713 580 713 q 352 684 433 713 q 218 606 272 654 q 138 497 165 558 q 111 372 111 436 q 138 247 111 308 q 218 138 165 186 q 352 61 272 90 q 540 31 433 31 q 626 36 580 31 l 629 -5 q 540 -9 583 -9 q 488 -7 513 -9 q 440 -2 463 -5 l 433 -27 q 469 -46 455 -31 q 483 -84 483 -61 q 456 -137 483 -120 q 398 -154 430 -154 q 354 -145 375 -154 l 368 -106 "},"Ĵ":{"x_min":62.5,"x_max":649.859375,"ha":638,"o":"m 504 972 l 545 972 l 545 309 q 525 182 545 241 q 468 79 505 123 q 380 11 431 36 q 268 -13 329 -13 q 154 13 205 -13 q 62 80 102 40 l 91 112 q 175 51 131 75 q 268 27 218 27 q 348 43 312 27 q 413 84 384 58 q 461 143 441 109 q 490 213 480 176 q 500 271 497 240 q 504 322 504 302 l 504 972 m 616 1055 l 524 1170 l 434 1055 l 401 1079 l 524 1239 l 649 1079 l 616 1055 "},"È":{"x_min":97,"x_max":647.375,"ha":724,"o":"m 647 0 l 647 42 l 139 42 l 139 522 l 555 522 l 555 564 l 139 564 l 139 930 l 647 930 l 647 972 l 97 972 l 97 0 l 647 0 m 465 1055 l 255 1205 l 280 1239 l 490 1088 l 465 1055 "},"X":{"x_min":69.453125,"x_max":705.609375,"ha":775,"o":"m 669 -11 l 705 11 l 412 486 l 705 960 l 669 983 l 387 526 l 105 983 l 69 960 l 362 486 l 69 11 l 105 -11 l 387 445 l 669 -11 "},"ô":{"x_min":69.453125,"x_max":841.734375,"ha":911,"o":"m 69 372 q 100 522 69 451 q 182 645 130 593 q 305 727 234 697 q 455 758 376 758 q 605 727 534 758 q 728 645 676 697 q 811 522 780 593 q 841 372 841 451 q 811 222 841 293 q 728 99 780 151 q 605 16 676 47 q 455 -13 534 -13 q 305 16 376 -13 q 182 99 234 47 q 100 222 130 151 q 69 372 69 293 m 111 372 q 138 238 111 301 q 211 128 165 175 q 321 54 258 81 q 455 27 384 27 q 589 54 526 27 q 699 128 652 81 q 772 238 745 175 q 800 372 800 301 q 772 506 800 443 q 699 616 745 569 q 589 689 652 662 q 455 716 526 716 q 321 689 384 716 q 211 616 258 662 q 138 506 165 569 q 111 372 111 443 m 547 845 l 455 960 l 365 845 l 332 869 l 455 1029 l 580 869 l 547 845 "},"Ė":{"x_min":97,"x_max":647.375,"ha":724,"o":"m 647 0 l 647 42 l 139 42 l 139 522 l 555 522 l 555 564 l 139 564 l 139 930 l 647 930 l 647 972 l 97 972 l 97 0 l 647 0 m 337 1182 l 406 1182 l 406 1113 l 337 1113 l 337 1182 "},"Ā":{"x_min":68.0625,"x_max":812.5625,"ha":881,"o":"m 68 6 l 106 -7 l 208 262 l 672 262 l 773 -7 l 812 6 l 440 996 l 68 6 m 440 877 l 655 304 l 223 304 l 440 877 m 250 1169 l 611 1169 l 611 1127 l 250 1127 l 250 1169 "},"ċ":{"x_min":69.453125,"x_max":629.21875,"ha":699,"o":"m 629 -5 q 540 -9 583 -9 q 334 22 422 -9 q 186 109 245 55 q 98 231 127 162 q 69 372 69 300 q 98 513 69 444 q 186 636 127 581 q 334 722 245 690 q 540 755 422 755 q 629 751 583 755 l 626 709 q 540 713 580 713 q 352 684 433 713 q 218 606 272 654 q 138 497 165 558 q 111 372 111 436 q 138 247 111 308 q 218 138 165 186 q 352 61 272 90 q 540 31 433 31 q 626 36 580 31 l 629 -5 m 391 972 l 460 972 l 460 903 l 391 903 l 391 972 "},"đ":{"x_min":69.453125,"x_max":807.015625,"ha":760,"o":"m 445 1055 l 605 1055 l 605 1240 l 647 1240 l 647 1055 l 807 1055 l 807 1013 l 647 1013 l 647 0 q 591 -3 619 -2 q 540 -4 563 -4 q 334 28 422 -4 q 186 113 245 61 q 98 235 127 166 q 69 375 69 304 q 98 515 69 447 q 186 636 127 583 q 334 722 245 690 q 541 755 423 755 q 572 754 556 755 q 605 752 587 754 l 605 1013 l 445 1013 l 445 1055 m 540 37 q 571 37 555 37 q 605 38 587 37 l 605 711 q 572 713 588 712 q 541 713 556 713 q 352 684 433 713 q 218 607 272 655 q 138 499 165 559 q 111 375 111 438 q 138 250 111 311 q 218 143 165 190 q 352 66 272 95 q 540 37 433 37 "},"Ŀ":{"x_min":97,"x_max":608.46875,"ha":685,"o":"m 97 972 l 97 0 l 608 0 l 608 42 l 139 42 l 139 972 l 97 972 m 307 564 l 376 564 l 376 495 l 307 495 l 307 564 "},"}":{"x_min":0,"x_max":281.96875,"ha":347,"o":"m 0 1125 q 91 1109 52 1125 q 156 1069 130 1094 q 195 1013 183 1044 q 208 951 208 982 q 202 866 208 909 q 187 779 195 822 q 172 693 179 736 q 166 613 166 651 q 178 575 166 593 q 208 541 190 556 q 246 516 226 526 q 281 502 266 506 l 281 469 q 246 455 266 465 q 208 430 226 445 q 178 397 190 415 q 166 358 166 379 q 172 278 166 320 q 187 193 179 236 q 202 106 195 150 q 208 20 208 62 q 195 -41 208 -11 q 156 -97 183 -72 q 91 -137 130 -122 q 0 -152 52 -152 l 0 -111 q 72 -99 41 -111 q 125 -68 104 -87 q 156 -26 145 -50 q 166 20 166 -2 q 160 96 166 55 q 145 181 154 137 q 131 269 137 225 q 125 358 125 313 q 151 434 125 402 q 213 486 177 466 q 151 537 177 505 q 125 613 125 569 q 131 702 125 657 q 145 791 137 747 q 160 875 154 834 q 166 951 166 915 q 156 998 166 975 q 125 1041 145 1022 q 72 1071 104 1059 q 0 1083 41 1083 l 0 1125 "},"â":{"x_min":76.390625,"x_max":655.609375,"ha":739,"o":"m 150 655 q 263 731 201 704 q 405 758 326 758 q 489 744 445 758 q 570 697 533 730 q 631 609 607 663 q 655 473 655 554 l 655 0 l 613 0 l 613 72 q 500 6 563 26 q 370 -13 437 -13 q 259 5 312 -13 q 165 60 205 25 q 100 146 125 95 q 76 259 76 197 q 100 372 76 322 q 164 457 123 422 q 259 511 205 493 q 370 530 312 530 q 509 503 448 530 q 613 434 569 476 l 613 473 q 593 589 613 543 q 543 664 573 636 q 475 704 512 693 q 405 716 438 716 q 279 693 334 716 q 180 627 223 669 l 150 655 m 370 27 q 503 52 438 27 q 613 133 568 76 l 613 375 q 506 460 568 431 q 370 488 444 488 q 275 472 320 488 q 194 427 229 456 q 138 354 159 397 q 118 259 118 312 q 138 163 118 206 q 194 90 159 120 q 275 43 229 59 q 370 27 320 27 m 495 845 l 403 960 l 313 845 l 280 869 l 403 1029 l 528 869 l 495 845 "},"ø":{"x_min":69.453125,"x_max":841.734375,"ha":911,"o":"m 69 372 q 100 522 69 451 q 182 645 130 593 q 305 727 234 697 q 455 758 376 758 q 595 732 530 758 q 711 659 659 705 l 811 759 l 841 729 l 741 629 q 815 512 788 577 q 841 372 841 447 q 811 222 841 293 q 728 99 780 151 q 605 16 676 47 q 455 -13 534 -13 q 315 11 380 -13 q 198 83 250 37 l 100 -15 l 69 15 l 168 113 q 95 231 122 166 q 69 372 69 297 m 111 372 q 134 247 111 305 q 197 143 156 188 l 683 630 q 579 693 637 670 q 455 716 522 716 q 321 689 384 716 q 211 616 258 662 q 138 506 165 569 q 111 372 111 443 m 800 372 q 777 496 800 438 q 713 600 754 554 l 227 112 q 331 50 273 72 q 455 27 388 27 q 589 54 526 27 q 699 128 652 81 q 772 238 745 175 q 800 372 800 301 "},"‰":{"x_min":83.34375,"x_max":904.234375,"ha":974,"o":"m 676 105 q 709 186 676 152 q 790 219 743 219 q 870 186 837 219 q 904 105 904 152 q 870 25 904 58 q 790 -8 837 -8 q 709 25 743 -8 q 676 105 676 58 m 83 865 q 116 945 83 912 q 197 979 150 979 q 277 945 244 979 q 311 865 311 912 q 277 784 311 818 q 197 751 244 751 q 116 784 150 751 q 83 865 83 818 m 125 865 q 145 813 125 834 q 197 793 166 793 q 248 813 227 793 q 269 865 269 834 q 248 916 269 895 q 197 937 227 937 q 145 916 166 937 q 125 865 125 895 m 718 105 q 738 54 718 75 q 790 33 759 33 q 841 54 820 33 q 862 105 862 75 q 841 156 862 136 q 790 177 820 177 q 738 156 759 177 q 718 105 718 136 m 393 105 q 426 186 393 152 q 506 219 459 219 q 587 186 554 219 q 620 105 620 152 q 587 25 620 58 q 506 -8 554 -8 q 426 25 459 -8 q 393 105 393 58 m 434 105 q 455 54 434 75 q 506 33 476 33 q 558 54 537 33 q 579 105 579 75 q 558 156 579 136 q 506 177 537 177 q 455 156 476 177 q 434 105 434 136 m 584 982 l 620 962 l 119 -9 l 83 9 l 584 982 "},"Ä":{"x_min":68.0625,"x_max":812.5625,"ha":881,"o":"m 68 6 l 106 -7 l 208 262 l 672 262 l 773 -7 l 812 6 l 440 996 l 68 6 m 440 877 l 655 304 l 223 304 l 440 877 m 303 1182 l 372 1182 l 372 1113 l 303 1113 l 303 1182 m 490 1182 l 560 1182 l 560 1113 l 490 1113 l 490 1182 "},"ř":{"x_min":91.671875,"x_max":368.078125,"ha":417,"o":"m 368 716 q 240 694 304 716 q 133 632 177 672 l 133 0 l 91 0 l 91 744 l 133 744 l 133 683 q 243 738 181 719 q 368 758 305 758 l 368 716 m 353 1004 l 228 845 l 105 1004 l 138 1029 l 228 913 l 320 1029 l 353 1004 "},"—":{"x_min":69.453125,"x_max":1244.546875,"ha":1314,"o":"m 69 408 l 1244 408 l 1244 450 l 69 450 l 69 408 "},"N":{"x_min":97,"x_max":677,"ha":774,"o":"m 139 0 l 139 859 l 677 -40 l 677 972 l 635 972 l 635 112 l 97 1012 l 97 0 l 139 0 "},"2":{"x_min":50,"x_max":658.390625,"ha":731,"o":"m 658 0 l 50 0 l 448 459 q 497 518 472 487 q 543 581 522 548 q 577 651 563 615 q 590 725 590 687 q 568 822 590 780 q 510 893 545 865 q 430 936 475 922 q 341 951 386 951 q 206 917 266 951 q 111 812 147 883 l 73 829 q 184 952 115 912 q 341 993 254 993 q 446 976 394 993 q 539 926 498 959 q 606 844 580 893 q 632 732 632 795 q 618 644 632 686 q 581 565 604 602 q 531 493 559 527 q 475 426 502 458 l 138 41 l 658 41 l 658 0 "},"ü":{"x_min":83.34375,"x_max":663.9375,"ha":747,"o":"m 125 744 l 125 268 q 144 170 125 213 q 197 94 163 126 q 277 45 231 62 q 373 27 322 27 q 470 45 425 27 q 549 94 515 62 q 602 170 583 126 q 622 268 622 213 l 622 744 l 663 744 l 663 268 q 641 153 663 205 q 578 63 618 101 q 486 6 538 26 q 373 -13 433 -13 q 261 6 313 -13 q 168 63 208 26 q 106 153 129 101 q 83 268 83 205 l 83 744 l 125 744 m 250 972 l 319 972 l 319 903 l 250 903 l 250 972 m 437 972 l 507 972 l 507 903 l 437 903 l 437 972 "},"˜":{"x_min":84.734375,"x_max":412.53125,"ha":497,"o":"m 412 955 q 366 905 393 920 q 313 890 338 890 q 236 919 275 890 q 181 941 206 941 q 147 929 166 941 q 118 893 129 918 l 84 917 q 129 967 102 951 q 181 983 155 983 q 261 953 222 983 q 313 932 287 932 q 347 943 329 932 q 379 981 366 954 l 412 955 "},"Ó":{"x_min":69.453125,"x_max":1066.75,"ha":1136,"o":"m 69 486 q 108 679 69 588 q 215 838 147 770 q 374 945 283 905 q 568 984 465 984 q 761 945 670 984 q 920 838 852 905 q 1027 679 987 770 q 1066 486 1066 588 q 1027 292 1066 383 q 920 133 987 201 q 761 26 852 65 q 568 -12 670 -12 q 374 26 465 -12 q 215 133 283 65 q 108 292 147 201 q 69 486 69 383 m 111 486 q 147 308 111 391 q 245 163 183 225 q 390 65 306 101 q 568 29 473 29 q 745 65 662 29 q 891 163 829 101 q 988 308 952 225 q 1025 486 1025 391 q 988 663 1025 580 q 891 809 952 747 q 745 907 829 870 q 568 943 662 943 q 390 907 473 943 q 245 809 306 870 q 147 663 183 747 q 111 486 111 580 m 451 1088 l 660 1239 l 685 1205 l 476 1055 l 451 1088 "},"ˇ":{"x_min":97.234375,"x_max":345.859375,"ha":443,"o":"m 345 1004 l 220 845 l 97 1004 l 130 1029 l 220 913 l 312 1029 l 345 1004 "},"Ÿ":{"x_min":69.75,"x_max":706.25,"ha":775,"o":"m 409 0 l 409 479 l 706 960 l 670 983 l 388 526 l 105 983 l 69 960 l 367 479 l 367 0 l 409 0 m 260 1182 l 329 1182 l 329 1113 l 260 1113 l 260 1182 m 447 1182 l 517 1182 l 517 1113 l 447 1113 l 447 1182 "},"ų":{"x_min":83,"x_max":664,"ha":747,"o":"m 445 -144 q 381 -165 412 -165 q 330 -146 349 -165 q 311 -99 311 -128 q 324 -54 311 -76 q 369 -14 337 -33 q 258 6 310 -14 q 167 65 206 27 q 105 154 128 102 q 83 268 83 205 l 83 745 l 125 745 l 125 268 q 144 170 125 214 q 197 94 163 126 q 277 45 231 62 q 373 28 322 28 q 469 45 424 28 q 549 94 515 62 q 602 170 583 126 q 622 268 622 214 l 622 745 l 664 745 l 664 267 q 643 157 664 206 q 588 71 623 108 q 505 14 552 35 q 404 -13 458 -7 l 416 -35 q 367 -68 381 -53 q 352 -100 352 -84 q 361 -117 352 -111 q 381 -123 369 -123 q 423 -108 399 -123 l 445 -144 "},"€":{"x_min":69.453125,"x_max":690.328125,"ha":760,"o":"m 122 565 q 168 720 133 645 q 261 852 202 795 q 401 943 319 909 q 588 977 483 977 q 638 977 611 977 q 690 973 666 976 l 687 932 q 636 935 663 934 q 588 936 608 936 q 419 905 493 936 q 292 824 345 875 q 206 706 238 773 q 163 565 175 638 l 541 565 l 541 523 l 159 523 q 158 504 158 513 q 158 486 158 495 q 158 464 158 475 q 159 443 158 454 l 541 443 l 541 401 l 165 401 q 209 263 176 329 q 294 147 241 197 q 420 67 347 97 q 587 37 493 37 q 635 38 607 37 q 687 41 663 38 l 690 0 q 638 -3 666 -2 q 587 -4 609 -4 q 402 29 483 -4 q 262 118 320 62 q 169 247 204 173 q 122 401 134 320 l 69 401 l 69 443 l 118 443 q 116 464 116 454 q 116 486 116 475 q 116 504 116 495 q 118 523 116 513 l 69 523 l 69 565 l 122 565 "},"Ŭ":{"x_min":91.671875,"x_max":683.390625,"ha":775,"o":"m 133 972 l 133 268 q 154 170 133 213 q 209 94 175 126 q 290 45 244 62 q 387 27 336 27 q 484 45 438 27 q 565 94 530 62 q 620 170 600 126 q 641 268 641 213 l 641 972 l 683 972 l 683 268 q 659 153 683 205 q 594 63 634 101 q 500 6 554 26 q 387 -13 447 -13 q 274 6 327 -13 q 179 63 220 26 q 115 153 138 101 q 91 268 91 205 l 91 972 l 133 972 m 526 1210 q 487 1121 526 1157 q 387 1085 449 1085 q 286 1121 324 1085 q 248 1210 248 1157 l 289 1210 q 316 1150 289 1174 q 387 1127 342 1127 q 457 1150 431 1127 q 484 1210 484 1174 l 526 1210 "},"ĝ":{"x_min":69.453125,"x_max":647.28125,"ha":739,"o":"m 605 -1 q 541 -5 569 -5 q 334 27 423 -5 q 186 113 245 59 q 98 234 127 166 q 69 375 69 302 q 98 514 69 445 q 186 636 127 583 q 334 721 245 688 q 540 754 422 754 q 591 753 563 754 q 647 750 619 752 l 647 -83 q 627 -204 647 -145 q 572 -307 608 -262 q 484 -379 536 -352 q 370 -406 433 -406 q 259 -380 311 -406 q 165 -312 208 -354 l 193 -281 q 275 -342 231 -319 q 370 -365 319 -365 q 468 -341 425 -365 q 541 -278 511 -318 q 588 -188 572 -238 q 605 -83 605 -137 l 605 -1 m 540 712 q 352 683 433 712 q 218 606 272 654 q 138 499 165 559 q 111 375 111 438 q 138 250 111 311 q 218 142 165 190 q 352 65 272 94 q 541 36 433 36 q 572 36 556 36 q 605 38 588 37 l 605 711 q 571 712 587 712 q 540 712 555 712 m 501 845 l 409 960 l 319 845 l 286 869 l 409 1029 l 534 869 l 501 845 "},"ß":{"x_min":91.671875,"x_max":675.046875,"ha":751,"o":"m 91 0 l 91 848 q 109 932 91 894 q 157 997 127 970 q 225 1040 187 1025 q 304 1055 263 1055 l 304 1013 q 240 1001 272 1013 q 186 967 209 988 q 147 915 162 945 q 133 848 133 884 l 133 744 l 619 744 l 395 411 q 500 375 450 401 q 589 309 551 348 q 651 221 627 270 q 675 116 675 172 q 647 -15 675 47 q 567 -127 619 -79 q 438 -202 515 -175 q 263 -230 361 -230 l 263 -188 q 420 -163 351 -188 q 536 -97 488 -138 q 608 0 583 -55 q 633 116 633 55 q 607 214 633 168 q 538 295 581 261 q 438 351 494 330 q 322 372 381 372 l 541 702 l 133 702 l 133 0 l 91 0 "},"s":{"x_min":69.453125,"x_max":575.046875,"ha":645,"o":"m 126 58 q 193 39 154 47 q 262 31 233 31 q 375 45 325 31 q 460 81 425 58 q 514 137 495 105 q 533 205 533 169 q 478 296 533 259 q 319 351 423 333 q 134 419 198 370 q 69 538 69 468 q 91 622 69 583 q 154 691 113 662 q 252 737 194 720 q 381 754 311 754 q 459 745 415 754 q 534 725 504 737 l 518 686 q 450 704 490 697 q 381 712 411 712 q 269 699 319 712 q 184 662 219 686 q 129 606 148 638 q 111 538 111 575 q 165 447 111 484 q 325 393 220 411 q 510 325 445 373 q 575 205 575 276 q 552 121 575 161 q 490 52 530 81 q 391 6 450 23 q 262 -9 333 -9 q 184 -1 229 -9 q 109 19 140 6 l 126 58 "},"Ű":{"x_min":91.671875,"x_max":683.390625,"ha":775,"o":"m 133 972 l 133 268 q 154 170 133 213 q 209 94 175 126 q 290 45 244 62 q 387 27 336 27 q 484 45 438 27 q 565 94 530 62 q 620 170 600 126 q 641 268 641 213 l 641 972 l 683 972 l 683 268 q 659 153 683 205 q 594 63 634 101 q 500 6 554 26 q 387 -13 447 -13 q 274 6 327 -13 q 179 63 220 26 q 115 153 138 101 q 91 268 91 205 l 91 972 l 133 972 m 412 1088 l 622 1239 l 647 1205 l 437 1055 l 412 1088 m 243 1088 l 452 1239 l 477 1205 l 268 1055 l 243 1088 "},"?":{"x_min":70.84375,"x_max":627.828125,"ha":697,"o":"m 309 227 l 309 340 q 345 452 309 408 q 444 530 381 495 q 500 566 475 547 q 545 610 526 586 q 575 664 563 634 q 586 733 586 694 q 563 827 586 787 q 506 895 541 868 q 426 937 470 923 q 336 951 381 951 q 106 812 175 951 l 70 832 q 336 993 152 993 q 441 976 388 993 q 534 927 493 959 q 602 845 576 894 q 627 733 627 797 q 616 650 627 686 q 581 586 604 615 q 529 536 559 558 q 463 494 500 513 q 381 430 411 465 q 351 340 351 395 l 351 227 l 309 227 m 288 83 l 372 83 l 372 0 l 288 0 l 288 83 "},"c":{"x_min":69.453125,"x_max":629.21875,"ha":699,"o":"m 629 -5 q 540 -9 583 -9 q 334 22 422 -9 q 186 109 245 55 q 98 231 127 162 q 69 372 69 300 q 98 513 69 444 q 186 636 127 581 q 334 722 245 690 q 540 755 422 755 q 629 751 583 755 l 626 709 q 540 713 580 713 q 352 684 433 713 q 218 606 272 654 q 138 497 165 558 q 111 372 111 436 q 138 247 111 308 q 218 138 165 186 q 352 61 272 90 q 540 31 433 31 q 626 36 580 31 l 629 -5 "},"Ņ":{"x_min":97,"x_max":677,"ha":774,"o":"m 139 0 l 139 859 l 677 -40 l 677 972 l 635 972 l 635 112 l 97 1012 l 97 0 l 139 0 m 427 -69 l 427 -166 q 426 -189 427 -174 q 420 -218 426 -204 q 400 -248 413 -233 q 362 -271 387 -262 l 348 -232 q 381 -201 376 -222 q 386 -166 386 -180 l 386 -145 l 344 -145 l 344 -69 l 427 -69 "},"¶":{"x_min":69.453125,"x_max":563.9375,"ha":578,"o":"m 300 0 l 300 594 l 258 594 q 184 609 219 594 q 124 649 150 623 q 84 709 98 675 q 69 783 69 744 q 84 857 69 822 q 124 917 98 891 q 184 957 150 943 q 258 972 219 972 l 563 972 l 563 930 l 494 930 l 494 0 l 452 0 l 452 930 l 341 930 l 341 0 l 300 0 m 258 930 q 153 888 195 930 q 111 783 111 845 q 153 678 111 720 q 258 636 195 636 l 300 636 l 300 930 l 258 930 l 258 930 "},"Ī":{"x_min":-60.765625,"x_max":300.375,"ha":236,"o":"m 97 972 l 97 0 l 139 0 l 139 972 l 97 972 m -60 1169 l 300 1169 l 300 1127 l -60 1127 l -60 1169 "},"•":{"x_min":69.453125,"x_max":291.6875,"ha":361,"o":"m 69 416 q 102 495 69 462 q 180 527 134 527 q 259 495 226 527 q 291 416 291 462 q 259 338 291 370 q 180 305 226 305 q 102 338 134 305 q 69 416 69 370 "},"(":{"x_min":76.390625,"x_max":365.3125,"ha":365,"o":"m 334 -152 q 140 150 204 -13 q 76 486 76 313 q 140 821 76 657 q 334 1125 204 986 l 365 1097 q 179 807 240 965 q 118 486 118 650 q 179 164 118 322 q 365 -125 240 6 l 334 -152 "},"Ħ":{"x_min":17.828125,"x_max":740.1875,"ha":758,"o":"m 139 564 l 139 744 l 619 744 l 619 564 l 139 564 m 17 744 l 97 744 l 97 0 l 139 0 l 139 522 l 619 522 l 619 0 l 661 0 l 661 744 l 740 744 l 740 785 l 661 785 l 661 972 l 619 972 l 619 785 l 139 785 l 139 972 l 97 972 l 97 785 l 17 785 l 17 744 "},":":{"x_min":86,"x_max":169,"ha":256,"o":"m 86 661 l 169 661 l 169 745 l 86 745 l 86 661 m 86 0 l 169 0 l 169 83 l 86 83 l 86 0 "},"Û":{"x_min":91.671875,"x_max":683.390625,"ha":775,"o":"m 133 972 l 133 268 q 154 170 133 213 q 209 94 175 126 q 290 45 244 62 q 387 27 336 27 q 484 45 438 27 q 565 94 530 62 q 620 170 600 126 q 641 268 641 213 l 641 972 l 683 972 l 683 268 q 659 153 683 205 q 594 63 634 101 q 500 6 554 26 q 387 -13 447 -13 q 274 6 327 -13 q 179 63 220 26 q 115 153 138 101 q 91 268 91 205 l 91 972 l 133 972 m 479 1055 l 387 1170 l 297 1055 l 264 1079 l 387 1239 l 512 1079 l 479 1055 "},"ś":{"x_min":69.453125,"x_max":575.046875,"ha":645,"o":"m 126 58 q 193 39 154 47 q 262 31 233 31 q 375 45 325 31 q 460 81 425 58 q 514 137 495 105 q 533 205 533 169 q 478 296 533 259 q 319 351 423 333 q 134 419 198 370 q 69 538 69 468 q 91 622 69 583 q 154 691 113 662 q 252 737 194 720 q 381 754 311 754 q 459 745 415 754 q 534 725 504 737 l 518 686 q 450 704 490 697 q 381 712 411 712 q 269 699 319 712 q 184 662 219 686 q 129 606 148 638 q 111 538 111 575 q 165 447 111 484 q 325 393 220 411 q 510 325 445 373 q 575 205 575 276 q 552 121 575 161 q 490 52 530 81 q 391 6 450 23 q 262 -9 333 -9 q 184 -1 229 -9 q 109 19 140 6 l 126 58 m 214 878 l 423 1029 l 448 995 l 239 845 l 214 878 "},"V":{"x_min":68.0625,"x_max":812.5625,"ha":881,"o":"m 68 965 l 440 -39 l 812 965 l 773 978 l 440 80 l 106 978 l 68 965 "},"Ŗ":{"x_min":97.234375,"x_max":695.890625,"ha":758,"o":"m 97 0 l 97 972 q 152 975 125 975 q 204 976 180 976 q 410 947 322 976 q 557 873 498 919 q 645 769 616 827 q 675 651 675 711 q 659 563 675 607 q 613 482 644 520 q 537 413 583 444 q 430 361 491 381 l 695 12 l 662 -12 l 387 348 q 204 327 308 327 q 172 328 188 327 q 138 330 156 329 l 138 0 l 97 0 m 204 934 q 172 934 188 934 q 138 933 156 934 l 138 372 q 172 370 155 370 q 204 369 188 369 q 391 393 311 369 q 525 457 472 418 q 606 547 579 497 q 633 651 633 598 q 606 755 633 704 q 525 846 579 807 q 391 910 472 886 q 204 934 311 934 m 437 -69 l 437 -166 q 436 -189 437 -174 q 430 -218 436 -204 q 410 -248 423 -233 q 372 -271 397 -262 l 358 -232 q 391 -201 386 -222 q 396 -166 396 -180 l 396 -145 l 354 -145 l 354 -69 l 437 -69 "},"@":{"x_min":76.390625,"x_max":1090.359375,"ha":1167,"o":"m 568 581 q 506 571 537 581 q 451 540 476 561 q 411 489 426 519 q 395 420 395 459 q 411 352 395 381 q 451 301 426 322 q 506 269 476 280 q 568 258 537 258 q 604 260 584 258 q 647 270 625 262 q 691 291 669 277 q 733 329 712 305 l 733 505 q 645 567 691 552 q 568 581 600 581 m 815 34 q 706 -6 759 6 q 583 -20 652 -20 q 386 19 479 -20 q 225 128 294 59 q 116 289 156 197 q 76 486 76 381 q 116 682 76 590 q 225 843 156 775 q 386 952 294 912 q 583 993 479 993 q 779 952 687 993 q 941 843 872 912 q 1050 682 1009 775 q 1090 486 1090 590 q 1076 391 1090 438 q 1034 306 1062 344 q 963 245 1005 269 q 865 222 920 222 q 797 240 829 222 q 748 283 766 258 q 653 228 702 240 q 568 216 604 216 q 492 229 530 216 q 423 269 454 243 q 373 334 393 295 q 354 420 354 372 q 373 507 354 469 q 423 571 393 545 q 492 610 454 597 q 568 623 530 623 q 645 612 601 623 q 733 566 690 601 l 733 568 q 693 690 733 647 q 593 733 652 733 q 519 722 559 733 q 437 669 479 711 l 406 700 q 504 761 455 748 q 593 775 552 775 q 723 720 672 775 q 775 568 775 665 l 775 330 q 802 286 775 308 q 865 263 829 263 q 945 283 911 263 q 1002 334 979 302 q 1036 406 1025 366 q 1048 486 1048 445 q 1011 666 1048 581 q 911 814 975 751 q 763 914 848 877 q 583 951 679 951 q 402 914 487 951 q 254 814 318 877 q 154 666 191 751 q 118 486 118 581 q 154 305 118 390 q 254 157 191 220 q 402 57 318 94 q 583 20 487 20 q 695 34 645 20 q 798 73 745 48 l 815 34 "},"i":{"x_min":83.34375,"x_max":152.796875,"ha":236,"o":"m 97 744 l 97 0 l 139 0 l 139 744 l 97 744 m 83 902 l 152 902 l 152 972 l 83 972 l 83 902 "},"ŉ":{"x_min":72.34375,"x_max":672.28125,"ha":756,"o":"m 133 744 l 133 683 q 243 738 181 719 q 368 758 305 758 q 541 711 461 758 q 655 572 620 665 q 667 534 662 555 q 672 475 672 513 l 672 0 l 630 0 l 630 475 q 606 579 630 534 q 545 655 583 625 q 461 701 508 686 q 368 716 415 716 q 240 694 304 716 q 133 632 177 672 l 133 0 l 91 0 l 91 744 l 133 744 m 155 996 l 155 898 q 154 875 155 890 q 148 846 154 860 q 128 816 141 831 q 90 794 115 802 l 76 833 q 109 863 104 842 q 114 898 114 884 l 114 919 l 72 919 l 72 996 l 155 996 "},"Ģ":{"x_min":76.390625,"x_max":668.109375,"ha":760,"o":"m 668 427 l 668 0 q 605 -3 640 -2 q 547 -4 570 -4 q 341 38 429 -4 q 193 149 252 80 q 105 306 134 218 q 76 486 76 394 q 105 667 76 579 q 193 824 134 755 q 341 935 252 893 q 547 977 429 977 q 605 976 570 977 q 668 972 640 975 l 668 929 q 597 934 632 933 q 547 936 562 936 q 359 897 440 936 q 225 795 279 858 q 145 651 172 732 q 118 486 118 570 q 145 320 118 401 q 225 177 172 240 q 359 75 279 113 q 547 37 440 37 q 585 37 562 37 q 626 38 608 37 l 626 427 l 668 427 m 520 -69 l 520 -166 q 519 -189 520 -174 q 513 -218 519 -204 q 493 -248 506 -233 q 455 -271 480 -262 l 441 -232 q 474 -201 469 -222 q 479 -166 479 -180 l 479 -145 l 437 -145 l 437 -69 l 520 -69 "},"m":{"x_min":91.671875,"x_max":1072.3125,"ha":1156,"o":"m 133 744 l 133 683 q 228 738 176 719 q 345 758 280 758 q 493 713 431 758 q 581 588 555 669 q 668 713 608 669 q 815 758 729 758 q 916 738 869 758 q 998 682 963 719 q 1052 593 1032 645 q 1072 473 1072 540 l 1072 0 l 1030 0 l 1030 473 q 1023 534 1030 494 q 991 615 1015 575 q 925 686 968 655 q 815 716 883 716 q 718 693 758 716 q 652 635 677 670 q 614 557 626 600 q 602 477 602 515 l 602 0 l 561 0 l 561 477 q 548 557 561 515 q 510 635 536 600 q 443 693 484 670 q 345 716 402 716 q 227 693 281 716 q 133 630 173 669 l 133 0 l 91 0 l 91 744 l 133 744 "},"ĕ":{"x_min":69.453125,"x_max":711.171875,"ha":781,"o":"m 627 0 q 581 -4 604 -2 q 538 -5 559 -5 q 335 27 423 -5 q 188 112 247 59 q 99 234 129 165 q 69 375 69 302 q 103 556 69 483 q 187 675 137 630 q 295 738 237 719 q 400 758 352 758 q 531 731 473 758 q 629 656 590 704 q 690 545 669 609 q 711 408 711 481 l 112 408 q 111 391 111 400 q 111 375 111 383 q 137 252 111 312 q 217 143 163 191 q 352 66 270 95 q 543 37 433 37 q 627 41 583 37 l 627 0 m 400 716 q 309 700 355 716 q 224 651 263 684 q 156 568 184 618 q 116 450 127 518 l 666 450 q 649 540 666 493 q 598 627 632 587 q 515 691 565 666 q 400 716 465 716 m 529 1000 q 490 911 529 947 q 390 875 452 875 q 289 911 327 875 q 251 1000 251 947 l 292 1000 q 319 940 292 964 q 390 917 345 917 q 460 940 434 917 q 487 1000 487 964 l 529 1000 "},"ż":{"x_min":63.890625,"x_max":677.828125,"ha":742,"o":"m 69 703 l 593 703 l 63 0 l 672 0 l 672 42 l 148 42 l 677 745 l 69 745 l 69 703 m 336 972 l 405 972 l 405 903 l 336 903 l 336 972 "},"ő":{"x_min":69.453125,"x_max":841.734375,"ha":911,"o":"m 69 372 q 100 522 69 451 q 182 645 130 593 q 305 727 234 697 q 455 758 376 758 q 605 727 534 758 q 728 645 676 697 q 811 522 780 593 q 841 372 841 451 q 811 222 841 293 q 728 99 780 151 q 605 16 676 47 q 455 -13 534 -13 q 305 16 376 -13 q 182 99 234 47 q 100 222 130 151 q 69 372 69 293 m 111 372 q 138 238 111 301 q 211 128 165 175 q 321 54 258 81 q 455 27 384 27 q 589 54 526 27 q 699 128 652 81 q 772 238 745 175 q 800 372 800 301 q 772 506 800 443 q 699 616 745 569 q 589 689 652 662 q 455 716 526 716 q 321 689 384 716 q 211 616 258 662 q 138 506 165 569 q 111 372 111 443 m 452 878 l 662 1029 l 687 995 l 477 845 l 452 878 m 283 878 l 492 1029 l 517 995 l 308 845 l 283 878 "},"ž":{"x_min":63.890625,"x_max":677.828125,"ha":742,"o":"m 69 703 l 593 703 l 63 0 l 672 0 l 672 42 l 148 42 l 677 745 l 69 745 l 69 703 m 495 1004 l 370 845 l 247 1004 l 280 1029 l 370 913 l 462 1029 l 495 1004 "},"á":{"x_min":76.390625,"x_max":655.609375,"ha":739,"o":"m 150 655 q 263 731 201 704 q 405 758 326 758 q 489 744 445 758 q 570 697 533 730 q 631 609 607 663 q 655 473 655 554 l 655 0 l 613 0 l 613 72 q 500 6 563 26 q 370 -13 437 -13 q 259 5 312 -13 q 165 60 205 25 q 100 146 125 95 q 76 259 76 197 q 100 372 76 322 q 164 457 123 422 q 259 511 205 493 q 370 530 312 530 q 509 503 448 530 q 613 434 569 476 l 613 473 q 593 589 613 543 q 543 664 573 636 q 475 704 512 693 q 405 716 438 716 q 279 693 334 716 q 180 627 223 669 l 150 655 m 370 27 q 503 52 438 27 q 613 133 568 76 l 613 375 q 506 460 568 431 q 370 488 444 488 q 275 472 320 488 q 194 427 229 456 q 138 354 159 397 q 118 259 118 312 q 138 163 118 206 q 194 90 159 120 q 275 43 229 59 q 370 27 320 27 m 297 878 l 506 1029 l 531 995 l 322 845 l 297 878 "},"Ŏ":{"x_min":69.453125,"x_max":1066.75,"ha":1136,"o":"m 69 486 q 108 679 69 588 q 215 838 147 770 q 374 945 283 905 q 568 984 465 984 q 761 945 670 984 q 920 838 852 905 q 1027 679 987 770 q 1066 486 1066 588 q 1027 292 1066 383 q 920 133 987 201 q 761 26 852 65 q 568 -12 670 -12 q 374 26 465 -12 q 215 133 283 65 q 108 292 147 201 q 69 486 69 383 m 111 486 q 147 308 111 391 q 245 163 183 225 q 390 65 306 101 q 568 29 473 29 q 745 65 662 29 q 891 163 829 101 q 988 308 952 225 q 1025 486 1025 391 q 988 663 1025 580 q 891 809 952 747 q 745 907 829 870 q 568 943 662 943 q 390 907 473 943 q 245 809 306 870 q 147 663 183 747 q 111 486 111 580 m 707 1210 q 668 1121 707 1157 q 568 1085 630 1085 q 467 1121 505 1085 q 429 1210 429 1157 l 470 1210 q 497 1150 470 1174 q 568 1127 523 1127 q 638 1150 612 1127 q 665 1210 665 1174 l 707 1210 "},"×":{"x_min":83.34375,"x_max":583.375,"ha":667,"o":"m 83 209 l 302 429 l 83 648 l 113 679 l 333 459 l 552 679 l 583 648 l 363 429 l 583 209 l 552 179 l 333 398 l 113 179 l 83 209 "},"İ":{"x_min":85.234375,"x_max":154.6875,"ha":236,"o":"m 97 972 l 97 0 l 139 0 l 139 972 l 97 972 m 85 1182 l 154 1182 l 154 1113 l 85 1113 l 85 1182 "},"Ě":{"x_min":97,"x_max":647.375,"ha":724,"o":"m 647 0 l 647 42 l 139 42 l 139 522 l 555 522 l 555 564 l 139 564 l 139 930 l 647 930 l 647 972 l 97 972 l 97 0 l 647 0 m 496 1214 l 371 1055 l 248 1214 l 281 1239 l 371 1123 l 463 1239 l 496 1214 "},"K":{"x_min":97,"x_max":730.703125,"ha":800,"o":"m 730 13 l 247 509 l 729 956 l 701 987 l 139 463 l 139 972 l 97 972 l 97 0 l 139 0 l 139 406 l 218 480 l 700 -13 l 730 13 "},"7":{"x_min":83.34375,"x_max":651.4375,"ha":731,"o":"m 83 930 l 593 930 l 281 2 l 322 -7 l 651 972 l 83 972 l 83 930 "},"¨":{"x_min":97.234375,"x_max":354.1875,"ha":451,"o":"m 97 972 l 166 972 l 166 903 l 97 903 l 97 972 m 284 972 l 354 972 l 354 903 l 284 903 l 284 972 "},"Y":{"x_min":69.75,"x_max":706.25,"ha":775,"o":"m 409 0 l 409 479 l 706 960 l 670 983 l 388 526 l 105 983 l 69 960 l 367 479 l 367 0 l 409 0 "},"E":{"x_min":97,"x_max":647.375,"ha":724,"o":"m 647 0 l 647 42 l 139 42 l 139 522 l 555 522 l 555 564 l 139 564 l 139 930 l 647 930 l 647 972 l 97 972 l 97 0 l 647 0 "},"Ô":{"x_min":69.453125,"x_max":1066.75,"ha":1136,"o":"m 69 486 q 108 679 69 588 q 215 838 147 770 q 374 945 283 905 q 568 984 465 984 q 761 945 670 984 q 920 838 852 905 q 1027 679 987 770 q 1066 486 1066 588 q 1027 292 1066 383 q 920 133 987 201 q 761 26 852 65 q 568 -12 670 -12 q 374 26 465 -12 q 215 133 283 65 q 108 292 147 201 q 69 486 69 383 m 111 486 q 147 308 111 391 q 245 163 183 225 q 390 65 306 101 q 568 29 473 29 q 745 65 662 29 q 891 163 829 101 q 988 308 952 225 q 1025 486 1025 391 q 988 663 1025 580 q 891 809 952 747 q 745 907 829 870 q 568 943 662 943 q 390 907 473 943 q 245 809 306 870 q 147 663 183 747 q 111 486 111 580 m 659 1055 l 567 1170 l 477 1055 l 444 1079 l 567 1239 l 692 1079 l 659 1055 "},"‹":{"x_min":69.453125,"x_max":329.1875,"ha":399,"o":"m 329 226 l 138 374 l 329 524 l 304 558 l 69 374 l 304 193 l 329 226 "},"Ï":{"x_min":-8.765625,"x_max":248.1875,"ha":236,"o":"m 97 972 l 97 0 l 139 0 l 139 972 l 97 972 m -8 1182 l 60 1182 l 60 1113 l -8 1113 l -8 1182 m 178 1182 l 248 1182 l 248 1113 l 178 1113 l 178 1182 "},"ġ":{"x_min":69.453125,"x_max":647.28125,"ha":739,"o":"m 605 -1 q 541 -5 569 -5 q 334 27 423 -5 q 186 113 245 59 q 98 234 127 166 q 69 375 69 302 q 98 514 69 445 q 186 636 127 583 q 334 721 245 688 q 540 754 422 754 q 591 753 563 754 q 647 750 619 752 l 647 -83 q 627 -204 647 -145 q 572 -307 608 -262 q 484 -379 536 -352 q 370 -406 433 -406 q 259 -380 311 -406 q 165 -312 208 -354 l 193 -281 q 275 -342 231 -319 q 370 -365 319 -365 q 468 -341 425 -365 q 541 -278 511 -318 q 588 -188 572 -238 q 605 -83 605 -137 l 605 -1 m 540 712 q 352 683 433 712 q 218 606 272 654 q 138 499 165 559 q 111 375 111 438 q 138 250 111 311 q 218 142 165 190 q 352 65 272 94 q 541 36 433 36 q 572 36 556 36 q 605 38 588 37 l 605 711 q 571 712 587 712 q 540 712 555 712 m 394 972 l 463 972 l 463 903 l 394 903 l 394 972 "},"ķ":{"x_min":92,"x_max":722.9375,"ha":792,"o":"m 722 18 l 259 383 l 722 726 l 697 759 l 134 344 l 134 1240 l 92 1240 l 92 0 l 134 0 l 134 291 l 224 358 l 697 -15 l 722 18 m 423 -69 l 423 -166 q 422 -189 423 -174 q 416 -218 422 -204 q 396 -248 409 -233 q 358 -271 383 -262 l 344 -232 q 377 -201 372 -222 q 382 -166 382 -180 l 382 -145 l 340 -145 l 340 -69 l 423 -69 "},"±":{"x_min":82.8125,"x_max":583.375,"ha":667,"o":"m 82 492 l 312 492 l 312 720 l 354 720 l 354 492 l 583 492 l 583 450 l 354 450 l 354 222 l 312 222 l 312 450 l 82 450 l 82 492 m 83 181 l 583 181 l 583 139 l 83 139 l 83 181 "},"ì":{"x_min":2.34375,"x_max":237.078125,"ha":236,"o":"m 97 745 l 97 0 l 139 0 l 139 745 l 97 745 m 212 845 l 2 995 l 27 1029 l 237 878 l 212 845 "},"|":{"x_min":107,"x_max":149,"ha":256,"o":"m 107 1240 l 107 -167 l 149 -167 l 149 1240 l 107 1240 "},"§":{"x_min":83.34375,"x_max":629.21875,"ha":713,"o":"m 323 216 q 220 246 265 223 q 144 301 175 269 q 98 370 113 333 q 83 443 83 406 q 125 549 83 502 q 236 622 168 595 q 122 768 122 665 q 142 845 122 808 q 200 910 162 882 q 294 955 238 938 q 420 972 350 972 q 477 968 445 972 q 530 961 509 965 l 525 919 q 472 927 504 923 q 420 930 441 930 q 310 917 358 930 q 229 881 262 904 q 180 829 197 858 q 163 768 163 800 q 207 686 163 718 q 330 643 251 654 l 384 636 q 490 604 444 627 q 566 550 536 581 q 613 481 597 518 q 629 408 629 444 q 586 300 629 345 q 476 229 543 254 q 590 84 590 186 q 570 7 590 44 q 511 -57 550 -29 q 418 -102 473 -86 q 291 -119 362 -119 q 234 -115 266 -119 q 181 -108 202 -112 l 187 -66 q 239 -74 208 -70 q 291 -77 270 -77 q 402 -64 354 -77 q 482 -28 450 -51 q 531 23 515 -5 q 548 84 548 52 q 504 165 548 133 q 380 209 459 198 l 323 216 m 587 408 q 572 470 587 440 q 531 526 558 501 q 466 568 504 551 q 383 593 429 586 q 334 597 355 597 q 250 584 288 597 q 183 549 211 570 q 140 500 155 527 q 125 443 125 472 q 140 379 125 409 q 182 323 155 348 q 247 281 209 298 q 331 258 286 263 q 379 254 358 254 q 463 267 425 254 q 529 302 502 280 q 572 351 556 323 q 587 408 587 379 "},"q":{"x_min":69.453125,"x_max":647.28125,"ha":739,"o":"m 540 712 q 352 683 433 712 q 218 606 272 654 q 138 499 165 559 q 111 375 111 438 q 138 250 111 311 q 218 142 165 190 q 352 65 272 94 q 541 36 433 36 q 572 36 556 36 q 605 38 588 37 l 605 711 q 571 712 587 712 q 540 712 555 712 m 605 -406 l 605 -2 q 572 -4 587 -4 q 541 -5 556 -5 q 334 27 423 -5 q 186 113 245 59 q 98 234 127 166 q 69 375 69 302 q 98 514 69 445 q 186 636 127 583 q 334 721 245 688 q 540 754 422 754 q 591 753 563 754 q 647 750 619 752 l 647 -406 l 605 -406 "},"b":{"x_min":91.671875,"x_max":669.5,"ha":739,"o":"m 198 37 q 386 66 305 37 q 520 143 466 95 q 600 250 573 190 q 627 375 627 311 q 600 499 627 438 q 520 607 573 559 q 386 684 466 655 q 197 713 305 713 q 165 713 181 713 q 133 711 150 712 l 133 38 q 167 37 151 37 q 198 37 183 37 m 133 1240 l 133 752 q 166 754 151 754 q 197 755 181 755 q 404 722 315 755 q 552 636 493 690 q 640 515 611 583 q 669 375 669 447 q 640 235 669 304 q 552 113 611 166 q 404 28 493 61 q 198 -4 316 -4 q 147 -3 175 -4 q 91 0 119 -2 l 91 1240 l 133 1240 "},"®":{"x_min":83,"x_max":611,"ha":694,"o":"m 347 993 q 449 972 401 993 q 533 915 498 951 q 590 831 569 880 q 611 729 611 783 q 590 626 611 674 q 533 542 569 577 q 449 485 498 506 q 347 465 401 465 q 244 485 292 465 q 160 542 195 506 q 103 626 124 577 q 83 729 83 674 q 103 831 83 783 q 160 915 124 880 q 244 972 195 951 q 347 993 292 993 m 347 951 q 260 933 301 951 q 189 886 219 916 q 142 815 159 856 q 125 729 125 774 q 142 642 125 683 q 189 571 159 601 q 260 524 219 541 q 347 507 301 507 q 433 524 392 507 q 504 571 474 541 q 551 642 534 601 q 569 729 569 683 q 551 815 569 774 q 504 886 534 856 q 433 933 474 916 q 347 951 392 951 m 268 604 l 268 883 l 308 883 q 407 853 374 883 q 440 786 440 823 q 425 738 440 761 q 380 704 410 716 l 447 616 l 413 591 l 336 693 q 323 691 329 691 q 310 691 316 691 l 310 604 l 268 604 m 310 733 q 376 750 354 733 q 398 786 398 766 q 376 824 398 807 q 310 841 354 841 l 310 733 "},"Ũ":{"x_min":91.671875,"x_max":683.390625,"ha":775,"o":"m 133 972 l 133 268 q 154 170 133 213 q 209 94 175 126 q 290 45 244 62 q 387 27 336 27 q 484 45 438 27 q 565 94 530 62 q 620 170 600 126 q 641 268 641 213 l 641 972 l 683 972 l 683 268 q 659 153 683 205 q 594 63 634 101 q 500 6 554 26 q 387 -13 447 -13 q 274 6 327 -13 q 179 63 220 26 q 115 153 138 101 q 91 268 91 205 l 91 972 l 133 972 m 551 1165 q 505 1115 532 1130 q 452 1100 477 1100 q 375 1129 414 1100 q 320 1151 345 1151 q 286 1139 305 1151 q 257 1103 268 1128 l 223 1127 q 268 1177 241 1161 q 320 1193 294 1193 q 400 1163 361 1193 q 452 1142 426 1142 q 486 1153 468 1142 q 518 1191 505 1164 l 551 1165 "},"L":{"x_min":97,"x_max":608.46875,"ha":685,"o":"m 97 972 l 97 0 l 608 0 l 608 42 l 139 42 l 139 972 l 97 972 "},"ď":{"x_min":69.453125,"x_max":827.6875,"ha":833,"o":"m 647 1240 l 647 0 q 591 -3 619 -2 q 540 -4 563 -4 q 334 28 422 -4 q 186 113 245 61 q 98 235 127 166 q 69 375 69 304 q 98 515 69 447 q 186 636 127 583 q 334 722 245 690 q 541 755 423 755 q 572 754 556 755 q 605 752 587 754 l 605 1240 l 647 1240 m 540 37 q 571 37 555 37 q 605 38 587 37 l 605 711 q 572 713 588 712 q 541 713 556 713 q 352 684 433 713 q 218 607 272 655 q 138 499 165 559 q 111 375 111 438 q 138 250 111 311 q 218 143 165 190 q 352 66 272 95 q 540 37 433 37 m 827 1241 l 827 1143 q 826 1120 827 1135 q 820 1091 826 1105 q 800 1061 813 1076 q 762 1039 787 1047 l 748 1078 q 781 1108 776 1087 q 786 1143 786 1129 l 786 1164 l 744 1164 l 744 1241 l 827 1241 "}," ":{"x_min":0,"x_max":0,"ha":451},"Ĭ":{"x_min":-19.765625,"x_max":258.03125,"ha":236,"o":"m 97 972 l 97 0 l 139 0 l 139 972 l 97 972 m 258 1210 q 219 1121 258 1157 q 119 1085 181 1085 q 18 1121 56 1085 q -19 1210 -19 1157 l 21 1210 q 48 1150 21 1174 q 119 1127 74 1127 q 189 1150 163 1127 q 216 1210 216 1174 l 258 1210 "},"ŧ":{"x_min":-47.734375,"x_max":404.03125,"ha":432,"o":"m -47 535 l 112 535 l 112 703 l 49 703 l 49 745 l 112 745 l 112 986 l 154 986 l 154 745 l 373 745 l 373 703 l 154 703 l 154 535 l 313 535 l 313 493 l 154 493 l 154 261 q 170 163 154 204 q 215 94 187 121 q 283 54 244 67 q 366 41 322 41 q 381 41 373 41 q 398 42 388 41 l 404 0 q 384 -1 394 -1 q 366 -1 374 -1 q 267 14 313 -1 q 185 62 220 30 q 131 144 151 94 q 112 261 112 194 l 112 493 l -47 493 l -47 535 "},"À":{"x_min":68.0625,"x_max":812.5625,"ha":881,"o":"m 68 6 l 106 -7 l 208 262 l 672 262 l 773 -7 l 812 6 l 440 996 l 68 6 m 440 877 l 655 304 l 223 304 l 440 877 m 524 1055 l 314 1205 l 339 1239 l 549 1088 l 524 1055 "},"+":{"x_min":68.8125,"x_max":569.171875,"ha":639,"o":"m 68 408 l 298 408 l 298 179 l 340 179 l 340 408 l 569 408 l 569 450 l 340 450 l 340 679 l 298 679 l 298 450 l 68 450 l 68 408 "},"":{"x_min":73.390625,"x_max":684.5625,"ha":764,"o":"m 77 930 l 612 930 l 73 0 l 680 0 l 680 42 l 145 42 l 684 972 l 77 972 l 77 930 m 502 1214 l 377 1055 l 254 1214 l 287 1239 l 377 1123 l 469 1239 l 502 1214 "},"Ë":{"x_min":97,"x_max":647.375,"ha":724,"o":"m 647 0 l 647 42 l 139 42 l 139 522 l 555 522 l 555 564 l 139 564 l 139 930 l 647 930 l 647 972 l 97 972 l 97 0 l 647 0 m 244 1182 l 313 1182 l 313 1113 l 244 1113 l 244 1182 m 431 1182 l 501 1182 l 501 1113 l 431 1113 l 431 1182 "},"'":{"x_min":69,"x_max":111,"ha":181,"o":"m 69 778 l 111 778 l 111 972 l 69 972 l 69 778 "},"Š":{"x_min":76.390625,"x_max":640.328125,"ha":717,"o":"m 120 163 q 214 59 152 93 q 351 25 276 25 q 449 41 404 25 q 527 88 494 58 q 579 159 561 118 q 598 250 598 200 q 575 327 598 293 q 516 387 552 361 q 436 432 480 413 q 351 466 393 451 q 255 504 304 483 q 167 556 206 526 q 102 627 127 587 q 76 722 76 668 q 98 829 76 780 q 159 914 120 879 q 251 969 198 950 q 365 988 304 988 q 525 948 452 988 q 634 825 598 908 l 595 808 q 502 913 563 879 q 365 947 440 947 q 267 930 312 947 q 188 884 222 913 q 136 813 155 854 q 118 722 118 772 q 140 644 118 677 q 200 584 163 611 q 279 538 236 558 q 365 505 323 519 q 461 467 412 488 q 549 415 509 445 q 614 344 588 384 q 640 250 640 304 q 618 142 640 191 q 556 57 595 93 q 465 2 518 22 q 351 -16 412 -16 q 190 23 262 -16 q 81 147 118 63 l 120 163 m 483 1214 l 358 1055 l 235 1214 l 268 1239 l 358 1123 l 450 1239 l 483 1214 "},"ĳ":{"x_min":66.546875,"x_max":388.796875,"ha":472,"o":"m 97 744 l 97 0 l 139 0 l 139 744 l 97 744 m 83 902 l 152 902 l 152 972 l 83 972 l 83 902 m 319 972 l 388 972 l 388 904 l 319 904 l 319 972 m 102 -302 q 145 -348 119 -331 q 202 -365 170 -365 q 295 -318 256 -365 q 333 -186 333 -272 l 333 744 l 374 744 l 374 -186 q 361 -279 374 -238 q 324 -348 347 -320 q 269 -391 301 -376 q 202 -406 237 -406 q 123 -384 158 -406 q 66 -322 88 -362 l 102 -302 "},"˛":{"x_min":181.953125,"x_max":316.6875,"ha":435,"o":"m 316 -151 q 252 -172 283 -172 q 201 -154 220 -172 q 181 -106 181 -136 q 201 -54 181 -79 q 268 -6 220 -29 l 287 -41 q 238 -75 252 -59 q 223 -106 223 -91 q 231 -124 223 -118 q 252 -130 240 -130 q 294 -115 270 -130 l 316 -151 "},"ş":{"x_min":69,"x_max":576,"ha":645,"o":"m 272 -108 q 304 -113 284 -113 q 333 -107 321 -113 q 346 -86 346 -101 q 332 -76 346 -79 q 301 -72 319 -72 l 283 -72 l 300 -8 q 280 -10 289 -10 q 262 -10 272 -10 q 184 -1 229 -10 q 110 19 140 6 l 126 58 q 194 39 154 46 q 262 31 233 31 q 375 44 325 31 q 461 81 425 58 q 515 137 496 105 q 534 205 534 169 q 479 296 534 259 q 319 351 424 333 q 133 419 198 370 q 69 538 69 467 q 91 622 69 583 q 153 691 113 662 q 252 737 194 720 q 381 754 311 754 q 459 745 415 754 q 535 724 504 737 l 518 685 q 450 704 490 696 q 382 712 411 712 q 269 698 319 712 q 183 662 219 685 q 129 606 148 638 q 111 538 111 574 q 165 447 111 484 q 325 392 220 410 q 511 324 446 373 q 576 205 576 276 q 514 71 576 128 q 346 -3 453 13 l 337 -29 q 374 -48 360 -33 q 387 -86 387 -62 q 361 -139 387 -122 q 303 -156 335 -156 q 258 -147 279 -156 l 272 -108 "},"ı":{"x_min":97,"x_max":139,"ha":236,"o":"m 97 745 l 97 0 l 139 0 l 139 745 l 97 745 "},"Ć":{"x_min":76.390625,"x_max":650.046875,"ha":720,"o":"m 650 0 q 597 -3 626 -2 q 547 -4 569 -4 q 341 38 429 -4 q 193 149 252 80 q 105 306 134 218 q 76 486 76 394 q 105 667 76 579 q 193 824 134 755 q 341 935 252 893 q 548 977 430 977 q 598 977 570 977 q 650 973 626 976 l 647 932 q 595 935 623 934 q 548 936 568 936 q 359 897 440 936 q 225 795 279 858 q 145 651 172 732 q 118 486 118 570 q 145 320 118 401 q 225 177 172 240 q 359 75 279 113 q 547 37 440 37 q 595 38 566 37 q 647 41 623 38 l 650 0 m 335 1088 l 544 1239 l 569 1205 l 360 1055 l 335 1088 "},"ä":{"x_min":76.390625,"x_max":655.609375,"ha":739,"o":"m 150 655 q 263 731 201 704 q 405 758 326 758 q 489 744 445 758 q 570 697 533 730 q 631 609 607 663 q 655 473 655 554 l 655 0 l 613 0 l 613 72 q 500 6 563 26 q 370 -13 437 -13 q 259 5 312 -13 q 165 60 205 25 q 100 146 125 95 q 76 259 76 197 q 100 372 76 322 q 164 457 123 422 q 259 511 205 493 q 370 530 312 530 q 509 503 448 530 q 613 434 569 476 l 613 473 q 593 589 613 543 q 543 664 573 636 q 475 704 512 693 q 405 716 438 716 q 279 693 334 716 q 180 627 223 669 l 150 655 m 370 27 q 503 52 438 27 q 613 133 568 76 l 613 375 q 506 460 568 431 q 370 488 444 488 q 275 472 320 488 q 194 427 229 456 q 138 354 159 397 q 118 259 118 312 q 138 163 118 206 q 194 90 159 120 q 275 43 229 59 q 370 27 320 27 m 269 972 l 338 972 l 338 903 l 269 903 l 269 972 m 456 972 l 526 972 l 526 903 l 456 903 l 456 972 "},"¹":{"x_min":69.71875,"x_max":227,"ha":310,"o":"m 185 668 l 185 1028 l 103 927 l 69 952 l 227 1151 l 227 668 l 185 668 "},"£":{"x_min":27.78125,"x_max":636.15625,"ha":685,"o":"m 118 520 q 106 589 111 554 q 101 661 101 625 q 124 784 101 727 q 194 883 147 841 q 312 948 241 925 q 477 972 383 972 l 477 930 q 330 909 393 930 q 226 852 268 888 q 163 767 184 816 q 143 661 143 718 q 147 590 143 625 q 159 520 152 555 l 305 520 l 305 479 l 169 479 q 198 359 184 418 q 212 238 212 300 q 199 163 212 205 q 165 91 186 120 q 187 97 175 95 q 205 98 200 98 q 281 88 244 98 q 351 63 318 79 q 413 41 379 51 q 480 31 448 31 q 547 42 513 31 q 608 79 580 52 l 636 48 q 561 3 601 16 q 480 -9 520 -9 q 404 0 441 -9 q 334 25 366 11 q 269 47 302 38 q 205 56 236 56 q 164 47 188 56 q 122 27 140 37 q 86 10 104 18 q 52 0 68 2 l 45 41 q 86 63 63 45 q 127 109 108 81 q 158 169 145 136 q 170 238 170 202 q 156 356 170 297 q 126 479 141 416 l 27 479 l 27 520 l 118 520 "},"ů":{"x_min":83.34375,"x_max":663.9375,"ha":747,"o":"m 125 744 l 125 268 q 144 170 125 213 q 197 94 163 126 q 277 45 231 62 q 373 27 322 27 q 470 45 425 27 q 549 94 515 62 q 602 170 583 126 q 622 268 622 213 l 622 744 l 663 744 l 663 268 q 641 153 663 205 q 578 63 618 101 q 486 6 538 26 q 373 -13 433 -13 q 261 6 313 -13 q 168 63 208 26 q 106 153 129 101 q 83 268 83 205 l 83 744 l 125 744 m 286 938 q 313 1003 286 976 q 379 1031 340 1031 q 444 1003 417 1031 q 472 938 472 976 q 444 872 472 899 q 379 845 417 845 q 313 872 340 845 q 286 938 286 899 m 327 937 q 343 901 327 916 q 379 886 358 886 q 415 901 399 886 q 430 937 430 916 q 415 973 430 958 q 379 989 399 989 q 343 973 358 989 q 327 937 327 958 "},"Ō":{"x_min":69.453125,"x_max":1066.75,"ha":1136,"o":"m 69 486 q 108 679 69 588 q 215 838 147 770 q 374 945 283 905 q 568 984 465 984 q 761 945 670 984 q 920 838 852 905 q 1027 679 987 770 q 1066 486 1066 588 q 1027 292 1066 383 q 920 133 987 201 q 761 26 852 65 q 568 -12 670 -12 q 374 26 465 -12 q 215 133 283 65 q 108 292 147 201 q 69 486 69 383 m 111 486 q 147 308 111 391 q 245 163 183 225 q 390 65 306 101 q 568 29 473 29 q 745 65 662 29 q 891 163 829 101 q 988 308 952 225 q 1025 486 1025 391 q 988 663 1025 580 q 891 809 952 747 q 745 907 829 870 q 568 943 662 943 q 390 907 473 943 q 245 809 306 870 q 147 663 183 747 q 111 486 111 580 m 387 1169 l 748 1169 l 748 1127 l 387 1127 l 387 1169 "},"W":{"x_min":69.453125,"x_max":1004.25,"ha":1074,"o":"m 415 966 l 515 622 l 363 102 l 108 978 l 69 966 l 363 -42 l 536 551 l 709 -42 l 1004 966 l 965 978 l 709 102 l 556 622 l 658 966 l 619 978 l 536 694 l 454 978 l 415 966 "},"Ğ":{"x_min":76.390625,"x_max":668.109375,"ha":760,"o":"m 668 427 l 668 0 q 605 -3 640 -2 q 547 -4 570 -4 q 341 38 429 -4 q 193 149 252 80 q 105 306 134 218 q 76 486 76 394 q 105 667 76 579 q 193 824 134 755 q 341 935 252 893 q 547 977 429 977 q 605 976 570 977 q 668 972 640 975 l 668 929 q 597 934 632 933 q 547 936 562 936 q 359 897 440 936 q 225 795 279 858 q 145 651 172 732 q 118 486 118 570 q 145 320 118 401 q 225 177 172 240 q 359 75 279 113 q 547 37 440 37 q 585 37 562 37 q 626 38 608 37 l 626 427 l 668 427 m 610 1210 q 571 1121 610 1157 q 471 1085 533 1085 q 370 1121 408 1085 q 332 1210 332 1157 l 373 1210 q 400 1150 373 1174 q 471 1127 426 1127 q 541 1150 515 1127 q 568 1210 568 1174 l 610 1210 "},"v":{"x_min":69.453125,"x_max":661.15625,"ha":731,"o":"m 69 737 l 365 -28 l 661 737 l 622 751 l 365 85 l 108 751 l 69 737 "},">":{"x_min":69.453125,"x_max":694.5,"ha":764,"o":"m 83 164 l 694 400 l 83 636 l 69 597 l 579 400 l 69 202 l 83 164 "},"û":{"x_min":83.34375,"x_max":663.9375,"ha":747,"o":"m 125 744 l 125 268 q 144 170 125 213 q 197 94 163 126 q 277 45 231 62 q 373 27 322 27 q 470 45 425 27 q 549 94 515 62 q 602 170 583 126 q 622 268 622 213 l 622 744 l 663 744 l 663 268 q 641 153 663 205 q 578 63 618 101 q 486 6 538 26 q 373 -13 433 -13 q 261 6 313 -13 q 168 63 208 26 q 106 153 129 101 q 83 268 83 205 l 83 744 l 125 744 m 469 845 l 377 960 l 287 845 l 254 869 l 377 1029 l 502 869 l 469 845 "},"Ź":{"x_min":76.390625,"x_max":687.5625,"ha":764,"o":"m 80 930 l 615 930 l 76 0 l 683 0 l 683 42 l 148 42 l 687 972 l 80 972 l 80 930 m 265 1088 l 474 1239 l 499 1205 l 290 1055 l 265 1088 "},"Ų":{"x_min":91.671875,"x_max":683.390625,"ha":775,"o":"m 454 -144 q 390 -165 420 -165 q 338 -147 358 -165 q 319 -100 319 -129 q 332 -54 319 -76 q 377 -13 345 -33 q 268 8 319 -12 q 177 66 216 29 q 114 154 137 104 q 91 268 91 205 l 91 972 l 133 972 l 133 268 q 154 170 133 213 q 209 94 175 126 q 290 45 244 62 q 387 27 336 27 q 484 45 438 27 q 565 94 530 62 q 620 170 600 126 q 641 268 641 213 l 641 972 l 683 972 l 683 268 q 661 158 683 208 q 603 72 640 108 q 517 13 566 36 q 412 -12 468 -8 l 425 -34 q 375 -68 390 -52 q 361 -100 361 -84 q 369 -117 361 -111 q 390 -123 377 -123 q 431 -108 408 -123 l 454 -144 "},"Ŵ":{"x_min":69.453125,"x_max":1004.25,"ha":1074,"o":"m 415 966 l 515 622 l 363 102 l 108 978 l 69 966 l 363 -42 l 536 551 l 709 -42 l 1004 966 l 965 978 l 709 102 l 556 622 l 658 966 l 619 978 l 536 694 l 454 978 l 415 966 m 627 1055 l 535 1170 l 445 1055 l 412 1079 l 535 1239 l 660 1079 l 627 1055 "},"Ĺ":{"x_min":23.234375,"x_max":608.46875,"ha":685,"o":"m 97 972 l 97 0 l 608 0 l 608 42 l 139 42 l 139 972 l 97 972 m 23 1088 l 232 1239 l 257 1205 l 48 1055 l 23 1088 "},"r":{"x_min":91.671875,"x_max":368.078125,"ha":417,"o":"m 368 716 q 240 694 304 716 q 133 632 177 672 l 133 0 l 91 0 l 91 744 l 133 744 l 133 683 q 243 738 181 719 q 368 758 305 758 l 368 716 "},"":{"x_min":63.890625,"x_max":677.828125,"ha":742,"o":"m 69 703 l 593 703 l 63 0 l 672 0 l 672 42 l 148 42 l 677 745 l 69 745 l 69 703 m 495 1004 l 370 845 l 247 1004 l 280 1029 l 370 913 l 462 1029 l 495 1004 "},"Č":{"x_min":76.390625,"x_max":650.046875,"ha":720,"o":"m 650 0 q 597 -3 626 -2 q 547 -4 569 -4 q 341 38 429 -4 q 193 149 252 80 q 105 306 134 218 q 76 486 76 394 q 105 667 76 579 q 193 824 134 755 q 341 935 252 893 q 548 977 430 977 q 598 977 570 977 q 650 973 626 976 l 647 932 q 595 935 623 934 q 548 936 568 936 q 359 897 440 936 q 225 795 279 858 q 145 651 172 732 q 118 486 118 570 q 145 320 118 401 q 225 177 172 240 q 359 75 279 113 q 547 37 440 37 q 595 38 566 37 q 647 41 623 38 l 650 0 m 576 1214 l 451 1055 l 328 1214 l 361 1239 l 451 1123 l 543 1239 l 576 1214 "},"x":{"x_min":69.453125,"x_max":700.0625,"ha":770,"o":"m 69 12 l 358 372 l 69 731 l 102 757 l 384 405 l 666 757 l 700 731 l 411 372 l 700 12 l 666 -13 l 384 337 l 102 -13 l 69 12 "},"è":{"x_min":69.453125,"x_max":711.171875,"ha":781,"o":"m 627 0 q 581 -4 604 -2 q 538 -5 559 -5 q 335 27 423 -5 q 188 112 247 59 q 99 234 129 165 q 69 375 69 302 q 103 556 69 483 q 187 675 137 630 q 295 738 237 719 q 400 758 352 758 q 531 731 473 758 q 629 656 590 704 q 690 545 669 609 q 711 408 711 481 l 112 408 q 111 391 111 400 q 111 375 111 383 q 137 252 111 312 q 217 143 163 191 q 352 66 270 95 q 543 37 433 37 q 627 41 583 37 l 627 0 m 400 716 q 309 700 355 716 q 224 651 263 684 q 156 568 184 618 q 116 450 127 518 l 666 450 q 649 540 666 493 q 598 627 632 587 q 515 691 565 666 q 400 716 465 716 m 490 845 l 280 995 l 305 1029 l 515 878 l 490 845 "},"Ø":{"x_min":69.453125,"x_max":1066.75,"ha":1136,"o":"m 69 18 l 200 148 q 104 301 138 215 q 69 486 69 387 q 108 679 69 588 q 215 838 147 770 q 374 945 283 905 q 568 984 465 984 q 751 950 665 984 q 904 852 837 915 l 1036 984 l 1066 954 l 934 822 q 1032 669 997 755 q 1066 486 1066 583 q 1027 292 1066 383 q 920 133 987 201 q 761 26 852 65 q 568 -12 670 -12 q 383 22 469 -12 q 230 118 297 56 l 100 -12 l 69 18 m 1025 486 q 993 653 1025 575 q 905 793 961 732 l 259 147 q 400 60 322 91 q 568 29 477 29 q 745 65 662 29 q 891 163 829 101 q 988 308 952 225 q 1025 486 1025 391 m 111 486 q 142 318 111 395 q 229 177 173 240 l 875 823 q 735 911 813 879 q 568 943 657 943 q 390 907 473 943 q 245 809 306 870 q 147 663 183 747 q 111 486 111 580 "},"Ń":{"x_min":97,"x_max":677,"ha":774,"o":"m 139 0 l 139 859 l 677 -40 l 677 972 l 635 972 l 635 112 l 97 1012 l 97 0 l 139 0 m 269 1088 l 478 1239 l 503 1205 l 294 1055 l 269 1088 "},"÷":{"x_min":76.390625,"x_max":590.328125,"ha":667,"o":"m 76 408 l 590 408 l 590 450 l 76 450 l 76 408 m 292 179 l 375 179 l 375 262 l 292 262 l 292 179 m 292 595 l 375 595 l 375 679 l 292 679 l 292 595 "},"h":{"x_min":91.671875,"x_max":670.890625,"ha":754,"o":"m 133 1240 l 133 684 q 242 739 181 720 q 365 758 302 758 q 454 747 411 758 q 536 713 498 736 q 604 654 575 690 q 652 572 634 619 q 670 475 670 526 l 670 0 l 629 0 l 629 472 q 613 556 629 516 q 513 677 583 638 q 363 716 444 716 q 239 694 300 716 q 133 632 179 672 l 133 0 l 91 0 l 91 1240 l 133 1240 "},".":{"x_min":86.125,"x_max":169.453125,"ha":256,"o":"m 86 0 l 169 0 l 169 83 l 86 83 l 86 0 "},"f":{"x_min":29.171875,"x_max":550.046875,"ha":360,"o":"m 29 744 l 91 744 l 91 904 q 111 1023 91 970 q 165 1111 131 1075 q 245 1166 200 1147 q 343 1186 291 1186 q 459 1163 413 1186 q 550 1098 504 1141 l 522 1068 q 480 1102 500 1088 q 440 1126 461 1116 q 395 1140 419 1136 q 343 1144 372 1144 q 261 1128 300 1144 q 195 1081 223 1112 q 150 1005 166 1050 q 133 904 133 961 l 133 744 l 352 744 l 352 702 l 133 702 l 133 -406 l 91 -406 l 91 702 l 29 702 l 29 744 "},"“":{"x_min":86.125,"x_max":336.140625,"ha":422,"o":"m 86 727 l 86 845 q 86 871 86 854 q 93 907 87 888 q 113 942 100 925 q 151 968 126 959 l 165 929 q 143 913 151 925 q 132 889 136 902 q 128 864 129 876 q 127 845 127 852 l 127 811 l 169 811 l 169 727 l 86 727 m 252 727 l 252 845 q 253 871 252 854 q 260 907 254 888 q 279 942 266 925 q 318 968 293 959 l 331 929 q 310 913 318 925 q 299 889 302 902 q 295 864 295 876 q 294 845 294 852 l 294 811 l 336 811 l 336 727 l 252 727 "},"A":{"x_min":68.0625,"x_max":812.5625,"ha":881,"o":"m 68 6 l 106 -7 l 208 262 l 672 262 l 773 -7 l 812 6 l 440 996 l 68 6 m 440 877 l 655 304 l 223 304 l 440 877 "},"‘":{"x_min":86.125,"x_max":169.453125,"ha":256,"o":"m 86 727 l 86 845 q 86 871 86 854 q 93 907 87 888 q 113 942 100 925 q 151 968 126 959 l 165 929 q 143 913 151 925 q 132 889 136 902 q 128 864 129 876 q 127 845 127 852 l 127 811 l 169 811 l 169 727 l 86 727 "},"O":{"x_min":69.453125,"x_max":1066.75,"ha":1136,"o":"m 69 486 q 108 679 69 588 q 215 838 147 770 q 374 945 283 905 q 568 984 465 984 q 761 945 670 984 q 920 838 852 905 q 1027 679 987 770 q 1066 486 1066 588 q 1027 292 1066 383 q 920 133 987 201 q 761 26 852 65 q 568 -12 670 -12 q 374 26 465 -12 q 215 133 283 65 q 108 292 147 201 q 69 486 69 383 m 111 486 q 147 308 111 391 q 245 163 183 225 q 390 65 306 101 q 568 29 473 29 q 745 65 662 29 q 891 163 829 101 q 988 308 952 225 q 1025 486 1025 391 q 988 663 1025 580 q 891 809 952 747 q 745 907 829 870 q 568 943 662 943 q 390 907 473 943 q 245 809 306 870 q 147 663 183 747 q 111 486 111 580 "},"Đ":{"x_min":-20.828125,"x_max":702.828125,"ha":779,"o":"m 231 37 q 419 75 338 37 q 553 177 500 113 q 634 320 607 240 q 661 486 661 401 q 634 651 661 570 q 553 795 607 732 q 419 897 500 858 q 231 936 338 936 q 193 935 216 936 q 152 933 169 934 l 152 527 l 340 527 l 340 486 l 152 486 l 152 38 q 193 37 170 37 q 231 37 216 37 m -20 527 l 111 527 l 111 972 q 173 976 138 975 q 231 977 208 977 q 438 935 350 977 q 585 824 526 893 q 673 667 644 755 q 702 486 702 579 q 673 306 702 394 q 585 149 644 218 q 438 38 526 80 q 231 -4 350 -4 q 173 -3 208 -4 q 111 0 138 -2 l 111 486 l -20 486 l -20 527 "},"3":{"x_min":77.78125,"x_max":636.15625,"ha":731,"o":"m 84 40 q 131 34 109 36 q 179 33 152 33 q 339 52 263 33 q 472 104 415 70 q 561 186 529 138 q 594 293 594 234 q 579 361 594 327 q 539 425 565 395 q 477 477 513 454 q 395 516 440 501 q 272 543 334 537 q 152 548 209 548 l 423 930 l 112 930 l 112 972 l 504 972 l 231 587 q 320 578 276 584 q 409 556 365 572 q 495 515 454 541 q 567 454 536 488 q 617 379 598 420 q 636 293 636 338 q 593 156 636 213 q 483 62 550 98 q 336 9 416 26 q 179 -8 255 -8 q 128 -6 154 -8 q 77 -1 102 -5 l 84 40 "},"9":{"x_min":69.453125,"x_max":647.28125,"ha":731,"o":"m 227 38 q 258 36 243 37 q 288 36 273 36 q 447 68 386 36 q 544 153 509 101 q 592 271 579 205 q 605 404 605 337 l 605 555 q 502 454 568 493 q 358 415 437 415 q 245 438 298 415 q 154 500 193 461 q 92 591 115 538 q 69 704 69 644 q 92 816 69 763 q 154 908 115 869 q 245 970 193 947 q 358 993 298 993 q 470 970 418 993 q 562 908 523 947 q 624 816 601 869 q 647 704 647 763 l 647 404 q 630 255 647 329 q 573 124 613 181 q 463 30 533 66 q 290 -5 394 -5 q 259 -4 275 -5 q 227 -2 243 -4 l 227 38 m 605 704 q 586 800 605 755 q 533 879 566 845 q 454 932 500 912 q 358 951 409 951 q 261 932 306 951 q 183 879 216 912 q 130 800 150 845 q 111 704 111 755 q 130 607 111 652 q 183 529 150 562 q 261 476 216 495 q 358 456 306 456 q 454 476 409 456 q 533 529 500 495 q 586 607 566 562 q 605 704 605 652 "},"l":{"x_min":92,"x_max":134,"ha":225,"o":"m 92 1240 l 92 0 l 134 0 l 134 1240 l 92 1240 "},"4":{"x_min":59.3125,"x_max":659.6875,"ha":731,"o":"m 659 221 l 543 221 l 543 1024 l 59 179 l 501 179 l 501 0 l 543 0 l 543 179 l 659 179 l 659 221 m 131 221 l 501 866 l 501 221 l 131 221 "},"Ť":{"x_min":69.203125,"x_max":716.796875,"ha":786,"o":"m 414 0 l 414 930 l 716 930 l 716 972 l 69 972 l 69 930 l 372 930 l 372 0 l 414 0 m 517 1214 l 392 1055 l 269 1214 l 302 1239 l 392 1123 l 484 1239 l 517 1214 "},"Ś":{"x_min":76.390625,"x_max":640.328125,"ha":717,"o":"m 120 163 q 214 59 152 93 q 351 25 276 25 q 449 41 404 25 q 527 88 494 58 q 579 159 561 118 q 598 250 598 200 q 575 327 598 293 q 516 387 552 361 q 436 432 480 413 q 351 466 393 451 q 255 504 304 483 q 167 556 206 526 q 102 627 127 587 q 76 722 76 668 q 98 829 76 780 q 159 914 120 879 q 251 969 198 950 q 365 988 304 988 q 525 948 452 988 q 634 825 598 908 l 595 808 q 502 913 563 879 q 365 947 440 947 q 267 930 312 947 q 188 884 222 913 q 136 813 155 854 q 118 722 118 772 q 140 644 118 677 q 200 584 163 611 q 279 538 236 558 q 365 505 323 519 q 461 467 412 488 q 549 415 509 445 q 614 344 588 384 q 640 250 640 304 q 618 142 640 191 q 556 57 595 93 q 465 2 518 22 q 351 -16 412 -16 q 190 23 262 -16 q 81 147 118 63 l 120 163 m 241 1088 l 450 1239 l 475 1205 l 266 1055 l 241 1088 "},"Ü":{"x_min":91.671875,"x_max":683.390625,"ha":775,"o":"m 133 972 l 133 268 q 154 170 133 213 q 209 94 175 126 q 290 45 244 62 q 387 27 336 27 q 484 45 438 27 q 565 94 530 62 q 620 170 600 126 q 641 268 641 213 l 641 972 l 683 972 l 683 268 q 659 153 683 205 q 594 63 634 101 q 500 6 554 26 q 387 -13 447 -13 q 274 6 327 -13 q 179 63 220 26 q 115 153 138 101 q 91 268 91 205 l 91 972 l 133 972 m 260 1182 l 329 1182 l 329 1113 l 260 1113 l 260 1182 m 447 1182 l 517 1182 l 517 1113 l 447 1113 l 447 1182 "},"à":{"x_min":76.390625,"x_max":655.609375,"ha":739,"o":"m 150 655 q 263 731 201 704 q 405 758 326 758 q 489 744 445 758 q 570 697 533 730 q 631 609 607 663 q 655 473 655 554 l 655 0 l 613 0 l 613 72 q 500 6 563 26 q 370 -13 437 -13 q 259 5 312 -13 q 165 60 205 25 q 100 146 125 95 q 76 259 76 197 q 100 372 76 322 q 164 457 123 422 q 259 511 205 493 q 370 530 312 530 q 509 503 448 530 q 613 434 569 476 l 613 473 q 593 589 613 543 q 543 664 573 636 q 475 704 512 693 q 405 716 438 716 q 279 693 334 716 q 180 627 223 669 l 150 655 m 370 27 q 503 52 438 27 q 613 133 568 76 l 613 375 q 506 460 568 431 q 370 488 444 488 q 275 472 320 488 q 194 427 229 456 q 138 354 159 397 q 118 259 118 312 q 138 163 118 206 q 194 90 159 120 q 275 43 229 59 q 370 27 320 27 m 487 845 l 277 995 l 302 1029 l 512 878 l 487 845 "},"ó":{"x_min":69.453125,"x_max":841.734375,"ha":911,"o":"m 69 372 q 100 522 69 451 q 182 645 130 593 q 305 727 234 697 q 455 758 376 758 q 605 727 534 758 q 728 645 676 697 q 811 522 780 593 q 841 372 841 451 q 811 222 841 293 q 728 99 780 151 q 605 16 676 47 q 455 -13 534 -13 q 305 16 376 -13 q 182 99 234 47 q 100 222 130 151 q 69 372 69 293 m 111 372 q 138 238 111 301 q 211 128 165 175 q 321 54 258 81 q 455 27 384 27 q 589 54 526 27 q 699 128 652 81 q 772 238 745 175 q 800 372 800 301 q 772 506 800 443 q 699 616 745 569 q 589 689 652 662 q 455 716 526 716 q 321 689 384 716 q 211 616 258 662 q 138 506 165 569 q 111 372 111 443 m 355 878 l 564 1029 l 589 995 l 380 845 l 355 878 "},"ŗ":{"x_min":91.671875,"x_max":368.078125,"ha":417,"o":"m 368 716 q 240 694 304 716 q 133 632 177 672 l 133 0 l 91 0 l 91 744 l 133 744 l 133 683 q 243 738 181 719 q 368 758 305 758 l 368 716 m 256 -69 l 256 -166 q 255 -189 256 -174 q 249 -218 255 -204 q 229 -248 242 -233 q 191 -271 216 -262 l 177 -232 q 210 -201 205 -222 q 215 -166 215 -180 l 215 -145 l 173 -145 l 173 -69 l 256 -69 "}}}
